<?xml version="1.0" encoding="UTF-8" standalone="no"?>
<svg
   xmlns:dc="http://purl.org/dc/elements/1.1/"
   xmlns:cc="http://creativecommons.org/ns#"
   xmlns:rdf="http://www.w3.org/1999/02/22-rdf-syntax-ns#"
   xmlns:svg="http://www.w3.org/2000/svg"
   xmlns="http://www.w3.org/2000/svg"
   xmlns:xlink="http://www.w3.org/1999/xlink"
   xmlns:sodipodi="http://sodipodi.sourceforge.net/DTD/sodipodi-0.dtd"
   xmlns:inkscape="http://www.inkscape.org/namespaces/inkscape"
   version="1.1"
   id="svg13426"
   viewBox="0 0 1194.62 768.89769"
   height="768.89764"
   width="1194.62"
   inkscape:version="0.91 r13725"
   sodipodi:docname="background.svg">
  <sodipodi:namedview
     pagecolor="#ffffff"
     bordercolor="#666666"
     borderopacity="1"
     objecttolerance="10"
     gridtolerance="10"
     guidetolerance="10"
     inkscape:pageopacity="0"
     inkscape:pageshadow="2"
     inkscape:window-width="1366"
     inkscape:window-height="715"
     id="namedview1078"
     showgrid="false"
     inkscape:zoom="0.69845186"
     inkscape:cx="587.57775"
     inkscape:cy="346.97938"
     inkscape:window-x="-8"
     inkscape:window-y="-8"
     inkscape:window-maximized="1"
     inkscape:current-layer="svg13426" />
  <defs
     id="defs13428">
    <linearGradient
       y2="1710.9817"
       x2="-606.09155"
       y1="1189.7429"
       x1="-610.13214"
       gradientTransform="matrix(1.0084541,0,0,1.0084541,327.67138,-286.6726)"
       gradientUnits="userSpaceOnUse"
       id="linearGradient22188"
       xlink:href="#linearGradient5527" />
    <linearGradient
       id="linearGradient5527">
      <stop
         id="stop5529"
         offset="0"
         style="stop-color:#006acb;stop-opacity:1;" />
      <stop
         id="stop5531"
         offset="1"
         style="stop-color:#ffffff;stop-opacity:1;" />
    </linearGradient>
    <linearGradient
       y2="580.93359"
       x2="28.571428"
       y1="9.5050402"
       x1="20"
       gradientTransform="matrix(0.90831969,0,0,0.59996335,-404.65385,1311.8176)"
       gradientUnits="userSpaceOnUse"
       id="linearGradient22190"
       xlink:href="#linearGradient5613" />
    <linearGradient
       id="linearGradient5613">
      <stop
         id="stop5615"
         offset="0"
         style="stop-color:#2c873b;stop-opacity:1;" />
      <stop
         id="stop5617"
         offset="1"
         style="stop-color:#2cca1d;stop-opacity:1;" />
    </linearGradient>
    <linearGradient
       inkscape:collect="always"
       xlink:href="#linearGradient5613"
       id="linearGradient5118"
       gradientUnits="userSpaceOnUse"
       gradientTransform="matrix(0.90831969,0,0,0.59996335,512.99553,426.93928)"
       x1="20"
       y1="9.5050402"
       x2="28.571428"
       y2="580.93359" />
    <linearGradient
       inkscape:collect="always"
       xlink:href="#linearGradient5527"
       id="linearGradient5123"
       gradientUnits="userSpaceOnUse"
       gradientTransform="matrix(1.0084541,0,0,1.0084541,1247.4684,-1170.8351)"
       x1="-610.13214"
       y1="1189.7429"
       x2="-606.09155"
       y2="1710.9817" />
    <linearGradient
       inkscape:collect="always"
       id="linearGradient6071">
      <stop
         style="stop-color:#ffffff;stop-opacity:1;"
         offset="0"
         id="stop6073" />
      <stop
         style="stop-color:#ffffff;stop-opacity:0;"
         offset="1"
         id="stop6075" />
    </linearGradient>
    <linearGradient
       inkscape:collect="always"
       xlink:href="#linearGradient6071"
       id="linearGradient6091"
       x1="592.10309"
       y1="678.95221"
       x2="589.24591"
       y2="857.52368"
       gradientUnits="userSpaceOnUse" />
    <linearGradient
       inkscape:collect="always"
       xlink:href="#linearGradient6071"
       id="linearGradient6103"
       gradientUnits="userSpaceOnUse"
       x1="664.24744"
       y1="724.3822"
       x2="665.25757"
       y2="826.91266"
       gradientTransform="translate(-4.5456865,16.162441)" />
    <linearGradient
       inkscape:collect="always"
       xlink:href="#linearGradient6071"
       id="linearGradient6105"
       gradientUnits="userSpaceOnUse"
       x1="570.80829"
       y1="652.15625"
       x2="571.81842"
       y2="754.68677"
       gradientTransform="translate(88.893424,88.388348)" />
    <linearGradient
       inkscape:collect="always"
       xlink:href="#linearGradient6071"
       id="linearGradient6107"
       gradientUnits="userSpaceOnUse"
       x1="708.69409"
       y1="740.54462"
       x2="709.70428"
       y2="843.07513"
       gradientTransform="translate(-48.992398,0)" />
    <linearGradient
       inkscape:collect="always"
       xlink:href="#linearGradient6071"
       id="linearGradient6111"
       gradientUnits="userSpaceOnUse"
       x1="659.70172"
       y1="740.54462"
       x2="660.71185"
       y2="843.07513" />
    <linearGradient
       inkscape:collect="always"
       xlink:href="#linearGradient6071"
       id="linearGradient6113"
       gradientUnits="userSpaceOnUse"
       x1="592.10309"
       y1="678.95221"
       x2="589.24591"
       y2="857.52368"
       gradientTransform="translate(-144.95689,-191.92898)" />
    <linearGradient
       inkscape:collect="always"
       xlink:href="#linearGradient6071"
       id="linearGradient6115"
       gradientUnits="userSpaceOnUse"
       x1="489.99609"
       y1="723.87708"
       x2="491.00623"
       y2="826.40759"
       gradientTransform="translate(169.70563,16.667517)" />
    <linearGradient
       inkscape:collect="always"
       xlink:href="#linearGradient6071"
       id="linearGradient6117"
       gradientUnits="userSpaceOnUse"
       gradientTransform="translate(156.57365,91.923882)"
       x1="503.12808"
       y1="648.62073"
       x2="504.13821"
       y2="751.15125" />
    <linearGradient
       inkscape:collect="always"
       xlink:href="#linearGradient6071"
       id="linearGradient6119"
       gradientUnits="userSpaceOnUse"
       gradientTransform="translate(-15.657358,90.408653)"
       x1="675.35907"
       y1="650.13599"
       x2="676.3692"
       y2="752.66644" />
    <linearGradient
       inkscape:collect="always"
       xlink:href="#linearGradient6071"
       id="linearGradient6121"
       gradientUnits="userSpaceOnUse"
       gradientTransform="translate(-33.335027,80.307128)"
       x1="693.03674"
       y1="660.23749"
       x2="694.04688"
       y2="762.76801" />
    <linearGradient
       inkscape:collect="always"
       xlink:href="#linearGradient6071"
       id="linearGradient6123"
       gradientUnits="userSpaceOnUse"
       x1="555.86005"
       y1="684.50372"
       x2="557.07068"
       y2="807.38275"
       gradientTransform="matrix(0.83440176,0,0,0.83440176,195.89112,169.39352)" />
    <linearGradient
       inkscape:collect="always"
       xlink:href="#linearGradient6071"
       id="linearGradient6125"
       gradientUnits="userSpaceOnUse"
       gradientTransform="matrix(0.83440176,0,0,0.83440176,184.77944,167.87829)"
       x1="569.177"
       y1="686.31964"
       x2="570.38763"
       y2="809.19873" />
    <linearGradient
       inkscape:collect="always"
       xlink:href="#linearGradient6071"
       id="linearGradient6127"
       gradientUnits="userSpaceOnUse"
       gradientTransform="matrix(0.83440176,0,0,0.83440176,189.8302,172.92905)"
       x1="563.12384"
       y1="680.26648"
       x2="564.33447"
       y2="803.14557" />
    <linearGradient
       inkscape:collect="always"
       xlink:href="#linearGradient6071"
       id="linearGradient6129"
       gradientUnits="userSpaceOnUse"
       gradientTransform="matrix(0.46437437,0,0,0.46437437,421.73276,451.5291)"
       x1="512.45068"
       y1="622.3761"
       x2="514.62598"
       y2="843.16888" />
  </defs>
  <metadata
     id="metadata13431">
    <rdf:RDF>
      <cc:Work
         rdf:about="">
        <dc:format>image/svg+xml</dc:format>
        <dc:type
           rdf:resource="http://purl.org/dc/dcmitype/StillImage" />
        <dc:title></dc:title>
      </cc:Work>
    </rdf:RDF>
  </metadata>
  <path
     inkscape:connector-curvature="0"
     style="fill:url(#linearGradient5123);fill-opacity:1;fill-rule:nonzero;stroke:none"
     d="m 1194.7061,612.77155 c -24.513,0.1042 -1194.95932,-12.7864 -1194.95932,-12.7864 0.009,-11.4092 0.21312,-599.98548 0.21312,-599.98548 0,0 1181.8335,0.0549 1194.8464,-0.0245 0.4682,124.48122 0.5909,413.06698 -0.1002,612.79638 z"
     id="path20236"
     sodipodi:nodetypes="ccccc" />
  <path
     inkscape:connector-curvature="0"
     id="path20242"
     d="m 333.09793,428.94528 c 154.4149,38.6185 330.39773,47.10332 495.33241,1.7141 59.78083,-16.4514 201.37716,-69.39048 366.40246,1.3005 -0.032,23.3742 0.6022,320.84569 0.4602,337.77889 L -1.9422471,768.88978 c 0.3621,-26.5604 -0.20242,-229.8613 -0.20242,-337.01 15.2629101,-9.5432 165.8418171,-45.3009 335.2426171,-2.9346 z"
     style="fill:url(#linearGradient5118);fill-opacity:1;fill-rule:nonzero;stroke:none"
     sodipodi:nodetypes="cscccccc" />
  <path
     inkscape:connector-curvature="0"
     id="path20240-5"
     d="m 1051.5677,178.15034 c -6.7592,0 -12.3691,3.223 -13.5678,7.48209 -4.5859,1.15567 -7.9432,4.88138 -7.9432,9.30133 0,3.39163 1.9788,6.36998 4.9709,8.09705 -0.022,0.25723 -0.038,0.51891 -0.038,0.78149 0,5.23357 4.3784,9.48073 9.7755,9.48073 2.3343,0 4.469,-0.80246 6.1496,-2.12676 1.8471,0.72402 3.9516,1.14027 6.1881,1.14027 3.3311,0 6.3738,-0.90719 8.6992,-2.40861 0.5945,0.15004 1.2111,0.23061 1.8577,0.23061 3.8707,0 7.0081,-2.87513 7.0081,-6.41873 0,-1.67819 -0.7056,-3.19982 -1.8577,-4.34317 1.7662,-1.72921 2.8442,-4.05615 2.8442,-6.61087 0,-5.34257 -4.7236,-9.67291 -10.5569,-9.67291 -0.4121,0 -0.8172,0.0222 -1.2171,0.0641 -2.2903,-2.96672 -6.9481,-4.9966 -12.3121,-4.9966 z"
     style="fill:#ffffff;fill-opacity:0.60638296;fill-rule:nonzero;stroke:none" />
  <g
     transform="matrix(-1.0376661,0,0,1.0376661,817.03793,-670.51089)"
     id="g6342">
    <g
       id="g6346"
       transform="translate(51.915175,84.093931)">
      <path
         id="path6348"
         d="m 582.37537,520.4775 c -16.47151,0 -30.15279,7.84462 -33.09375,18.21875 -11.18803,2.81782 -19.375,11.90537 -19.375,22.6875 0,8.27563 4.82262,15.56939 12.125,19.78125 -0.0527,0.62735 -0.0937,1.26572 -0.0937,1.90625 0,12.7655 10.67934,23.09375 23.84375,23.09375 5.70292,0 10.92885,-1.9169 15.03125,-5.15625 4.49671,1.75736 9.62135,2.75 15.0625,2.75 8.11866,0 15.51681,-2.21771 21.1875,-5.875 1.45351,0.36793 2.98112,0.59375 4.5625,0.59375 9.44114,0 17.09375,-7.01295 17.09375,-15.65625 0,-4.09344 -1.72107,-7.80491 -4.53125,-10.59375 4.30817,-4.21773 6.9375,-9.89359 6.9375,-16.125 0,-13.0314 -11.5218,-23.59375 -25.75,-23.59375 -1.00533,0 -1.99344,0.0536 -2.96875,0.15625 -5.58629,-7.23626 -16.9475,-12.1875 -30.03125,-12.1875 z"
         style="fill:#ffffff;fill-opacity:1;fill-rule:nonzero;stroke:none"
         inkscape:connector-curvature="0" />
      <g
         transform="translate(-3.9285716,-0.71428535)"
         id="g6350">
        <path
           inkscape:connector-curvature="0"
           style="fill:none;stroke:#000000;stroke-width:0.48517844px;stroke-linecap:butt;stroke-linejoin:miter;stroke-opacity:0.21938776"
           d="m 557.1329,575.16036 c 5.1228,10.32555 13.43389,13.87935 25.53828,9.37625"
           id="path6352" />
        <path
           inkscape:connector-curvature="0"
           id="path6355"
           d="m 612.07631,542.08096 c 10.29033,5.1933 13.78707,13.5286 9.20138,25.6019"
           style="fill:none;stroke:#000000;stroke-width:0.48517844px;stroke-linecap:butt;stroke-linejoin:miter;stroke-opacity:0.21938776" />
        <path
           inkscape:connector-curvature="0"
           style="fill:none;stroke:#000000;stroke-width:0.48517844px;stroke-linecap:butt;stroke-linejoin:miter;stroke-opacity:0.21938776"
           d="m 551.16885,561.30866 c 0.98253,-11.4846 7.4132,-17.8367 20.32569,-18.0827"
           id="path6357" />
        <path
           inkscape:connector-curvature="0"
           id="path6359"
           d="m 578.6329,578.66031 c 5.1228,10.3256 13.43389,13.8794 25.53828,9.3763"
           style="fill:none;stroke:#000000;stroke-width:0.48517844px;stroke-linecap:butt;stroke-linejoin:miter;stroke-opacity:0.21938776" />
        <path
           inkscape:connector-curvature="0"
           style="fill:none;stroke:#000000;stroke-width:0.48517844px;stroke-linecap:butt;stroke-linejoin:miter;stroke-opacity:0.21938776"
           d="m 615.84543,565.47246 c 10.17528,5.4152 13.49043,13.82425 8.644,25.79525"
           id="path6361" />
      </g>
    </g>
  </g>
  <g
     transform="matrix(0.87225737,0,0,0.87225737,469.29139,-503.54189)"
     id="g4441">
    <path
       inkscape:connector-curvature="0"
       id="path4443"
       d="m 645.51238,602.61204 c -16.48688,0 -30.17017,7.8614 -33.09375,18.25 -11.18614,2.8189 -19.375,11.9065 -19.375,22.68745 0,8.2727 4.82687,15.5374 12.125,19.75 -0.0527,0.6274 -0.0937,1.2657 -0.0937,1.9062 0,12.7655 10.67934,23.125 23.84375,23.125 5.69392,0 10.90051,-1.9573 15,-5.1875 4.50524,1.766 9.63826,2.7813 15.09375,2.7813 8.12482,0 15.54641,-2.2128 21.21875,-5.875 1.45001,0.366 2.95413,0.5625 4.53125,0.5625 9.44114,0 17.09375,-7.0129 17.09375,-15.6563 0,-4.0934 -1.72107,-7.8049 -4.53125,-10.5937 4.30817,-4.2178 6.9375,-9.8936 6.9375,-16.12495 0,-13.0314 -11.5218,-23.5938 -25.75,-23.5938 -1.00533,0 -1.99344,0.054 -2.96875,0.1563 -5.58629,-7.2363 -16.9475,-12.1875 -30.03125,-12.1875 z"
       style="fill:#ffffff;fill-opacity:0.60638296;fill-rule:nonzero;stroke:none" />
    <g
       id="g4445"
       transform="translate(51.915175,84.093931)">
      <path
         id="path4447"
         d="m 582.37537,520.4775 c -16.47151,0 -30.15279,7.84462 -33.09375,18.21875 -11.18803,2.81782 -19.375,11.90537 -19.375,22.6875 0,8.27563 4.82262,15.56939 12.125,19.78125 -0.0527,0.62735 -0.0937,1.26572 -0.0937,1.90625 0,12.7655 10.67934,23.09375 23.84375,23.09375 5.70292,0 10.92885,-1.9169 15.03125,-5.15625 4.49671,1.75736 9.62135,2.75 15.0625,2.75 8.11866,0 15.51681,-2.21771 21.1875,-5.875 1.45351,0.36793 2.98112,0.59375 4.5625,0.59375 9.44114,0 17.09375,-7.01295 17.09375,-15.65625 0,-4.09344 -1.72107,-7.80491 -4.53125,-10.59375 4.30817,-4.21773 6.9375,-9.89359 6.9375,-16.125 0,-13.0314 -11.5218,-23.59375 -25.75,-23.59375 -1.00533,0 -1.99344,0.0536 -2.96875,0.15625 -5.58629,-7.23626 -16.9475,-12.1875 -30.03125,-12.1875 z"
         style="fill:#ffffff;fill-opacity:1;fill-rule:nonzero;stroke:none"
         inkscape:connector-curvature="0" />
      <g
         transform="translate(-3.9285716,-0.71428535)"
         id="g4449">
        <path
           inkscape:connector-curvature="0"
           style="fill:none;stroke:#000000;stroke-width:0.48517844px;stroke-linecap:butt;stroke-linejoin:miter;stroke-opacity:0.21938776"
           d="m 557.1329,575.16036 c 5.1228,10.32555 13.43389,13.87935 25.53828,9.37625"
           id="path4451" />
        <path
           inkscape:connector-curvature="0"
           id="path4453"
           d="m 612.07631,542.08096 c 10.29033,5.1933 13.78707,13.5286 9.20138,25.6019"
           style="fill:none;stroke:#000000;stroke-width:0.48517844px;stroke-linecap:butt;stroke-linejoin:miter;stroke-opacity:0.21938776" />
        <path
           inkscape:connector-curvature="0"
           style="fill:none;stroke:#000000;stroke-width:0.48517844px;stroke-linecap:butt;stroke-linejoin:miter;stroke-opacity:0.21938776"
           d="m 551.16885,561.30866 c 0.98253,-11.4846 7.4132,-17.8367 20.32569,-18.0827"
           id="path4455" />
        <path
           inkscape:connector-curvature="0"
           id="path4457"
           d="m 578.6329,578.66031 c 5.1228,10.3256 13.43389,13.8794 25.53828,9.3763"
           style="fill:none;stroke:#000000;stroke-width:0.48517844px;stroke-linecap:butt;stroke-linejoin:miter;stroke-opacity:0.21938776" />
        <path
           inkscape:connector-curvature="0"
           style="fill:none;stroke:#000000;stroke-width:0.48517844px;stroke-linecap:butt;stroke-linejoin:miter;stroke-opacity:0.21938776"
           d="m 615.84543,565.47246 c 10.17528,5.4152 13.49043,13.82425 8.644,25.79525"
           id="path4459" />
      </g>
    </g>
  </g>
  <g
     id="g11998"
     transform="matrix(1.6658838,0,0,-1.6658838,1.7944812,1503.8507)">
    <ellipse
       ry="8.5714283"
       rx="15.714286"
       cy="492.36218"
       cx="400"
       style="color:#000000;display:inline;overflow:visible;visibility:visible;fill:#000000;fill-opacity:0.14893619;fill-rule:nonzero;stroke:none;enable-background:accumulate"
       id="ellipse12000"
       transform="translate(-4.9229925e-6,0)" />
    <ellipse
       ry="8.5714283"
       rx="15.714286"
       cy="492.36218"
       cx="400"
       transform="matrix(0.48574052,0,0,0.48574052,224.89669,268.99703)"
       id="ellipse12002"
       style="color:#000000;display:inline;overflow:visible;visibility:visible;fill:#000000;fill-opacity:0.14893619;fill-rule:nonzero;stroke:none;enable-background:accumulate" />
    <ellipse
       ry="8.5714283"
       rx="15.714286"
       cy="492.36218"
       cx="400"
       style="color:#000000;display:inline;overflow:visible;visibility:visible;fill:#000000;fill-opacity:0.14893619;fill-rule:nonzero;stroke:none;enable-background:accumulate"
       id="ellipse12004"
       transform="matrix(0.30896382,0,0,0.30896382,239.29136,337.34738)" />
    <ellipse
       id="ellipse12006"
       style="color:#000000;display:inline;overflow:visible;visibility:visible;fill:#000000;fill-opacity:0.14893619;fill-rule:nonzero;stroke:none;enable-background:accumulate"
       cx="400.05801"
       cy="490.33017"
       rx="11.988968"
       ry="6.5394368" />
    <ellipse
       id="ellipse12008"
       style="color:#000000;display:inline;overflow:visible;visibility:visible;fill:#000000;fill-opacity:0.14893619;fill-rule:nonzero;stroke:none;enable-background:accumulate"
       cx="362.83405"
       cy="489.22269"
       rx="4.2869349"
       ry="2.3383281" />
  </g>
  <use
     x="0"
     y="0"
     xlink:href="#g11998"
     id="use12034"
     transform="matrix(0.62526432,0,0,0.62526432,731.00857,317.37014)"
     width="100%"
     height="100%" />
  <use
     x="0"
     y="0"
     xlink:href="#g11998"
     id="use12036"
     transform="matrix(-0.51801192,0,0,0.51801192,579.47411,91.557857)"
     width="100%"
     height="100%"
     style="opacity:0.64499996" />
  <use
     x="0"
     y="0"
     xlink:href="#g11998"
     id="use12038"
     transform="matrix(0.72519384,0,0,0.72519384,-359.62239,78.683096)"
     width="100%"
     height="100%" />
  <use
     x="0"
     y="0"
     xlink:href="#g11998"
     id="use12042"
     transform="matrix(0.62526428,0,0,0.62526428,174.06244,63.323031)"
     width="100%"
     height="100%"
     style="opacity:0.611" />
  <use
     x="0"
     y="0"
     xlink:href="#g11998"
     id="use12058"
     transform="matrix(0.54813618,0,0,0.54813618,518.00336,77.692474)"
     width="100%"
     height="100%"
     style="opacity:0.489" />
  <use
     x="0"
     y="0"
     xlink:href="#path20240-5"
     id="use12060"
     transform="matrix(0.71481506,0,0,0.71481506,37.475539,236.93173)"
     width="100%"
     height="100%"
     style="opacity:0.29" />
  <use
     x="0"
     y="0"
     xlink:href="#path20240-5"
     id="use12064"
     transform="matrix(0.67407436,0,0,0.67407436,-413.07713,234.16753)"
     width="100%"
     height="100%"
     style="opacity:0.37" />
  <use
     x="0"
     y="0"
     xlink:href="#path20240-5"
     id="use12066"
     transform="matrix(0.74880466,0,0,0.74880466,346.08146,196.51476)"
     width="100%"
     height="100%"
     style="opacity:0.294" />
  <use
     x="0"
     y="0"
     xlink:href="#use12066"
     id="use12068"
     transform="matrix(1.1677309,0,0,1,-1274.1105,-27.203022)"
     width="100%"
     height="100%"
     style="opacity:0.279" />
</svg>
