<?xml version="1.0" encoding="UTF-8" standalone="no"?>
<svg
   xmlns:dc="http://purl.org/dc/elements/1.1/"
   xmlns:cc="http://creativecommons.org/ns#"
   xmlns:rdf="http://www.w3.org/1999/02/22-rdf-syntax-ns#"
   xmlns:svg="http://www.w3.org/2000/svg"
   xmlns="http://www.w3.org/2000/svg"
   xmlns:xlink="http://www.w3.org/1999/xlink"
   xmlns:sodipodi="http://sodipodi.sourceforge.net/DTD/sodipodi-0.dtd"
   xmlns:inkscape="http://www.inkscape.org/namespaces/inkscape"
   version="1.1"
   id="svg13426"
   viewBox="0 0 1194.6221 768.89769"
   height="217mm"
   width="337.1489mm"
   inkscape:version="0.48.4 r9939"
   sodipodi:docname="main.svg">
  <sodipodi:namedview
     pagecolor="#ffffff"
     bordercolor="#666666"
     borderopacity="1"
     objecttolerance="10"
     gridtolerance="10"
     guidetolerance="10"
     inkscape:pageopacity="0"
     inkscape:pageshadow="2"
     inkscape:window-width="1366"
     inkscape:window-height="715"
     id="namedview1078"
     showgrid="false"
     inkscape:zoom="0.69845186"
     inkscape:cx="782.72109"
     inkscape:cy="400.0998"
     inkscape:window-x="-8"
     inkscape:window-y="-8"
     inkscape:window-maximized="1"
     inkscape:current-layer="svg13426" />
  <defs
     id="defs13428">
    <linearGradient
       y2="1710.9817"
       x2="-606.09155"
       y1="1189.7429"
       x1="-610.13214"
       gradientTransform="matrix(1.0084541,0,0,1.0084541,327.67138,-286.6726)"
       gradientUnits="userSpaceOnUse"
       id="linearGradient22188"
       xlink:href="#linearGradient5527" />
    <linearGradient
       id="linearGradient5527">
      <stop
         id="stop5529"
         offset="0"
         style="stop-color:#006acb;stop-opacity:1;" />
      <stop
         id="stop5531"
         offset="1"
         style="stop-color:#ffffff;stop-opacity:1;" />
    </linearGradient>
    <linearGradient
       y2="580.93359"
       x2="28.571428"
       y1="9.5050402"
       x1="20"
       gradientTransform="matrix(0.90831969,0,0,0.59996335,-404.65385,1311.8176)"
       gradientUnits="userSpaceOnUse"
       id="linearGradient22190"
       xlink:href="#linearGradient5613" />
    <linearGradient
       id="linearGradient5613">
      <stop
         id="stop5615"
         offset="0"
         style="stop-color:#2c873b;stop-opacity:1;" />
      <stop
         id="stop5617"
         offset="1"
         style="stop-color:#2cca1d;stop-opacity:1;" />
    </linearGradient>
    <linearGradient
       inkscape:collect="always"
       xlink:href="#linearGradient5613"
       id="linearGradient5118"
       gradientUnits="userSpaceOnUse"
       gradientTransform="matrix(0.90831969,0,0,0.59996335,515.14314,427.65515)"
       x1="20"
       y1="9.5050402"
       x2="28.571428"
       y2="580.93359" />
    <linearGradient
       inkscape:collect="always"
       xlink:href="#linearGradient5527"
       id="linearGradient5123"
       gradientUnits="userSpaceOnUse"
       gradientTransform="matrix(1.0084541,0,0,1.0084541,1247.4684,-1170.8351)"
       x1="-610.13214"
       y1="1189.7429"
       x2="-606.09155"
       y2="1710.9817" />
  </defs>
  <metadata
     id="metadata13431">
    <rdf:RDF>
      <cc:Work
         rdf:about="">
        <dc:format>image/svg+xml</dc:format>
        <dc:type
           rdf:resource="http://purl.org/dc/dcmitype/StillImage" />
        <dc:title />
      </cc:Work>
    </rdf:RDF>
  </metadata>
  <path
     inkscape:connector-curvature="0"
     style="fill:url(#linearGradient5123);fill-opacity:1;fill-rule:nonzero;stroke:none"
     d="m 1194.7061,612.77155 c -24.513,0.1042 -1194.95932,-12.7864 -1194.95932,-12.7864 0.009,-11.4092 0.21312,-599.98548 0.21312,-599.98548 0,0 1181.8335,0.0549 1194.8464,-0.0245 -0.038,9.06857 -1.4339,413.57318 -0.1002,612.79638 z"
     id="path20236" />
  <path
     inkscape:connector-curvature="0"
     style="fill:#000000;fill-opacity:0.10106381;fill-rule:nonzero;stroke:none"
     d="m 211.90207,24.3017 c -20.67969,0 -37.8428,10.1776 -41.50988,23.6267 -14.03091,3.6494 -24.3023,15.4144 -24.3023,29.3715 0,10.71 6.0544,20.115 15.20853,25.5686 -0.0661,0.8122 -0.11753,1.6386 -0.11753,2.4679 0,16.52635 13.39523,29.93795 29.9075,29.93795 7.14196,0 13.67265,-2.5341 18.81468,-6.7158 5.65098,2.2863 12.08939,3.6006 18.93228,3.6006 10.19105,0 19.50004,-2.8647 26.61493,-7.6058 1.81876,0.4738 3.7054,0.7282 5.6836,0.7282 11.84213,0 21.44089,-9.0791 21.44089,-20.26885 0,-5.2994 -2.15875,-10.1043 -5.6836,-13.7148 5.40379,-5.4603 8.70179,-12.8084 8.70179,-20.8756 0,-16.8706 -14.45193,-30.5448 -32.29853,-30.5448 -1.261,0 -2.5004,0.069 -3.72374,0.2023 -7.00695,-9.3682 -21.25745,-15.7781 -37.66856,-15.7781 z"
     id="path20238" />
  <path
     inkscape:connector-curvature="0"
     id="path20240"
     d="m 807.28685,80.0668 c -16.48688,0 -30.17017,7.8614 -33.09375,18.25 -11.18614,2.8189 -19.375,11.9065 -19.375,22.68745 0,8.2727 4.82687,15.5374 12.125,19.75 -0.0527,0.6274 -0.0937,1.2657 -0.0937,1.9062 0,12.7655 10.67934,23.125 23.84375,23.125 5.69392,0 10.90051,-1.9573 15,-5.1875 4.50524,1.766 9.63826,2.7813 15.09375,2.7813 8.12482,0 15.54641,-2.2128 21.21875,-5.875 1.45001,0.366 2.95413,0.5625 4.53125,0.5625 9.44114,0 17.09375,-7.0129 17.09375,-15.6563 0,-4.0934 -1.72107,-7.8049 -4.53125,-10.5937 4.30817,-4.2178 6.9375,-9.8936 6.9375,-16.12495 0,-13.0314 -11.5218,-23.5938 -25.75,-23.5938 -1.00533,0 -1.99344,0.054 -2.96875,0.1563 -5.58629,-7.2363 -16.9475,-12.1875 -30.03125,-12.1875 z"
     style="fill:#ffffff;fill-opacity:0.60638296;fill-rule:nonzero;stroke:none" />
  <path
     inkscape:connector-curvature="0"
     id="path20242"
     d="m 335.24554,429.66115 c 154.4149,38.6185 342.50566,78.5751 495.33241,1.7141 55.48562,-27.9053 340.84135,-25.2597 364.12455,1.0474 -0.032,23.3742 0.096,319.5802 -0.046,336.5134 L 0.20536,769.60565 c 0.3621,-26.5604 -0.20242,-229.8613 -0.20242,-337.01 15.26291,-9.5432 165.84182,-45.3009 335.24262,-2.9346 z"
     style="fill:url(#linearGradient5118);fill-opacity:1;fill-rule:nonzero;stroke:none" />
  <g
     id="g20542"
     transform="matrix(0.42207785,0,0,0.50000009,-212.55291,-2136.7798)"
     style="fill:#c6c6c6;fill-opacity:1">
    <path
       inkscape:connector-curvature="0"
       style="fill:#c6c6c6;fill-opacity:1;fill-rule:nonzero;stroke:none"
       d="m 801.55837,4572.3627 c 0,12.3666 -15.09152,22.3917 -33.70786,22.3917 -18.61634,0 -33.70786,-10.0251 -33.70786,-22.3917 0,-12.3665 15.09152,-22.3916 33.70786,-22.3916 18.61634,0 33.70786,10.0251 33.70786,22.3916 z"
       id="path20544" />
    <path
       inkscape:connector-curvature="0"
       style="fill:#c6c6c6;fill-opacity:1;fill-rule:nonzero;stroke:none"
       d="m 797.2245,4590.9021 c 0,12.2336 -11.42644,22.1509 -25.52167,22.1509 -14.09522,0 -25.52166,-9.9173 -25.52166,-22.1509 0,-12.2336 11.42644,-22.1509 25.52166,-22.1509 14.09523,0 25.52167,9.9173 25.52167,22.1509 z"
       id="path20546" />
    <path
       inkscape:connector-curvature="0"
       style="fill:#c6c6c6;fill-opacity:1;fill-rule:nonzero;stroke:none"
       d="m 768.81359,4590.9021 c 0,13.0314 -11.96542,23.5955 -26.72552,23.5955 -14.76009,0 -26.72552,-10.5641 -26.72552,-23.5955 0,-13.0315 11.96543,-23.5955 26.72552,-23.5955 14.7601,0 26.72552,10.564 26.72552,23.5955 z"
       id="path20548" />
    <path
       inkscape:connector-curvature="0"
       style="fill:#c6c6c6;fill-opacity:1;fill-rule:nonzero;stroke:none"
       d="m 826.59849,4585.6051 c 0,13.0315 -11.53423,23.5955 -25.76243,23.5955 -14.2282,0 -25.76244,-10.564 -25.76244,-23.5955 0,-13.0314 11.53424,-23.5955 25.76244,-23.5955 14.2282,0 25.76243,10.5641 25.76243,23.5955 z"
       id="path20550" />
    <path
       inkscape:connector-curvature="0"
       style="fill:#c6c6c6;fill-opacity:1;fill-rule:nonzero;stroke:none"
       d="m 813.59689,4609.4414 c 0,13.1644 -14.44474,23.8363 -32.26324,23.8363 -17.81849,0 -32.26324,-10.6719 -32.26324,-23.8363 0,-13.1644 14.44475,-23.8363 32.26324,-23.8363 17.8185,0 32.26324,10.6719 32.26324,23.8363 z"
       id="path20552" />
    <path
       inkscape:connector-curvature="0"
       style="fill:#c6c6c6;fill-opacity:1;fill-rule:nonzero;stroke:none"
       d="m 775.07362,4612.5714 c 0,12.7655 -10.67186,23.114 -23.83627,23.114 -13.16441,0 -23.83628,-10.3485 -23.83628,-23.114 0,-12.7655 10.67187,-23.114 23.83628,-23.114 13.16441,0 23.83627,10.3485 23.83627,23.114 z"
       id="path20554" />
    <path
       inkscape:connector-curvature="0"
       style="fill:#c6c6c6;fill-opacity:1;fill-rule:nonzero;stroke:none"
       d="m 824.19079,4612.3306 c 0,8.6433 -7.65356,15.6501 -17.0947,15.6501 -9.44115,0 -17.0947,-7.0068 -17.0947,-15.6501 0,-8.6433 7.65355,-15.65 17.0947,-15.65 9.44114,0 17.0947,7.0067 17.0947,15.65 z"
       id="path20556" />
  </g>
  <g
     transform="translate(0.59474,-4490.622)"
     id="g20558">
    <path
       inkscape:connector-curvature="0"
       style="fill:#ffffff;fill-opacity:1;fill-rule:nonzero;stroke:none"
       d="m 92.231173,4635.4935 c 0,8.654 -11.137013,15.6694 -24.875215,15.6694 -13.738201,0 -24.875214,-7.0154 -24.875214,-15.6694 0,-8.654 11.137013,-15.6694 24.875214,-15.6694 13.738202,0 24.875215,7.0154 24.875215,15.6694 z"
       id="path20560" />
    <path
       inkscape:connector-curvature="0"
       style="fill:#ffffff;fill-opacity:1;fill-rule:nonzero;stroke:none"
       d="m 96.148525,4655.2762 c 0,8.3294 -11.487785,15.0818 -25.658685,15.0818 -14.1709,0 -25.658685,-6.7524 -25.658685,-15.0818 0,-8.3295 11.487785,-15.0819 25.658685,-15.0819 14.1709,0 25.658685,6.7524 25.658685,15.0819 z"
       id="path20562" />
    <path
       inkscape:connector-curvature="0"
       style="fill:#ffffff;fill-opacity:1;fill-rule:nonzero;stroke:none"
       d="m 121.21961,4646.2662 c 0,9.844 -12.71549,17.824 -28.400837,17.824 -15.685348,0 -28.400834,-7.98 -28.400834,-17.824 0,-9.8439 12.715486,-17.8239 28.400834,-17.8239 15.685347,0 28.400837,7.98 28.400837,17.8239 z"
       id="path20564" />
    <path
       inkscape:connector-curvature="0"
       style="fill:#ffffff;fill-opacity:1;fill-rule:nonzero;stroke:none"
       d="m 120.0444,4630.2051 c 0,10.2766 -10.78624,18.6074 -24.09174,18.6074 -13.305502,0 -24.091742,-8.3308 -24.091742,-18.6074 0,-10.2766 10.78624,-18.6075 24.091742,-18.6075 13.3055,0 24.09174,8.3309 24.09174,18.6075 z"
       id="path20566" />
    <path
       inkscape:connector-curvature="0"
       style="fill:#ffffff;fill-opacity:1;fill-rule:nonzero;stroke:none"
       d="m 97.715473,4626.8753 c 0,9.3031 -11.137013,16.8447 -24.875216,16.8447 -13.738201,0 -24.875214,-7.5416 -24.875214,-16.8447 0,-9.303 11.137013,-16.8446 24.875214,-16.8446 13.738203,0 24.875216,7.5416 24.875216,16.8446 z"
       id="path20568" />
    <path
       inkscape:connector-curvature="0"
       style="fill:#ffffff;fill-opacity:1;fill-rule:nonzero;stroke:none"
       d="m 107.9006,4664.0902 c 0,5.1924 -7.45391,9.4017 -16.648768,9.4017 -9.194859,0 -16.648765,-4.2093 -16.648765,-9.4017 0,-5.1924 7.453906,-9.4016 16.648765,-9.4016 9.194858,0 16.648768,4.2092 16.648768,9.4016 z"
       id="path20570" />
    <path
       inkscape:connector-curvature="0"
       style="fill:#ffffff;fill-opacity:1;fill-rule:nonzero;stroke:none"
       d="m 116.12705,4657.2348 c 0,7.0314 -7.6293,12.7315 -17.040505,12.7315 -9.411209,0 -17.040501,-5.7001 -17.040501,-12.7315 0,-7.0313 7.629292,-12.7314 17.040501,-12.7314 9.411205,0 17.040505,5.7001 17.040505,12.7314 z"
       id="path20572" />
  </g>
  <g
     id="g20574"
     transform="translate(-172.26241,-4429.1934)">
    <path
       inkscape:connector-curvature="0"
       style="fill:#ffffff;fill-opacity:1;fill-rule:nonzero;stroke:none"
       d="m 248.02457,4653.0379 c 0,5.7457 -5.36665,10.4036 -11.98676,10.4036 -6.6201,0 -11.98675,-4.6579 -11.98675,-10.4036 0,-5.7458 5.36665,-10.4036 11.98675,-10.4036 6.62011,0 11.98676,4.6578 11.98676,10.4036 z"
       id="path20576" />
    <path
       inkscape:connector-curvature="0"
       style="fill:#ffffff;fill-opacity:1;fill-rule:nonzero;stroke:none"
       d="m 234.68082,4653.0379 c 0,6.1204 -5.6198,11.0821 -12.55217,11.0821 -6.93237,0 -12.55217,-4.9617 -12.55217,-11.0821 0,-6.1205 5.6198,-11.0821 12.55217,-11.0821 6.93237,0 12.55217,4.9616 12.55217,11.0821 z"
       id="path20578" />
    <path
       inkscape:connector-curvature="0"
       style="fill:#ffffff;fill-opacity:1;fill-rule:nonzero;stroke:none"
       d="m 261.82065,4650.55 c 0,6.1205 -5.41729,11.0821 -12.09984,11.0821 -6.68256,0 -12.09984,-4.9616 -12.09984,-11.0821 0,-6.1204 5.41728,-11.0821 12.09984,-11.0821 6.68255,0 12.09984,4.9617 12.09984,11.0821 z"
       id="path20580" />
    <path
       inkscape:connector-curvature="0"
       style="fill:#ffffff;fill-opacity:1;fill-rule:nonzero;stroke:none"
       d="m 255.71419,4661.7452 c 0,6.1829 -6.78426,11.1952 -15.15307,11.1952 -8.36881,0 -15.15307,-5.0123 -15.15307,-11.1952 0,-6.1829 6.78426,-11.1952 15.15307,-11.1952 8.36881,0 15.15307,5.0123 15.15307,11.1952 z"
       id="path20582" />
    <path
       inkscape:connector-curvature="0"
       style="fill:#ffffff;fill-opacity:1;fill-rule:nonzero;stroke:none"
       d="m 237.62097,4663.2153 c 0,5.9956 -5.01225,10.8559 -11.19518,10.8559 -6.18292,0 -11.19518,-4.8603 -11.19518,-10.8559 0,-5.9956 5.01226,-10.8559 11.19518,-10.8559 6.18293,0 11.19518,4.8603 11.19518,10.8559 z"
       id="path20584" />
    <path
       inkscape:connector-curvature="0"
       style="fill:#ffffff;fill-opacity:1;fill-rule:nonzero;stroke:none"
       d="m 260.68982,4663.1022 c 0,4.0595 -3.59465,7.3504 -8.02887,7.3504 -4.43422,0 -8.02886,-3.2909 -8.02886,-7.3504 0,-4.0595 3.59464,-7.3504 8.02886,-7.3504 4.43422,0 8.02887,3.2909 8.02887,7.3504 z"
       id="path20586" />
  </g>
  <g
     transform="translate(0.59474,-4490.622)"
     id="g20616">
    <path
       inkscape:connector-curvature="0"
       style="fill:#ffffff;fill-opacity:1;fill-rule:nonzero;stroke:none"
       d="m 801.55837,4572.3627 c 0,12.3666 -15.09152,22.3917 -33.70786,22.3917 -18.61634,0 -33.70786,-10.0251 -33.70786,-22.3917 0,-12.3665 15.09152,-22.3916 33.70786,-22.3916 18.61634,0 33.70786,10.0251 33.70786,22.3916 z"
       id="path20618" />
    <path
       inkscape:connector-curvature="0"
       style="fill:#ffffff;fill-opacity:1;fill-rule:nonzero;stroke:none"
       d="m 797.2245,4590.9021 c 0,12.2336 -11.42644,22.1509 -25.52167,22.1509 -14.09522,0 -25.52166,-9.9173 -25.52166,-22.1509 0,-12.2336 11.42644,-22.1509 25.52166,-22.1509 14.09523,0 25.52167,9.9173 25.52167,22.1509 z"
       id="path20620" />
    <path
       inkscape:connector-curvature="0"
       style="fill:#ffffff;fill-opacity:1;fill-rule:nonzero;stroke:none"
       d="m 768.81359,4590.9021 c 0,13.0314 -11.96542,23.5955 -26.72552,23.5955 -14.76009,0 -26.72552,-10.5641 -26.72552,-23.5955 0,-13.0315 11.96543,-23.5955 26.72552,-23.5955 14.7601,0 26.72552,10.564 26.72552,23.5955 z"
       id="path20622" />
    <path
       inkscape:connector-curvature="0"
       style="fill:#ffffff;fill-opacity:1;fill-rule:nonzero;stroke:none"
       d="m 826.59849,4585.6051 c 0,13.0315 -11.53423,23.5955 -25.76243,23.5955 -14.2282,0 -25.76244,-10.564 -25.76244,-23.5955 0,-13.0314 11.53424,-23.5955 25.76244,-23.5955 14.2282,0 25.76243,10.5641 25.76243,23.5955 z"
       id="path20624" />
    <path
       inkscape:connector-curvature="0"
       style="fill:#ffffff;fill-opacity:1;fill-rule:nonzero;stroke:none"
       d="m 813.59689,4609.4414 c 0,13.1644 -14.44474,23.8363 -32.26324,23.8363 -17.81849,0 -32.26324,-10.6719 -32.26324,-23.8363 0,-13.1644 14.44475,-23.8363 32.26324,-23.8363 17.8185,0 32.26324,10.6719 32.26324,23.8363 z"
       id="path20626" />
    <path
       inkscape:connector-curvature="0"
       style="fill:#ffffff;fill-opacity:1;fill-rule:nonzero;stroke:none"
       d="m 775.07362,4612.5714 c 0,12.7655 -10.67186,23.114 -23.83627,23.114 -13.16441,0 -23.83628,-10.3485 -23.83628,-23.114 0,-12.7655 10.67187,-23.114 23.83628,-23.114 13.16441,0 23.83627,10.3485 23.83627,23.114 z"
       id="path20628" />
    <path
       inkscape:connector-curvature="0"
       style="fill:#ffffff;fill-opacity:1;fill-rule:nonzero;stroke:none"
       d="m 824.19079,4612.3306 c 0,8.6433 -7.65356,15.6501 -17.0947,15.6501 -9.44115,0 -17.0947,-7.0068 -17.0947,-15.6501 0,-8.6433 7.65355,-15.65 17.0947,-15.65 9.44114,0 17.0947,7.0067 17.0947,15.65 z"
       id="path20630" />
  </g>
  <g
     id="g21938"
     transform="translate(270.769,25.6159)">
    <ellipse
       sodipodi:ry="8.5714283"
       sodipodi:rx="15.714286"
       sodipodi:cy="492.36218"
       sodipodi:cx="400"
       style="color:#000000;fill:#000000;fill-opacity:0.14893619;fill-rule:nonzero;stroke:none;visibility:visible;display:inline;overflow:visible;enable-background:accumulate"
       id="path21940"
       transform="translate(-4.9229925e-6,0)"
       cx="400"
       cy="492.36218"
       rx="15.714286"
       ry="8.5714283"
       d="m 415.71429,492.36218 c 0,4.73387 -7.03553,8.57143 -15.71429,8.57143 -8.67876,0 -15.71429,-3.83756 -15.71429,-8.57143 0,-4.73387 7.03553,-8.57143 15.71429,-8.57143 8.67876,0 15.71429,3.83756 15.71429,8.57143 z" />
    <ellipse
       sodipodi:ry="8.5714283"
       sodipodi:rx="15.714286"
       sodipodi:cy="492.36218"
       sodipodi:cx="400"
       transform="matrix(0.48574052,0,0,0.48574052,224.89669,268.99703)"
       id="path21942"
       style="color:#000000;fill:#000000;fill-opacity:0.14893619;fill-rule:nonzero;stroke:none;visibility:visible;display:inline;overflow:visible;enable-background:accumulate"
       cx="400"
       cy="492.36218"
       rx="15.714286"
       ry="8.5714283"
       d="m 415.71429,492.36218 c 0,4.73387 -7.03553,8.57143 -15.71429,8.57143 -8.67876,0 -15.71429,-3.83756 -15.71429,-8.57143 0,-4.73387 7.03553,-8.57143 15.71429,-8.57143 8.67876,0 15.71429,3.83756 15.71429,8.57143 z" />
    <ellipse
       sodipodi:ry="8.5714283"
       sodipodi:rx="15.714286"
       sodipodi:cy="492.36218"
       sodipodi:cx="400"
       style="color:#000000;fill:#000000;fill-opacity:0.14893619;fill-rule:nonzero;stroke:none;visibility:visible;display:inline;overflow:visible;enable-background:accumulate"
       id="path21944"
       transform="matrix(0.30896382,0,0,0.30896382,239.29136,337.34738)"
       cx="400"
       cy="492.36218"
       rx="15.714286"
       ry="8.5714283"
       d="m 415.71429,492.36218 c 0,4.73387 -7.03553,8.57143 -15.71429,8.57143 -8.67876,0 -15.71429,-3.83756 -15.71429,-8.57143 0,-4.73387 7.03553,-8.57143 15.71429,-8.57143 8.67876,0 15.71429,3.83756 15.71429,8.57143 z" />
  </g>
  <g
     transform="translate(24.34042,25.6159)"
     id="g21946">
    <ellipse
       sodipodi:ry="8.5714283"
       sodipodi:rx="15.714286"
       sodipodi:cy="492.36218"
       sodipodi:cx="400"
       transform="translate(-4.9229925e-6,0)"
       id="path21948"
       style="color:#000000;fill:#000000;fill-opacity:0.14893619;fill-rule:nonzero;stroke:none;visibility:visible;display:inline;overflow:visible;enable-background:accumulate"
       cx="400"
       cy="492.36218"
       rx="15.714286"
       ry="8.5714283"
       d="m 415.71429,492.36218 c 0,4.73387 -7.03553,8.57143 -15.71429,8.57143 -8.67876,0 -15.71429,-3.83756 -15.71429,-8.57143 0,-4.73387 7.03553,-8.57143 15.71429,-8.57143 8.67876,0 15.71429,3.83756 15.71429,8.57143 z" />
    <ellipse
       sodipodi:ry="8.5714283"
       sodipodi:rx="15.714286"
       sodipodi:cy="492.36218"
       sodipodi:cx="400"
       style="color:#000000;fill:#000000;fill-opacity:0.14893619;fill-rule:nonzero;stroke:none;visibility:visible;display:inline;overflow:visible;enable-background:accumulate"
       id="path21950"
       transform="matrix(0.48574052,0,0,0.48574052,224.89669,268.99703)"
       cx="400"
       cy="492.36218"
       rx="15.714286"
       ry="8.5714283"
       d="m 415.71429,492.36218 c 0,4.73387 -7.03553,8.57143 -15.71429,8.57143 -8.67876,0 -15.71429,-3.83756 -15.71429,-8.57143 0,-4.73387 7.03553,-8.57143 15.71429,-8.57143 8.67876,0 15.71429,3.83756 15.71429,8.57143 z" />
    <ellipse
       sodipodi:ry="8.5714283"
       sodipodi:rx="15.714286"
       sodipodi:cy="492.36218"
       sodipodi:cx="400"
       transform="matrix(0.30896382,0,0,0.30896382,239.29136,337.34738)"
       id="path21952"
       style="color:#000000;fill:#000000;fill-opacity:0.14893619;fill-rule:nonzero;stroke:none;visibility:visible;display:inline;overflow:visible;enable-background:accumulate"
       cx="400"
       cy="492.36218"
       rx="15.714286"
       ry="8.5714283"
       d="m 415.71429,492.36218 c 0,4.73387 -7.03553,8.57143 -15.71429,8.57143 -8.67876,0 -15.71429,-3.83756 -15.71429,-8.57143 0,-4.73387 7.03553,-8.57143 15.71429,-8.57143 8.67876,0 15.71429,3.83756 15.71429,8.57143 z" />
    <ellipse
       sodipodi:ry="8.5714283"
       sodipodi:rx="15.714286"
       sodipodi:cy="492.36218"
       sodipodi:cx="400"
       style="color:#000000;fill:#000000;fill-opacity:0.14893619;fill-rule:nonzero;stroke:none;visibility:visible;display:inline;overflow:visible;enable-background:accumulate"
       id="path21954"
       transform="translate(262.85714,130)"
       cx="400"
       cy="492.36218"
       rx="15.714286"
       ry="8.5714283"
       d="m 415.71429,492.36218 c 0,4.73387 -7.03553,8.57143 -15.71429,8.57143 -8.67876,0 -15.71429,-3.83756 -15.71429,-8.57143 0,-4.73387 7.03553,-8.57143 15.71429,-8.57143 8.67876,0 15.71429,3.83756 15.71429,8.57143 z" />
  </g>
  <g
     transform="matrix(-1,0,0,1,1324.9024,-59.3841)"
     id="g21956">
    <ellipse
       sodipodi:ry="8.5714283"
       sodipodi:rx="15.714286"
       sodipodi:cy="492.36218"
       sodipodi:cx="400"
       transform="translate(-4.9229925e-6,0)"
       id="path21958"
       style="color:#000000;fill:#000000;fill-opacity:0.14893619;fill-rule:nonzero;stroke:none;visibility:visible;display:inline;overflow:visible;enable-background:accumulate"
       cx="400"
       cy="492.36218"
       rx="15.714286"
       ry="8.5714283"
       d="m 415.71429,492.36218 c 0,4.73387 -7.03553,8.57143 -15.71429,8.57143 -8.67876,0 -15.71429,-3.83756 -15.71429,-8.57143 0,-4.73387 7.03553,-8.57143 15.71429,-8.57143 8.67876,0 15.71429,3.83756 15.71429,8.57143 z" />
    <ellipse
       sodipodi:ry="8.5714283"
       sodipodi:rx="15.714286"
       sodipodi:cy="492.36218"
       sodipodi:cx="400"
       style="color:#000000;fill:#000000;fill-opacity:0.14893619;fill-rule:nonzero;stroke:none;visibility:visible;display:inline;overflow:visible;enable-background:accumulate"
       id="path21960"
       transform="matrix(0.48574052,0,0,0.48574052,224.89669,268.99703)"
       cx="400"
       cy="492.36218"
       rx="15.714286"
       ry="8.5714283"
       d="m 415.71429,492.36218 c 0,4.73387 -7.03553,8.57143 -15.71429,8.57143 -8.67876,0 -15.71429,-3.83756 -15.71429,-8.57143 0,-4.73387 7.03553,-8.57143 15.71429,-8.57143 8.67876,0 15.71429,3.83756 15.71429,8.57143 z" />
    <ellipse
       sodipodi:ry="8.5714283"
       sodipodi:rx="15.714286"
       sodipodi:cy="492.36218"
       sodipodi:cx="400"
       transform="matrix(0.30896382,0,0,0.30896382,239.29136,337.34738)"
       id="path21962"
       style="color:#000000;fill:#000000;fill-opacity:0.14893619;fill-rule:nonzero;stroke:none;visibility:visible;display:inline;overflow:visible;enable-background:accumulate"
       cx="400"
       cy="492.36218"
       rx="15.714286"
       ry="8.5714283"
       d="m 415.71429,492.36218 c 0,4.73387 -7.03553,8.57143 -15.71429,8.57143 -8.67876,0 -15.71429,-3.83756 -15.71429,-8.57143 0,-4.73387 7.03553,-8.57143 15.71429,-8.57143 8.67876,0 15.71429,3.83756 15.71429,8.57143 z" />
  </g>
  <g
     id="g21964"
     transform="matrix(1,0,0,-1,760.05472,1067.4417)">
    <ellipse
       sodipodi:ry="8.5714283"
       sodipodi:rx="15.714286"
       sodipodi:cy="492.36218"
       sodipodi:cx="400"
       style="color:#000000;fill:#000000;fill-opacity:0.14893619;fill-rule:nonzero;stroke:none;visibility:visible;display:inline;overflow:visible;enable-background:accumulate"
       id="path21966"
       transform="translate(-4.9229925e-6,0)"
       cx="400"
       cy="492.36218"
       rx="15.714286"
       ry="8.5714283"
       d="m 415.71429,492.36218 c 0,4.73387 -7.03553,8.57143 -15.71429,8.57143 -8.67876,0 -15.71429,-3.83756 -15.71429,-8.57143 0,-4.73387 7.03553,-8.57143 15.71429,-8.57143 8.67876,0 15.71429,3.83756 15.71429,8.57143 z" />
    <ellipse
       sodipodi:ry="8.5714283"
       sodipodi:rx="15.714286"
       sodipodi:cy="492.36218"
       sodipodi:cx="400"
       transform="matrix(0.48574052,0,0,0.48574052,224.89669,268.99703)"
       id="path21968"
       style="color:#000000;fill:#000000;fill-opacity:0.14893619;fill-rule:nonzero;stroke:none;visibility:visible;display:inline;overflow:visible;enable-background:accumulate"
       cx="400"
       cy="492.36218"
       rx="15.714286"
       ry="8.5714283"
       d="m 415.71429,492.36218 c 0,4.73387 -7.03553,8.57143 -15.71429,8.57143 -8.67876,0 -15.71429,-3.83756 -15.71429,-8.57143 0,-4.73387 7.03553,-8.57143 15.71429,-8.57143 8.67876,0 15.71429,3.83756 15.71429,8.57143 z" />
    <ellipse
       sodipodi:ry="8.5714283"
       sodipodi:rx="15.714286"
       sodipodi:cy="492.36218"
       sodipodi:cx="400"
       style="color:#000000;fill:#000000;fill-opacity:0.14893619;fill-rule:nonzero;stroke:none;visibility:visible;display:inline;overflow:visible;enable-background:accumulate"
       id="path21970"
       transform="matrix(0.30896382,0,0,0.30896382,239.29136,337.34738)"
       cx="400"
       cy="492.36218"
       rx="15.714286"
       ry="8.5714283"
       d="m 415.71429,492.36218 c 0,4.73387 -7.03553,8.57143 -15.71429,8.57143 -8.67876,0 -15.71429,-3.83756 -15.71429,-8.57143 0,-4.73387 7.03553,-8.57143 15.71429,-8.57143 8.67876,0 15.71429,3.83756 15.71429,8.57143 z" />
  </g>
  <g
     transform="translate(720.769,212.75865)"
     id="g21972">
    <ellipse
       sodipodi:ry="8.5714283"
       sodipodi:rx="15.714286"
       sodipodi:cy="492.36218"
       sodipodi:cx="400"
       transform="translate(-4.9229925e-6,0)"
       id="path21974"
       style="color:#000000;fill:#000000;fill-opacity:0.14893619;fill-rule:nonzero;stroke:none;visibility:visible;display:inline;overflow:visible;enable-background:accumulate"
       cx="400"
       cy="492.36218"
       rx="15.714286"
       ry="8.5714283"
       d="m 415.71429,492.36218 c 0,4.73387 -7.03553,8.57143 -15.71429,8.57143 -8.67876,0 -15.71429,-3.83756 -15.71429,-8.57143 0,-4.73387 7.03553,-8.57143 15.71429,-8.57143 8.67876,0 15.71429,3.83756 15.71429,8.57143 z" />
    <ellipse
       sodipodi:ry="8.5714283"
       sodipodi:rx="15.714286"
       sodipodi:cy="492.36218"
       sodipodi:cx="400"
       style="color:#000000;fill:#000000;fill-opacity:0.14893619;fill-rule:nonzero;stroke:none;visibility:visible;display:inline;overflow:visible;enable-background:accumulate"
       id="path21976"
       transform="matrix(0.48574052,0,0,0.48574052,224.89669,268.99703)"
       cx="400"
       cy="492.36218"
       rx="15.714286"
       ry="8.5714283"
       d="m 415.71429,492.36218 c 0,4.73387 -7.03553,8.57143 -15.71429,8.57143 -8.67876,0 -15.71429,-3.83756 -15.71429,-8.57143 0,-4.73387 7.03553,-8.57143 15.71429,-8.57143 8.67876,0 15.71429,3.83756 15.71429,8.57143 z" />
    <ellipse
       sodipodi:ry="8.5714283"
       sodipodi:rx="15.714286"
       sodipodi:cy="492.36218"
       sodipodi:cx="400"
       transform="matrix(0.30896382,0,0,0.30896382,239.29136,337.34738)"
       id="path21978"
       style="color:#000000;fill:#000000;fill-opacity:0.14893619;fill-rule:nonzero;stroke:none;visibility:visible;display:inline;overflow:visible;enable-background:accumulate"
       cx="400"
       cy="492.36218"
       rx="15.714286"
       ry="8.5714283"
       d="m 415.71429,492.36218 c 0,4.73387 -7.03553,8.57143 -15.71429,8.57143 -8.67876,0 -15.71429,-3.83756 -15.71429,-8.57143 0,-4.73387 7.03553,-8.57143 15.71429,-8.57143 8.67876,0 15.71429,3.83756 15.71429,8.57143 z" />
  </g>
  <g
     transform="translate(-244.94531,-57.2413)"
     id="g21980">
    <ellipse
       sodipodi:ry="8.5714283"
       sodipodi:rx="15.714286"
       sodipodi:cy="492.36218"
       sodipodi:cx="400"
       transform="translate(-4.9229925e-6,0)"
       id="path21982"
       style="color:#000000;fill:#000000;fill-opacity:0.14893619;fill-rule:nonzero;stroke:none;visibility:visible;display:inline;overflow:visible;enable-background:accumulate"
       cx="400"
       cy="492.36218"
       rx="15.714286"
       ry="8.5714283"
       d="m 415.71429,492.36218 c 0,4.73387 -7.03553,8.57143 -15.71429,8.57143 -8.67876,0 -15.71429,-3.83756 -15.71429,-8.57143 0,-4.73387 7.03553,-8.57143 15.71429,-8.57143 8.67876,0 15.71429,3.83756 15.71429,8.57143 z" />
    <ellipse
       sodipodi:ry="8.5714283"
       sodipodi:rx="15.714286"
       sodipodi:cy="492.36218"
       sodipodi:cx="400"
       style="color:#000000;fill:#000000;fill-opacity:0.14893619;fill-rule:nonzero;stroke:none;visibility:visible;display:inline;overflow:visible;enable-background:accumulate"
       id="path21984"
       transform="matrix(0.48574052,0,0,0.48574052,224.89669,268.99703)"
       cx="400"
       cy="492.36218"
       rx="15.714286"
       ry="8.5714283"
       d="m 415.71429,492.36218 c 0,4.73387 -7.03553,8.57143 -15.71429,8.57143 -8.67876,0 -15.71429,-3.83756 -15.71429,-8.57143 0,-4.73387 7.03553,-8.57143 15.71429,-8.57143 8.67876,0 15.71429,3.83756 15.71429,8.57143 z" />
    <ellipse
       sodipodi:ry="8.5714283"
       sodipodi:rx="15.714286"
       sodipodi:cy="492.36218"
       sodipodi:cx="400"
       transform="matrix(0.30896382,0,0,0.30896382,239.29136,337.34738)"
       id="path21986"
       style="color:#000000;fill:#000000;fill-opacity:0.14893619;fill-rule:nonzero;stroke:none;visibility:visible;display:inline;overflow:visible;enable-background:accumulate"
       cx="400"
       cy="492.36218"
       rx="15.714286"
       ry="8.5714283"
       d="m 415.71429,492.36218 c 0,4.73387 -7.03553,8.57143 -15.71429,8.57143 -8.67876,0 -15.71429,-3.83756 -15.71429,-8.57143 0,-4.73387 7.03553,-8.57143 15.71429,-8.57143 8.67876,0 15.71429,3.83756 15.71429,8.57143 z" />
  </g>
  <g
     id="g21988"
     transform="translate(-84.94531,-52.2413)">
    <ellipse
       sodipodi:ry="8.5714283"
       sodipodi:rx="15.714286"
       sodipodi:cy="492.36218"
       sodipodi:cx="400"
       style="color:#000000;fill:#000000;fill-opacity:0.14893619;fill-rule:nonzero;stroke:none;visibility:visible;display:inline;overflow:visible;enable-background:accumulate"
       id="path21990"
       transform="translate(-4.9229925e-6,0)"
       cx="400"
       cy="492.36218"
       rx="15.714286"
       ry="8.5714283"
       d="m 415.71429,492.36218 c 0,4.73387 -7.03553,8.57143 -15.71429,8.57143 -8.67876,0 -15.71429,-3.83756 -15.71429,-8.57143 0,-4.73387 7.03553,-8.57143 15.71429,-8.57143 8.67876,0 15.71429,3.83756 15.71429,8.57143 z" />
    <ellipse
       sodipodi:ry="8.5714283"
       sodipodi:rx="15.714286"
       sodipodi:cy="492.36218"
       sodipodi:cx="400"
       transform="matrix(0.48574052,0,0,0.48574052,224.89669,268.99703)"
       id="path21992"
       style="color:#000000;fill:#000000;fill-opacity:0.14893619;fill-rule:nonzero;stroke:none;visibility:visible;display:inline;overflow:visible;enable-background:accumulate"
       cx="400"
       cy="492.36218"
       rx="15.714286"
       ry="8.5714283"
       d="m 415.71429,492.36218 c 0,4.73387 -7.03553,8.57143 -15.71429,8.57143 -8.67876,0 -15.71429,-3.83756 -15.71429,-8.57143 0,-4.73387 7.03553,-8.57143 15.71429,-8.57143 8.67876,0 15.71429,3.83756 15.71429,8.57143 z" />
    <ellipse
       sodipodi:ry="8.5714283"
       sodipodi:rx="15.714286"
       sodipodi:cy="492.36218"
       sodipodi:cx="400"
       style="color:#000000;fill:#000000;fill-opacity:0.14893619;fill-rule:nonzero;stroke:none;visibility:visible;display:inline;overflow:visible;enable-background:accumulate"
       id="path21994"
       transform="matrix(0.30896382,0,0,0.30896382,239.29136,337.34738)"
       cx="400"
       cy="492.36218"
       rx="15.714286"
       ry="8.5714283"
       d="m 415.71429,492.36218 c 0,4.73387 -7.03553,8.57143 -15.71429,8.57143 -8.67876,0 -15.71429,-3.83756 -15.71429,-8.57143 0,-4.73387 7.03553,-8.57143 15.71429,-8.57143 8.67876,0 15.71429,3.83756 15.71429,8.57143 z" />
  </g>
  <g
     transform="matrix(1,0,0,-1,-146.37391,1043.8704)"
     id="g21996">
    <ellipse
       sodipodi:ry="8.5714283"
       sodipodi:rx="15.714286"
       sodipodi:cy="492.36218"
       sodipodi:cx="400"
       transform="translate(-4.9229925e-6,0)"
       id="path21998"
       style="color:#000000;fill:#000000;fill-opacity:0.14893619;fill-rule:nonzero;stroke:none;visibility:visible;display:inline;overflow:visible;enable-background:accumulate"
       cx="400"
       cy="492.36218"
       rx="15.714286"
       ry="8.5714283"
       d="m 415.71429,492.36218 c 0,4.73387 -7.03553,8.57143 -15.71429,8.57143 -8.67876,0 -15.71429,-3.83756 -15.71429,-8.57143 0,-4.73387 7.03553,-8.57143 15.71429,-8.57143 8.67876,0 15.71429,3.83756 15.71429,8.57143 z" />
    <ellipse
       sodipodi:ry="8.5714283"
       sodipodi:rx="15.714286"
       sodipodi:cy="492.36218"
       sodipodi:cx="400"
       style="color:#000000;fill:#000000;fill-opacity:0.14893619;fill-rule:nonzero;stroke:none;visibility:visible;display:inline;overflow:visible;enable-background:accumulate"
       id="path22000"
       transform="matrix(0.48574052,0,0,0.48574052,224.89669,268.99703)"
       cx="400"
       cy="492.36218"
       rx="15.714286"
       ry="8.5714283"
       d="m 415.71429,492.36218 c 0,4.73387 -7.03553,8.57143 -15.71429,8.57143 -8.67876,0 -15.71429,-3.83756 -15.71429,-8.57143 0,-4.73387 7.03553,-8.57143 15.71429,-8.57143 8.67876,0 15.71429,3.83756 15.71429,8.57143 z" />
    <ellipse
       sodipodi:ry="8.5714283"
       sodipodi:rx="15.714286"
       sodipodi:cy="492.36218"
       sodipodi:cx="400"
       transform="matrix(0.30896382,0,0,0.30896382,239.29136,337.34738)"
       id="path22002"
       style="color:#000000;fill:#000000;fill-opacity:0.14893619;fill-rule:nonzero;stroke:none;visibility:visible;display:inline;overflow:visible;enable-background:accumulate"
       cx="400"
       cy="492.36218"
       rx="15.714286"
       ry="8.5714283"
       d="m 415.71429,492.36218 c 0,4.73387 -7.03553,8.57143 -15.71429,8.57143 -8.67876,0 -15.71429,-3.83756 -15.71429,-8.57143 0,-4.73387 7.03553,-8.57143 15.71429,-8.57143 8.67876,0 15.71429,3.83756 15.71429,8.57143 z" />
    <ellipse
       sodipodi:ry="7.7922077"
       sodipodi:rx="14.285714"
       sodipodi:cy="491.58295"
       sodipodi:cx="399.42856"
       ry="7.7922077"
       rx="14.285714"
       cy="491.58295"
       cx="399.42856"
       style="color:#000000;fill:#000000;fill-opacity:0.14893619;fill-rule:nonzero;stroke:none;visibility:visible;display:inline;overflow:visible;enable-background:accumulate"
       id="ellipse25878"
       d="m 413.71427,491.58295 c 0,4.30351 -6.39593,7.7922 -14.28571,7.7922 -7.88978,0 -14.28572,-3.48869 -14.28572,-7.7922 0,-4.30352 6.39594,-7.79221 14.28572,-7.79221 7.88978,0 14.28571,3.48869 14.28571,7.79221 z" />
    <ellipse
       sodipodi:ry="2.3383281"
       sodipodi:rx="4.2869349"
       sodipodi:cy="489.22269"
       sodipodi:cx="362.83405"
       ry="2.3383281"
       rx="4.2869349"
       cy="489.22269"
       cx="362.83405"
       style="color:#000000;fill:#000000;fill-opacity:0.14893619;fill-rule:nonzero;stroke:none;visibility:visible;display:inline;overflow:visible;enable-background:accumulate"
       id="ellipse25880"
       d="m 367.12098,489.22269 c 0,1.29142 -1.91933,2.33832 -4.28693,2.33832 -2.36761,0 -4.28694,-1.0469 -4.28694,-2.33832 0,-1.29143 1.91933,-2.33833 4.28694,-2.33833 2.3676,0 4.28693,1.0469 4.28693,2.33833 z" />
  </g>
  <g
     id="g22004"
     transform="translate(-319.94531,209.18725)">
    <ellipse
       sodipodi:ry="8.5714283"
       sodipodi:rx="15.714286"
       sodipodi:cy="492.36218"
       sodipodi:cx="400"
       style="color:#000000;fill:#000000;fill-opacity:0.14893619;fill-rule:nonzero;stroke:none;visibility:visible;display:inline;overflow:visible;enable-background:accumulate"
       id="path22006"
       transform="translate(-4.9229925e-6,0)"
       cx="400"
       cy="492.36218"
       rx="15.714286"
       ry="8.5714283"
       d="m 415.71429,492.36218 c 0,4.73387 -7.03553,8.57143 -15.71429,8.57143 -8.67876,0 -15.71429,-3.83756 -15.71429,-8.57143 0,-4.73387 7.03553,-8.57143 15.71429,-8.57143 8.67876,0 15.71429,3.83756 15.71429,8.57143 z" />
    <ellipse
       sodipodi:ry="8.5714283"
       sodipodi:rx="15.714286"
       sodipodi:cy="492.36218"
       sodipodi:cx="400"
       transform="matrix(0.48574052,0,0,0.48574052,224.89669,268.99703)"
       id="path22008"
       style="color:#000000;fill:#000000;fill-opacity:0.14893619;fill-rule:nonzero;stroke:none;visibility:visible;display:inline;overflow:visible;enable-background:accumulate"
       cx="400"
       cy="492.36218"
       rx="15.714286"
       ry="8.5714283"
       d="m 415.71429,492.36218 c 0,4.73387 -7.03553,8.57143 -15.71429,8.57143 -8.67876,0 -15.71429,-3.83756 -15.71429,-8.57143 0,-4.73387 7.03553,-8.57143 15.71429,-8.57143 8.67876,0 15.71429,3.83756 15.71429,8.57143 z" />
    <ellipse
       sodipodi:ry="8.5714283"
       sodipodi:rx="15.714286"
       sodipodi:cy="492.36218"
       sodipodi:cx="400"
       style="color:#000000;fill:#000000;fill-opacity:0.14893619;fill-rule:nonzero;stroke:none;visibility:visible;display:inline;overflow:visible;enable-background:accumulate"
       id="path22010"
       transform="matrix(0.30896382,0,0,0.30896382,239.29136,337.34738)"
       cx="400"
       cy="492.36218"
       rx="15.714286"
       ry="8.5714283"
       d="m 415.71429,492.36218 c 0,4.73387 -7.03553,8.57143 -15.71429,8.57143 -8.67876,0 -15.71429,-3.83756 -15.71429,-8.57143 0,-4.73387 7.03553,-8.57143 15.71429,-8.57143 8.67876,0 15.71429,3.83756 15.71429,8.57143 z" />
  </g>
  <g
     transform="translate(194.34043,223.47305)"
     id="g22012">
    <ellipse
       sodipodi:ry="8.5714283"
       sodipodi:rx="15.714286"
       sodipodi:cy="492.36218"
       sodipodi:cx="400"
       transform="translate(-4.9229925e-6,0)"
       id="path22014"
       style="color:#000000;fill:#000000;fill-opacity:0.14893619;fill-rule:nonzero;stroke:none;visibility:visible;display:inline;overflow:visible;enable-background:accumulate"
       cx="400"
       cy="492.36218"
       rx="15.714286"
       ry="8.5714283"
       d="m 415.71429,492.36218 c 0,4.73387 -7.03553,8.57143 -15.71429,8.57143 -8.67876,0 -15.71429,-3.83756 -15.71429,-8.57143 0,-4.73387 7.03553,-8.57143 15.71429,-8.57143 8.67876,0 15.71429,3.83756 15.71429,8.57143 z" />
    <ellipse
       sodipodi:ry="8.5714283"
       sodipodi:rx="15.714286"
       sodipodi:cy="492.36218"
       sodipodi:cx="400"
       style="color:#000000;fill:#000000;fill-opacity:0.14893619;fill-rule:nonzero;stroke:none;visibility:visible;display:inline;overflow:visible;enable-background:accumulate"
       id="path22016"
       transform="matrix(0.48574052,0,0,0.48574052,224.89669,268.99703)"
       cx="400"
       cy="492.36218"
       rx="15.714286"
       ry="8.5714283"
       d="m 415.71429,492.36218 c 0,4.73387 -7.03553,8.57143 -15.71429,8.57143 -8.67876,0 -15.71429,-3.83756 -15.71429,-8.57143 0,-4.73387 7.03553,-8.57143 15.71429,-8.57143 8.67876,0 15.71429,3.83756 15.71429,8.57143 z" />
    <ellipse
       sodipodi:ry="8.5714283"
       sodipodi:rx="15.714286"
       sodipodi:cy="492.36218"
       sodipodi:cx="400"
       transform="matrix(0.30896382,0,0,0.30896382,239.29136,337.34738)"
       id="path22018"
       style="color:#000000;fill:#000000;fill-opacity:0.14893619;fill-rule:nonzero;stroke:none;visibility:visible;display:inline;overflow:visible;enable-background:accumulate"
       cx="400"
       cy="492.36218"
       rx="15.714286"
       ry="8.5714283"
       d="m 415.71429,492.36218 c 0,4.73387 -7.03553,8.57143 -15.71429,8.57143 -8.67876,0 -15.71429,-3.83756 -15.71429,-8.57143 0,-4.73387 7.03553,-8.57143 15.71429,-8.57143 8.67876,0 15.71429,3.83756 15.71429,8.57143 z" />
  </g>
  <g
     id="g22020"
     transform="matrix(1,0,0,-1,428.62615,1225.299)">
    <ellipse
       sodipodi:ry="8.5714283"
       sodipodi:rx="15.714286"
       sodipodi:cy="492.36218"
       sodipodi:cx="400"
       style="color:#000000;fill:#000000;fill-opacity:0.14893619;fill-rule:nonzero;stroke:none;visibility:visible;display:inline;overflow:visible;enable-background:accumulate"
       id="path22022"
       transform="translate(-4.9229925e-6,0)"
       cx="400"
       cy="492.36218"
       rx="15.714286"
       ry="8.5714283"
       d="m 415.71429,492.36218 c 0,4.73387 -7.03553,8.57143 -15.71429,8.57143 -8.67876,0 -15.71429,-3.83756 -15.71429,-8.57143 0,-4.73387 7.03553,-8.57143 15.71429,-8.57143 8.67876,0 15.71429,3.83756 15.71429,8.57143 z" />
    <ellipse
       sodipodi:ry="8.5714283"
       sodipodi:rx="15.714286"
       sodipodi:cy="492.36218"
       sodipodi:cx="400"
       transform="matrix(0.48574052,0,0,0.48574052,224.89669,268.99703)"
       id="path22024"
       style="color:#000000;fill:#000000;fill-opacity:0.14893619;fill-rule:nonzero;stroke:none;visibility:visible;display:inline;overflow:visible;enable-background:accumulate"
       cx="400"
       cy="492.36218"
       rx="15.714286"
       ry="8.5714283"
       d="m 415.71429,492.36218 c 0,4.73387 -7.03553,8.57143 -15.71429,8.57143 -8.67876,0 -15.71429,-3.83756 -15.71429,-8.57143 0,-4.73387 7.03553,-8.57143 15.71429,-8.57143 8.67876,0 15.71429,3.83756 15.71429,8.57143 z" />
    <ellipse
       sodipodi:ry="8.5714283"
       sodipodi:rx="15.714286"
       sodipodi:cy="492.36218"
       sodipodi:cx="400"
       style="color:#000000;fill:#000000;fill-opacity:0.14893619;fill-rule:nonzero;stroke:none;visibility:visible;display:inline;overflow:visible;enable-background:accumulate"
       id="path22026"
       transform="matrix(0.30896382,0,0,0.30896382,239.29136,337.34738)"
       cx="400"
       cy="492.36218"
       rx="15.714286"
       ry="8.5714283"
       d="m 415.71429,492.36218 c 0,4.73387 -7.03553,8.57143 -15.71429,8.57143 -8.67876,0 -15.71429,-3.83756 -15.71429,-8.57143 0,-4.73387 7.03553,-8.57143 15.71429,-8.57143 8.67876,0 15.71429,3.83756 15.71429,8.57143 z" />
  </g>
  <path
     inkscape:connector-curvature="0"
     style="fill:none;stroke:#000000;stroke-width:0.48517844px;stroke-linecap:butt;stroke-linejoin:miter;stroke-opacity:0.21938776"
     d="m 743.19308,114.0437 c 5.1228,10.32555 13.43389,13.87935 25.53828,9.37625"
     id="path13367" />
  <path
     inkscape:connector-curvature="0"
     id="path13369"
     d="m 798.13649,80.9643 c 10.29033,5.1933 13.78707,13.5286 9.20138,25.6019"
     style="fill:none;stroke:#000000;stroke-width:0.48517844px;stroke-linecap:butt;stroke-linejoin:miter;stroke-opacity:0.21938776" />
  <path
     inkscape:connector-curvature="0"
     style="fill:none;stroke:#000000;stroke-width:0.48517844px;stroke-linecap:butt;stroke-linejoin:miter;stroke-opacity:0.21938776"
     d="m 737.22903,100.192 c 0.98253,-11.4846 7.4132,-17.8367 20.32569,-18.0827"
     id="path13371" />
  <path
     inkscape:connector-curvature="0"
     id="path13373"
     d="m 764.69308,117.54365 c 5.1228,10.3256 13.43389,13.8794 25.53828,9.3763"
     style="fill:none;stroke:#000000;stroke-width:0.48517844px;stroke-linecap:butt;stroke-linejoin:miter;stroke-opacity:0.21938776" />
  <path
     inkscape:connector-curvature="0"
     style="fill:none;stroke:#000000;stroke-width:0.48517844px;stroke-linecap:butt;stroke-linejoin:miter;stroke-opacity:0.21938776"
     d="m 801.90561,104.3558 c 10.17528,5.4152 13.49043,13.82425 8.644,25.79525"
     id="path13375" />
</svg>
