<?xml version="1.0" encoding="UTF-8" standalone="no"?>
<svg
   xmlns:dc="http://purl.org/dc/elements/1.1/"
   xmlns:cc="http://creativecommons.org/ns#"
   xmlns:rdf="http://www.w3.org/1999/02/22-rdf-syntax-ns#"
   xmlns:svg="http://www.w3.org/2000/svg"
   xmlns="http://www.w3.org/2000/svg"
   xmlns:xlink="http://www.w3.org/1999/xlink"
   xmlns:sodipodi="http://sodipodi.sourceforge.net/DTD/sodipodi-0.dtd"
   xmlns:inkscape="http://www.inkscape.org/namespaces/inkscape"
   version="1.1"
   id="svg13426"
   viewBox="0 0 1440 900.00005"
   height="900"
   width="1440"
   inkscape:version="0.91 r13725"
   sodipodi:docname="stage.svg">
  <sodipodi:namedview
     pagecolor="#ffffff"
     bordercolor="#666666"
     borderopacity="1"
     objecttolerance="10"
     gridtolerance="10"
     guidetolerance="10"
     inkscape:pageopacity="0"
     inkscape:pageshadow="2"
     inkscape:window-width="1366"
     inkscape:window-height="715"
     id="namedview1078"
     showgrid="false"
     inkscape:zoom="2.7938075"
     inkscape:cx="621.16074"
     inkscape:cy="273.16421"
     inkscape:window-x="-8"
     inkscape:window-y="-8"
     inkscape:window-maximized="1"
     inkscape:current-layer="svg13426" />
  <defs
     id="defs13428">
    <linearGradient
       id="linearGradient5527">
      <stop
         id="stop5529"
         offset="0"
         style="stop-color:#006acb;stop-opacity:1;" />
      <stop
         id="stop5531"
         offset="1"
         style="stop-color:#ffffff;stop-opacity:1;" />
    </linearGradient>
    <linearGradient
       id="linearGradient5613">
      <stop
         id="stop5615"
         offset="0"
         style="stop-color:#2c873b;stop-opacity:1;" />
      <stop
         id="stop5617"
         offset="1"
         style="stop-color:#2cca1d;stop-opacity:1;" />
    </linearGradient>
    <linearGradient
       inkscape:collect="always"
       xlink:href="#linearGradient5613"
       id="linearGradient5118"
       gradientUnits="userSpaceOnUse"
       gradientTransform="matrix(1.0936391,0,0,0.7010665,618.09674,499.04465)"
       x1="20"
       y1="9.5050402"
       x2="28.571428"
       y2="580.93359" />
    <linearGradient
       inkscape:collect="always"
       xlink:href="#linearGradient5527"
       id="linearGradient5123"
       gradientUnits="userSpaceOnUse"
       gradientTransform="matrix(1.2142034,0,0,1.1783943,1502.4201,-1367.9795)"
       x1="-610.13214"
       y1="1189.7429"
       x2="-606.09155"
       y2="1710.9817" />
    <filter
       inkscape:collect="always"
       style="color-interpolation-filters:sRGB"
       id="filter7724"
       x="-0.63209888"
       width="2.2641978"
       y="-11.815345"
       height="24.63069">
      <feGaussianBlur
         inkscape:collect="always"
         stdDeviation="380.32696"
         id="feGaussianBlur7726" />
    </filter>
  </defs>
  <metadata
     id="metadata13431">
    <rdf:RDF>
      <cc:Work
         rdf:about="">
        <dc:format>image/svg+xml</dc:format>
        <dc:type
           rdf:resource="http://purl.org/dc/dcmitype/StillImage" />
        <dc:title />
      </cc:Work>
    </rdf:RDF>
  </metadata>
  <path
     inkscape:connector-curvature="0"
     style="fill:url(#linearGradient5123);fill-opacity:1;fill-rule:nonzero;stroke:none"
     d="M 1441.7566,716.90842 C 1412.2422,717.03018 0.13268148,701.25145 0.13268148,701.25145 0.14351771,687.91962 0.38928318,0.15908083 0.38928318,0.15908083 c 0,0 1425.10411682,0.78002799 1440.77191682,0.68724009 0.5638,145.45824908 1.4273,482.67519908 0.5954,716.06209908 z"
     id="path20236"
     sodipodi:nodetypes="ccccc" />
  <path
     inkscape:connector-curvature="0"
     id="path20242"
     d="m 401.49561,501.3887 c 185.91933,45.12632 397.80698,55.04097 596.39239,2.00295 71.9776,-19.22371 245.3266,-82.51561 444.021,0.0879 -0.037,27.31311 -0.1138,376.85111 -0.2846,396.63782 L -1.9009485,898.61913 C -1.4649712,867.58289 -2.1446671,630.02263 -2.1446671,504.81771 16.23225,493.66634 197.53293,451.88291 401.49564,501.38858 Z"
     style="fill:url(#linearGradient5118);fill-opacity:1;fill-rule:nonzero;stroke:none"
     sodipodi:nodetypes="cscccccc" />
  <g
     transform="matrix(-1.2131155,0,0,1.2131155,955.54596,-782.92707)"
     id="g6342">
    <g
       id="g6346"
       transform="translate(51.915175,84.093931)">
      <path
         id="path6348"
         d="m 582.37537,520.4775 c -16.47151,0 -30.15279,7.84462 -33.09375,18.21875 -11.18803,2.81782 -19.375,11.90537 -19.375,22.6875 0,8.27563 4.82262,15.56939 12.125,19.78125 -0.0527,0.62735 -0.0937,1.26572 -0.0937,1.90625 0,12.7655 10.67934,23.09375 23.84375,23.09375 5.70292,0 10.92885,-1.9169 15.03125,-5.15625 4.49671,1.75736 9.62135,2.75 15.0625,2.75 8.11866,0 15.51681,-2.21771 21.1875,-5.875 1.45351,0.36793 2.98112,0.59375 4.5625,0.59375 9.44114,0 17.09375,-7.01295 17.09375,-15.65625 0,-4.09344 -1.72107,-7.80491 -4.53125,-10.59375 4.30817,-4.21773 6.9375,-9.89359 6.9375,-16.125 0,-13.0314 -11.5218,-23.59375 -25.75,-23.59375 -1.00533,0 -1.99344,0.0536 -2.96875,0.15625 -5.58629,-7.23626 -16.9475,-12.1875 -30.03125,-12.1875 z"
         style="fill:#ffffff;fill-opacity:1;fill-rule:nonzero;stroke:none"
         inkscape:connector-curvature="0" />
      <g
         transform="translate(-3.9285716,-0.71428535)"
         id="g6350">
        <path
           inkscape:connector-curvature="0"
           style="fill:none;stroke:#000000;stroke-width:0.48517844px;stroke-linecap:butt;stroke-linejoin:miter;stroke-opacity:0.21938776"
           d="m 557.1329,575.16036 c 5.1228,10.32555 13.43389,13.87935 25.53828,9.37625"
           id="path6352" />
        <path
           inkscape:connector-curvature="0"
           id="path6355"
           d="m 612.07631,542.08096 c 10.29033,5.1933 13.78707,13.5286 9.20138,25.6019"
           style="fill:none;stroke:#000000;stroke-width:0.48517844px;stroke-linecap:butt;stroke-linejoin:miter;stroke-opacity:0.21938776" />
        <path
           inkscape:connector-curvature="0"
           style="fill:none;stroke:#000000;stroke-width:0.48517844px;stroke-linecap:butt;stroke-linejoin:miter;stroke-opacity:0.21938776"
           d="m 551.16885,561.30866 c 0.98253,-11.4846 7.4132,-17.8367 20.32569,-18.0827"
           id="path6357" />
        <path
           inkscape:connector-curvature="0"
           id="path6359"
           d="m 578.6329,578.66031 c 5.1228,10.3256 13.43389,13.8794 25.53828,9.3763"
           style="fill:none;stroke:#000000;stroke-width:0.48517844px;stroke-linecap:butt;stroke-linejoin:miter;stroke-opacity:0.21938776" />
        <path
           inkscape:connector-curvature="0"
           style="fill:none;stroke:#000000;stroke-width:0.48517844px;stroke-linecap:butt;stroke-linejoin:miter;stroke-opacity:0.21938776"
           d="m 615.84543,565.47246 c 10.17528,5.4152 13.49043,13.82425 8.644,25.79525"
           id="path6361" />
      </g>
    </g>
  </g>
  <g
     id="g11998"
     transform="matrix(1.9510405,0,0,-1.9510405,1.2118271,1760.8642)">
    <ellipse
       ry="8.5714283"
       rx="15.714286"
       cy="492.36218"
       cx="400"
       style="color:#000000;display:inline;overflow:visible;visibility:visible;fill:#000000;fill-opacity:0.14893619;fill-rule:nonzero;stroke:none;enable-background:accumulate"
       id="ellipse12000"
       transform="translate(-4.9229925e-6,0)" />
    <ellipse
       ry="8.5714283"
       rx="15.714286"
       cy="492.36218"
       cx="400"
       transform="matrix(0.48574052,0,0,0.48574052,224.89669,268.99703)"
       id="ellipse12002"
       style="color:#000000;display:inline;overflow:visible;visibility:visible;fill:#000000;fill-opacity:0.14893619;fill-rule:nonzero;stroke:none;enable-background:accumulate" />
    <ellipse
       ry="8.5714283"
       rx="15.714286"
       cy="492.36218"
       cx="400"
       style="color:#000000;display:inline;overflow:visible;visibility:visible;fill:#000000;fill-opacity:0.14893619;fill-rule:nonzero;stroke:none;enable-background:accumulate"
       id="ellipse12004"
       transform="matrix(0.30896382,0,0,0.30896382,239.29136,337.34738)" />
    <ellipse
       id="ellipse12006"
       style="color:#000000;display:inline;overflow:visible;visibility:visible;fill:#000000;fill-opacity:0.14893619;fill-rule:nonzero;stroke:none;enable-background:accumulate"
       cx="400.05801"
       cy="490.33017"
       rx="11.988968"
       ry="6.5394368" />
    <ellipse
       id="ellipse12008"
       style="color:#000000;display:inline;overflow:visible;visibility:visible;fill:#000000;fill-opacity:0.14893619;fill-rule:nonzero;stroke:none;enable-background:accumulate"
       cx="362.83405"
       cy="489.22269"
       rx="4.2869349"
       ry="2.3383281" />
  </g>
  <use
     x="0"
     y="0"
     xlink:href="#g11998"
     id="use12034"
     transform="matrix(0.62526432,0,0,0.62526432,854.74396,371.38895)"
     width="100%"
     height="100%" />
  <use
     x="0"
     y="0"
     xlink:href="#g11998"
     id="use12036"
     transform="matrix(-0.51801192,0,0,0.51801192,678.00251,107.4985)"
     width="100%"
     height="100%"
     style="opacity:0.64499996" />
  <use
     x="0"
     y="0"
     xlink:href="#g11998"
     id="use12038"
     transform="matrix(0.72519384,0,0,0.72519384,-420.32797,92.249148)"
     width="100%"
     height="100%" />
  <use
     x="0"
     y="0"
     xlink:href="#g11998"
     id="use12042"
     transform="matrix(0.62526428,0,0,0.62526428,203.62894,74.387361)"
     width="100%"
     height="100%"
     style="opacity:0.61100003" />
  <use
     x="0"
     y="0"
     xlink:href="#g11998"
     id="use12058"
     transform="matrix(0.54813618,0,0,0.54813618,605.75163,91.260007)"
     width="100%"
     height="100%"
     style="opacity:0.48900003" />
  <path
     style="fill:#ffffff;fill-opacity:0.60638296;fill-rule:nonzero;stroke:none"
     d="m 922.94501,426.82272 c -5.64846,0 -10.33658,2.69338 -11.33825,6.2526 -3.83234,0.96577 -6.63799,4.07926 -6.63799,7.77291 0,2.83431 1.65366,5.32324 4.15408,6.76651 -0.0186,0.21497 -0.0314,0.43364 -0.0314,0.65308 0,4.37357 3.65892,7.92282 8.16912,7.92282 1.95073,0 3.73462,-0.6706 5.13909,-1.77729 1.54357,0.60505 3.30223,0.9529 5.17126,0.9529 2.7837,0 5.32644,-0.75812 7.26974,-2.01282 0.49679,0.12539 1.01203,0.19272 1.55243,0.19272 3.23461,0 5.85648,-2.40268 5.85648,-5.36398 0,-1.40243 -0.58965,-2.67402 -1.55243,-3.62949 1.47595,-1.44506 2.37683,-3.38962 2.37683,-5.52455 0,-4.46465 -3.94742,-8.08342 -8.82218,-8.08342 -0.34439,0 -0.68286,0.0186 -1.01711,0.0535 -1.91391,-2.47922 -5.80637,-4.17554 -10.2889,-4.17554 z"
     id="use12060"
     inkscape:connector-curvature="0" />
  <path
     style="fill:#ffffff;fill-opacity:0.60638296;fill-rule:nonzero;stroke:none"
     d="m 1325.516,386.65111 c -5.9171,0 -10.8281,2.82145 -11.8774,6.54991 -4.0146,1.01169 -6.9536,4.27323 -6.9536,8.14251 0,2.96908 1.7322,5.57636 4.3516,7.08826 -0.019,0.22519 -0.033,0.45426 -0.033,0.68413 0,4.58154 3.8329,8.29956 8.5576,8.29956 2.0435,0 3.9122,-0.70249 5.3834,-1.8618 1.617,0.63382 3.4593,0.99821 5.4172,0.99821 2.9161,0 5.5797,-0.79417 7.6154,-2.10853 0.5204,0.13135 1.0602,0.20188 1.6263,0.20188 3.3884,0 6.1349,-2.51692 6.1349,-5.61904 0,-1.46911 -0.6177,-2.80117 -1.6262,-3.80207 1.5461,-1.51377 2.4898,-3.5508 2.4898,-5.78724 0,-4.67696 -4.1351,-8.46779 -9.2417,-8.46779 -0.3607,0 -0.7153,0.0195 -1.0654,0.0561 -2.005,-2.59711 -6.0825,-4.37409 -10.7782,-4.37409 z"
     id="use12066"
     inkscape:connector-curvature="0" />
  <use
     x="0"
     y="0"
     xlink:href="#use12066"
     id="use12068"
     transform="matrix(1.1677309,0,0,1,-1489.5989,-31.802535)"
     width="100%"
     height="100%"
     style="opacity:0.27900002" />
  <path
     style="fill:#ffffff;fill-opacity:0.60638296;fill-rule:nonzero;stroke:none"
     d="m 665.65371,430.17036 c -7.902,0 -14.4605,3.76794 -15.8618,8.74716 -5.3613,1.35107 -9.2863,5.70673 -9.2863,10.87401 0,3.96509 2.3134,7.44702 5.8114,9.4661 -0.026,0.30073 -0.044,0.60665 -0.044,0.91363 0,6.11847 5.1187,11.08374 11.4283,11.08374 2.729,0 5.2246,-0.93814 7.1894,-2.48636 2.1594,0.84644 4.6197,1.33307 7.2344,1.33307 3.8943,0 7.4515,-1.06058 10.1701,-2.81586 0.695,0.17541 1.4158,0.2696 2.1718,0.2696 4.5251,0 8.193,-3.36125 8.193,-7.50401 0,-1.96194 -0.8249,-3.74085 -2.1718,-5.07752 2.0648,-2.02158 3.3251,-4.74196 3.3251,-7.72864 0,-6.24589 -5.5223,-11.30841 -12.3419,-11.30841 -0.4818,0 -0.9553,0.026 -1.4229,0.0749 -2.6775,-3.46834 -8.1229,-5.84143 -14.3938,-5.84143 z"
     id="use12070"
     inkscape:connector-curvature="0" />
  <g
     id="use4246"
     transform="matrix(0.85802811,0,0,0.85802811,890.11283,-425.48465)">
    <path
       style="fill:#ffffff;fill-opacity:0.60638296;fill-rule:nonzero;stroke:none"
       d="m 645.51238,602.61204 c -16.48688,0 -30.17017,7.8614 -33.09375,18.25 -11.18614,2.8189 -19.375,11.9065 -19.375,22.68745 0,8.2727 4.82687,15.5374 12.125,19.75 -0.0527,0.6274 -0.0937,1.2657 -0.0937,1.9062 0,12.7655 10.67934,23.125 23.84375,23.125 5.69392,0 10.90051,-1.9573 15,-5.1875 4.50524,1.766 9.63826,2.7813 15.09375,2.7813 8.12482,0 15.54641,-2.2128 21.21875,-5.875 1.45001,0.366 2.95413,0.5625 4.53125,0.5625 9.44114,0 17.09375,-7.0129 17.09375,-15.6563 0,-4.0934 -1.72107,-7.8049 -4.53125,-10.5937 4.30817,-4.2178 6.9375,-9.8936 6.9375,-16.12495 0,-13.0314 -11.5218,-23.5938 -25.75,-23.5938 -1.00533,0 -1.99344,0.054 -2.96875,0.1563 -5.58629,-7.2363 -16.9475,-12.1875 -30.03125,-12.1875 z"
       id="path7490"
       inkscape:connector-curvature="0" />
    <g
       transform="translate(51.915175,84.093931)"
       id="g7492">
      <path
         inkscape:connector-curvature="0"
         style="fill:#ffffff;fill-opacity:1;fill-rule:nonzero;stroke:none"
         d="m 582.37537,520.4775 c -16.47151,0 -30.15279,7.84462 -33.09375,18.21875 -11.18803,2.81782 -19.375,11.90537 -19.375,22.6875 0,8.27563 4.82262,15.56939 12.125,19.78125 -0.0527,0.62735 -0.0937,1.26572 -0.0937,1.90625 0,12.7655 10.67934,23.09375 23.84375,23.09375 5.70292,0 10.92885,-1.9169 15.03125,-5.15625 4.49671,1.75736 9.62135,2.75 15.0625,2.75 8.11866,0 15.51681,-2.21771 21.1875,-5.875 1.45351,0.36793 2.98112,0.59375 4.5625,0.59375 9.44114,0 17.09375,-7.01295 17.09375,-15.65625 0,-4.09344 -1.72107,-7.80491 -4.53125,-10.59375 4.30817,-4.21773 6.9375,-9.89359 6.9375,-16.125 0,-13.0314 -11.5218,-23.59375 -25.75,-23.59375 -1.00533,0 -1.99344,0.0536 -2.96875,0.15625 -5.58629,-7.23626 -16.9475,-12.1875 -30.03125,-12.1875 z"
         id="path7494" />
      <g
         id="g7496"
         transform="translate(-3.9285716,-0.71428535)">
        <path
           id="path7498"
           d="m 557.1329,575.16036 c 5.1228,10.32555 13.43389,13.87935 25.53828,9.37625"
           style="fill:none;stroke:#000000;stroke-width:0.48517844px;stroke-linecap:butt;stroke-linejoin:miter;stroke-opacity:0.21938776"
           inkscape:connector-curvature="0" />
        <path
           style="fill:none;stroke:#000000;stroke-width:0.48517844px;stroke-linecap:butt;stroke-linejoin:miter;stroke-opacity:0.21938776"
           d="m 612.07631,542.08096 c 10.29033,5.1933 13.78707,13.5286 9.20138,25.6019"
           id="path7500"
           inkscape:connector-curvature="0" />
        <path
           id="path7502"
           d="m 551.16885,561.30866 c 0.98253,-11.4846 7.4132,-17.8367 20.32569,-18.0827"
           style="fill:none;stroke:#000000;stroke-width:0.48517844px;stroke-linecap:butt;stroke-linejoin:miter;stroke-opacity:0.21938776"
           inkscape:connector-curvature="0" />
        <path
           style="fill:none;stroke:#000000;stroke-width:0.48517844px;stroke-linecap:butt;stroke-linejoin:miter;stroke-opacity:0.21938776"
           d="m 578.6329,578.66031 c 5.1228,10.3256 13.43389,13.8794 25.53828,9.3763"
           id="path7504"
           inkscape:connector-curvature="0" />
        <path
           id="path7506"
           d="m 615.84543,565.47246 c 10.17528,5.4152 13.49043,13.82425 8.644,25.79525"
           style="fill:none;stroke:#000000;stroke-width:0.48517844px;stroke-linecap:butt;stroke-linejoin:miter;stroke-opacity:0.21938776"
           inkscape:connector-curvature="0" />
      </g>
    </g>
  </g>
  <path
     style="opacity:0.625;fill:none;fill-opacity:1;fill-rule:nonzero;stroke:#000000;stroke-width:5.00000048;stroke-miterlimit:4;stroke-dasharray:none;stroke-opacity:1;filter:url(#filter7724)"
     d="M -2.1446671,506.81771 C 16.23225,495.66634 197.53293,453.88291 401.49564,503.38858 l -3e-5,1.2e-4 c 185.91933,45.12632 397.80698,55.04097 596.39239,2.00295 71.9776,-19.22371 245.3266,-82.51561 444.021,0.0879"
     id="path7526"
     inkscape:connector-curvature="0" />
</svg>
