<?xml version="1.0" encoding="UTF-8" standalone="no"?>
<svg
   xmlns:dc="http://purl.org/dc/elements/1.1/"
   xmlns:cc="http://creativecommons.org/ns#"
   xmlns:rdf="http://www.w3.org/1999/02/22-rdf-syntax-ns#"
   xmlns:svg="http://www.w3.org/2000/svg"
   xmlns="http://www.w3.org/2000/svg"
   xmlns:sodipodi="http://sodipodi.sourceforge.net/DTD/sodipodi-0.dtd"
   xmlns:inkscape="http://www.inkscape.org/namespaces/inkscape"
   version="1.1"
   height="1380.423"
   width="976.98071"
   id="svg"
   inkscape:version="0.91 r13725"
   sodipodi:docname="flower2.svg">
  <sodipodi:namedview
     pagecolor="#ffffff"
     bordercolor="#666666"
     borderopacity="1"
     objecttolerance="10"
     gridtolerance="10"
     guidetolerance="10"
     inkscape:pageopacity="0"
     inkscape:pageshadow="2"
     inkscape:window-width="1366"
     inkscape:window-height="715"
     id="namedview4430"
     showgrid="false"
     inkscape:zoom="0.17096209"
     inkscape:cx="-312.85688"
     inkscape:cy="690.21149"
     inkscape:window-x="-8"
     inkscape:window-y="-8"
     inkscape:window-maximized="1"
     inkscape:current-layer="svg" />
  <metadata
     id="metadata153">
    <rdf:RDF>
      <cc:Work
         rdf:about="">
        <dc:format>image/svg+xml</dc:format>
        <dc:type
           rdf:resource="http://purl.org/dc/dcmitype/StillImage" />
        <dc:title />
      </cc:Work>
    </rdf:RDF>
  </metadata>
  <defs
     id="defs151" />
  <g
     id="g5117">
    <path
       style="fill:#232323;fill-opacity:0.08241757;stroke:none"
       id="path22154"
       d="m -161.47974,1283.3479 c 41.4254,-6.4393 77.1142,-23.7672 108.4564,-49.346 -21.2661,36.8042 -32.9318,76.6175 -31.7501,120.4575 0.1758,0.1496 38.4771,-13.4249 81.97985,-75.9814 -4.96736,35.783 -2.13743,71.4453 10.67017,106.9526 0.24433,0.099 42.10374,-32.4156 62.4892,-132.0449 9.51585,51.0921 30.87383,95.8728 69.19877,131.6126 0.23881,-0.021 18.75414,-39.6912 1.61092,-120.4312 25.21958,28.9229 55.80976,51.1458 93.38678,64.6561 0.22033,-0.1185 1.70029,-47.7919 -52.55759,-120.3083 44.06331,19.6391 89.87927,27.3104 138.14612,18.2711 0.12665,-0.2082 -21.52188,-39.9115 -99.72375,-74.4159 42.88128,3.7279 84.34571,-2.6895 123.90378,-22.7557 0.0608,-0.2262 -29.4038,-29.8142 -106.88431,-42.0524 37.99315,-9.27 72.34214,-26.5936 101.91981,-54.4603 -0.006,-0.2659 -47.28906,-26.1371 -148.52888,-4.2099 6.55743,-5.4455 12.6253,-10.7987 18.22882,-16.0377 78.23889,-60.9788 211.17142,-164.3165 217.05927,-167.0266 14.76777,-6.7972 -25.36229,-50.1721 -39.12493,-44.7649 L 231.08143,925.7184 c -27.18478,9.9826 -51.71553,25.2041 -74.10127,44.6615 44.7354,-79.1259 37.11992,-126.3722 36.88573,-126.4616 -33.20684,17.0367 -59.38697,40.8347 -80.0527,69.9374 4.22784,-34.4566 1.15939,-68.8 -11.17657,-102.9999 -0.25265,-0.1026 -44.98911,34.6542 -64.48588,142.403 -16.26523,-105.9009 -58.97108,-141.4413 -59.22453,-141.348 -19.55305,49.0228 -19.62295,98.9971 -6.14435,149.6347 -61.86,-76.9438 -112.4932,-86.9075 -112.6645,-86.7115 5.6066,46.4685 25.0274,86.2513 54.5193,121.1599 -92.5708,-27.9571 -139.2151,-8.2455 -139.2471,-7.9898 23.2982,26.8829 51.045,46.1017 82.3268,59.2342 -31.5733,1.1879 -62.2817,8.566 -91.9209,23.6007 -0.065,0.2405 33.2474,33.6829 122.1803,44.16 -42.2023,14.9665 -78.4196,39.0086 -106.4975,75.3964 0.045,0.2439 44.1587,15.999 128.3327,-12.3053 -64.1238,59.4942 -71.4815,105.1022 -71.2907,105.2578 z m 316.9792,-223.5539 a 119.68343,107.98506 51.447817 0 0 -1.37895,-2.8816 c 0.11487,-0.079 0.2323,-0.1562 0.34696,-0.2348 0.3545,1.0109 0.69782,2.0513 1.03199,3.1164 z"
       inkscape:connector-curvature="0" />
    <g
       id="g15908">
      <path
         style="fill:#3fa92c;fill-opacity:1;stroke:none"
         id="path22158"
         d="m 372.0808,445.7659 61.58744,-1.0265 0,392.1067 c -4.96028,16.1209 -72.18097,21.085 -67.74618,3.0793 2.50342,-10.164 6.15874,-394.1595 6.15874,-394.1595 z"
         inkscape:connector-curvature="0" />
      <path
         style="fill:#ffffff;fill-opacity:0.24725276;stroke:none"
         id="path22160"
         d="m 427.96805,445.7659 5.70019,-1.0265 0,394.1067 c 0,0 -1.22727,1.1619 -9.63122,-14.6547 -12.74645,-23.9893 3.93103,-378.4255 3.93103,-378.4255 z"
         inkscape:connector-curvature="0" />
      <path
         style="fill:#000000;fill-opacity:0.13186813;stroke:none"
         id="path22162"
         d="m 369.87696,445.7659 8.12402,-1.0265 c 0,0 13.90336,360.0516 -1.29944,387.2752 -0.59558,13.3466 -7.90779,18.1754 -7.63699,7.9108 0.2708,-10.2645 0.81241,-394.1595 0.81241,-394.1595 z"
         inkscape:connector-curvature="0" />
    </g>
    <g
       id="flowerHead">
      <g
         id="g22164"
         transform="matrix(1,0,0,-1,21.5486,743.0625)">
        <path
           style="fill:#e4e748;fill-opacity:1;stroke:none"
           id="path22166"
           d="M 350.14028,300.16605 C 337.71555,144.38901 389.72332,85.257497 390.0601,85.324851 c 38.70686,65.357389 42.75339,137.885879 25.40352,214.841209 -34.03575,-7.23214 -47.86279,-3.06476 -65.32334,-1e-5 z"
           inkscape:connector-curvature="0" />
        <path
           style="fill:#d9dd1d;fill-opacity:1;stroke:none"
           id="path22168"
           d="M 350.14028,300.16605 C 337.71555,144.38901 389.72332,85.257497 390.0601,85.324851 360.54494,176.60188 348.95271,277.66108 376.89219,297.30892 c -34.03575,-7.23214 -9.29136,-0.20762 -26.75191,2.85713 z"
           inkscape:connector-curvature="0" />
        <path
           style="fill:#edef85;fill-opacity:1;stroke:none"
           id="path22170"
           d="m 395.85457,300.16605 c 47.43856,-66.55632 -3.64204,-214.908553 -5.79447,-214.841199 38.70686,65.357389 42.75339,137.885879 25.40352,214.841209 -34.03575,-7.23214 -2.1485,-3.06476 -19.60905,-1e-5 z"
           inkscape:connector-curvature="0" />
      </g>
      <g
         id="g22172"
         transform="matrix(-0.99987143,0.01603483,0.01603483,0.99987143,782.35708,-86.5605)">
        <path
           style="fill:#e4e748;fill-opacity:1;stroke:none"
           id="path22174"
           d="M 350.14028,300.16605 C 337.71555,144.38901 389.72332,85.257497 390.0601,85.324851 c 38.70686,65.357389 42.75339,137.885879 25.40352,214.841209 -34.03575,-7.23214 -47.86279,-3.06476 -65.32334,-1e-5 z"
           inkscape:connector-curvature="0" />
        <path
           style="fill:#d9dd1d;fill-opacity:1;stroke:none"
           id="path22176"
           d="M 350.14028,300.16605 C 337.71555,144.38901 389.72332,85.257497 390.0601,85.324851 360.54494,176.60188 348.95271,277.66108 376.89219,297.30892 c -34.03575,-7.23214 -9.29136,-0.20762 -26.75191,2.85713 z"
           inkscape:connector-curvature="0" />
        <path
           style="fill:#edef85;fill-opacity:1;stroke:none"
           id="path22178"
           d="m 395.85457,300.16605 c 47.43856,-66.55632 -3.64204,-214.908553 -5.79447,-214.841199 38.70686,65.357389 42.75339,137.885879 25.40352,214.841209 -34.03575,-7.23214 -2.1485,-3.06476 -19.60905,-1e-5 z"
           inkscape:connector-curvature="0" />
      </g>
      <g
         id="g22180"
         transform="matrix(0.01809794,-0.99983622,-0.99983622,-0.01809794,821.02759,706.2237)">
        <path
           style="fill:#e4e748;fill-opacity:1;stroke:none"
           id="path22182"
           d="M 350.14028,300.16605 C 337.71555,144.38901 389.72332,85.257497 390.0601,85.324851 c 38.70686,65.357389 42.75339,137.885879 25.40352,214.841209 -34.03575,-7.23214 -47.86279,-3.06476 -65.32334,-1e-5 z"
           inkscape:connector-curvature="0" />
        <path
           style="fill:#d9dd1d;fill-opacity:1;stroke:none"
           id="path22184"
           d="M 350.14028,300.16605 C 337.71555,144.38901 389.72332,85.257497 390.0601,85.324851 360.54494,176.60188 348.95271,277.66108 376.89219,297.30892 c -34.03575,-7.23214 -9.29136,-0.20762 -26.75191,2.85713 z"
           inkscape:connector-curvature="0" />
        <path
           style="fill:#edef85;fill-opacity:1;stroke:none"
           id="path22186"
           d="m 395.85457,300.16605 c 47.43856,-66.55632 -3.64204,-214.908553 -5.79447,-214.841199 38.70686,65.357389 42.75339,137.885879 25.40352,214.841209 -34.03575,-7.23214 -2.1485,-3.06476 -19.60905,-1e-5 z"
           inkscape:connector-curvature="0" />
      </g>
      <g
         id="g22188"
         transform="matrix(-0.01809794,-0.99983622,0.99983622,-0.01809794,-7.00402,717.2237)">
        <path
           style="fill:#e4e748;fill-opacity:1;stroke:none"
           id="path22190"
           d="M 350.14028,300.16605 C 337.71555,144.38901 389.72332,85.257497 390.0601,85.324851 c 38.70686,65.357389 42.75339,137.885879 25.40352,214.841209 -34.03575,-7.23214 -47.86279,-3.06476 -65.32334,-1e-5 z"
           inkscape:connector-curvature="0" />
        <path
           style="fill:#d9dd1d;fill-opacity:1;stroke:none"
           id="path22192"
           d="M 350.14028,300.16605 C 337.71555,144.38901 389.72332,85.257497 390.0601,85.324851 360.54494,176.60188 348.95271,277.66108 376.89219,297.30892 c -34.03575,-7.23214 -9.29136,-0.20762 -26.75191,2.85713 z"
           inkscape:connector-curvature="0" />
        <path
           style="fill:#edef85;fill-opacity:1;stroke:none"
           id="path22194"
           d="m 395.85457,300.16605 c 47.43856,-66.55632 -3.64204,-214.908553 -5.79447,-214.841199 38.70686,65.357389 42.75339,137.885879 25.40352,214.841209 -34.03575,-7.23214 -2.1485,-3.06476 -19.60905,-1e-5 z"
           inkscape:connector-curvature="0" />
      </g>
      <g
         id="g22196"
         transform="matrix(0.37765576,-0.92594607,0.92594607,0.37765576,-137.28777,530.2422)">
        <path
           style="fill:#e4e748;fill-opacity:1;stroke:none"
           id="path22198"
           d="M 350.14028,300.16605 C 337.71555,144.38901 389.72332,85.257497 390.0601,85.324851 c 38.70686,65.357389 42.75339,137.885879 25.40352,214.841209 -34.03575,-7.23214 -47.86279,-3.06476 -65.32334,-1e-5 z"
           inkscape:connector-curvature="0" />
        <path
           style="fill:#d9dd1d;fill-opacity:1;stroke:none"
           id="path22200"
           d="M 350.14028,300.16605 C 337.71555,144.38901 389.72332,85.257497 390.0601,85.324851 360.54494,176.60188 348.95271,277.66108 376.89219,297.30892 c -34.03575,-7.23214 -9.29136,-0.20762 -26.75191,2.85713 z"
           inkscape:connector-curvature="0" />
        <path
           style="fill:#edef85;fill-opacity:1;stroke:none"
           id="path22202"
           d="m 395.85457,300.16605 c 47.43856,-66.55632 -3.64204,-214.908553 -5.79447,-214.841199 38.70686,65.357389 42.75339,137.885879 25.40352,214.841209 -34.03575,-7.23214 -2.1485,-3.06476 -19.60905,-1e-5 z"
           inkscape:connector-curvature="0" />
      </g>
      <g
         id="g22204"
         transform="matrix(0.92483618,-0.38036568,0.38036568,0.92483618,-117.44647,92.334)">
        <path
           style="fill:#e4e748;fill-opacity:1;stroke:none"
           id="path22206"
           d="M 350.14028,300.16605 C 337.71555,144.38901 389.72332,85.257497 390.0601,85.324851 c 38.70686,65.357389 42.75339,137.885879 25.40352,214.841209 -34.03575,-7.23214 -47.86279,-3.06476 -65.32334,-1e-5 z"
           inkscape:connector-curvature="0" />
        <path
           style="fill:#d9dd1d;fill-opacity:1;stroke:none"
           id="path22208"
           d="M 350.14028,300.16605 C 337.71555,144.38901 389.72332,85.257497 390.0601,85.324851 360.54494,176.60188 348.95271,277.66108 376.89219,297.30892 c -34.03575,-7.23214 -9.29136,-0.20762 -26.75191,2.85713 z"
           inkscape:connector-curvature="0" />
        <path
           style="fill:#edef85;fill-opacity:1;stroke:none"
           id="path22210"
           d="m 395.85457,300.16605 c 47.43856,-66.55632 -3.64204,-214.908553 -5.79447,-214.841199 38.70686,65.357389 42.75339,137.885879 25.40352,214.841209 -34.03575,-7.23214 -2.1485,-3.06476 -19.60905,-1e-5 z"
           inkscape:connector-curvature="0" />
      </g>
      <g
         id="g22212"
         transform="matrix(0.75873968,-0.65139397,0.65139397,0.75873968,-169.27657,272.8544)">
        <path
           style="fill:#e4e748;fill-opacity:1;stroke:none"
           id="path22214"
           d="M 350.14028,300.16605 C 337.71555,144.38901 389.72332,85.257497 390.0601,85.324851 c 38.70686,65.357389 42.75339,137.885879 25.40352,214.841209 -34.03575,-7.23214 -47.86279,-3.06476 -65.32334,-1e-5 z"
           inkscape:connector-curvature="0" />
        <path
           style="fill:#d9dd1d;fill-opacity:1;stroke:none"
           id="path22216"
           d="M 350.14028,300.16605 C 337.71555,144.38901 389.72332,85.257497 390.0601,85.324851 360.54494,176.60188 348.95271,277.66108 376.89219,297.30892 c -34.03575,-7.23214 -9.29136,-0.20762 -26.75191,2.85713 z"
           inkscape:connector-curvature="0" />
        <path
           style="fill:#edef85;fill-opacity:1;stroke:none"
           id="path22218"
           d="m 395.85457,300.16605 c 47.43856,-66.55632 -3.64204,-214.908553 -5.79447,-214.841199 38.70686,65.357389 42.75339,137.885879 25.40352,214.841209 -34.03575,-7.23214 -2.1485,-3.06476 -19.60905,-1e-5 z"
           inkscape:connector-curvature="0" />
      </g>
      <g
         id="g22220"
         transform="matrix(-0.52130659,-0.85336947,0.85336947,-0.52130659,231.95294,851.9159)">
        <path
           style="fill:#e4e748;fill-opacity:1;stroke:none"
           id="path22222"
           d="M 350.14028,300.16605 C 337.71555,144.38901 389.72332,85.257497 390.0601,85.324851 c 38.70686,65.357389 42.75339,137.885879 25.40352,214.841209 -34.03575,-7.23214 -47.86279,-3.06476 -65.32334,-1e-5 z"
           inkscape:connector-curvature="0" />
        <path
           style="fill:#d9dd1d;fill-opacity:1;stroke:none"
           id="path22224"
           d="M 350.14028,300.16605 C 337.71555,144.38901 389.72332,85.257497 390.0601,85.324851 360.54494,176.60188 348.95271,277.66108 376.89219,297.30892 c -34.03575,-7.23214 -9.29136,-0.20762 -26.75191,2.85713 z"
           inkscape:connector-curvature="0" />
        <path
           style="fill:#edef85;fill-opacity:1;stroke:none"
           id="path22226"
           d="m 395.85457,300.16605 c 47.43856,-66.55632 -3.64204,-214.908553 -5.79447,-214.841199 38.70686,65.357389 42.75339,137.885879 25.40352,214.841209 -34.03575,-7.23214 -2.1485,-3.06476 -19.60905,-1e-5 z"
           inkscape:connector-curvature="0" />
      </g>
      <g
         id="g22228"
         transform="matrix(-0.73973965,-0.6728932,0.6728932,-0.73973965,402.04655,890.8051)">
        <path
           style="fill:#e4e748;fill-opacity:1;stroke:none"
           id="path22230"
           d="M 350.14028,300.16605 C 337.71555,144.38901 389.72332,85.257497 390.0601,85.324851 c 38.70686,65.357389 42.75339,137.885879 25.40352,214.841209 -34.03575,-7.23214 -47.86279,-3.06476 -65.32334,-1e-5 z"
           inkscape:connector-curvature="0" />
        <path
           style="fill:#d9dd1d;fill-opacity:1;stroke:none"
           id="path22232"
           d="M 350.14028,300.16605 C 337.71555,144.38901 389.72332,85.257497 390.0601,85.324851 360.54494,176.60188 348.95271,277.66108 376.89219,297.30892 c -34.03575,-7.23214 -9.29136,-0.20762 -26.75191,2.85713 z"
           inkscape:connector-curvature="0" />
        <path
           style="fill:#edef85;fill-opacity:1;stroke:none"
           id="path22234"
           d="m 395.85457,300.16605 c 47.43856,-66.55632 -3.64204,-214.908553 -5.79447,-214.841199 38.70686,65.357389 42.75339,137.885879 25.40352,214.841209 -34.03575,-7.23214 -2.1485,-3.06476 -19.60905,-1e-5 z"
           inkscape:connector-curvature="0" />
      </g>
      <g
         id="g22236"
         transform="matrix(0.95710508,0.28974105,-0.28974105,0.95710508,168.57789,-174.4797)">
        <path
           style="fill:#e4e748;fill-opacity:1;stroke:none"
           id="path22238"
           d="M 350.14028,300.16605 C 337.71555,144.38901 389.72332,85.257497 390.0601,85.324851 c 38.70686,65.357389 42.75339,137.885879 25.40352,214.841209 -34.03575,-7.23214 -47.86279,-3.06476 -65.32334,-1e-5 z"
           inkscape:connector-curvature="0" />
        <path
           style="fill:#d9dd1d;fill-opacity:1;stroke:none"
           id="path22240"
           d="M 350.14028,300.16605 C 337.71555,144.38901 389.72332,85.257497 390.0601,85.324851 360.54494,176.60188 348.95271,277.66108 376.89219,297.30892 c -34.03575,-7.23214 -9.29136,-0.20762 -26.75191,2.85713 z"
           inkscape:connector-curvature="0" />
        <path
           style="fill:#edef85;fill-opacity:1;stroke:none"
           id="path22242"
           d="m 395.85457,300.16605 c 47.43856,-66.55632 -3.64204,-214.908553 -5.79447,-214.841199 38.70686,65.357389 42.75339,137.885879 25.40352,214.841209 -34.03575,-7.23214 -2.1485,-3.06476 -19.60905,-1e-5 z"
           inkscape:connector-curvature="0" />
      </g>
      <g
         id="g22244"
         transform="matrix(-0.54459992,-0.83869597,-0.83869597,0.54459992,986.04393,439.3232)">
        <path
           style="fill:#e4e748;fill-opacity:1;stroke:none"
           id="path22246"
           d="M 350.14028,300.16605 C 337.71555,144.38901 389.72332,85.257497 390.0601,85.324851 c 38.70686,65.357389 42.75339,137.885879 25.40352,214.841209 -34.03575,-7.23214 -47.86279,-3.06476 -65.32334,-1e-5 z"
           inkscape:connector-curvature="0" />
        <path
           style="fill:#d9dd1d;fill-opacity:1;stroke:none"
           id="path22248"
           d="M 350.14028,300.16605 C 337.71555,144.38901 389.72332,85.257497 390.0601,85.324851 360.54494,176.60188 348.95271,277.66108 376.89219,297.30892 c -34.03575,-7.23214 -9.29136,-0.20762 -26.75191,2.85713 z"
           inkscape:connector-curvature="0" />
        <path
           style="fill:#edef85;fill-opacity:1;stroke:none"
           id="path22250"
           d="m 395.85457,300.16605 c 47.43856,-66.55632 -3.64204,-214.908553 -5.79447,-214.841199 38.70686,65.357389 42.75339,137.885879 25.40352,214.841209 -34.03575,-7.23214 -2.1485,-3.06476 -19.60905,-1e-5 z"
           inkscape:connector-curvature="0" />
      </g>
      <g
         id="g22252"
         transform="matrix(0.73973965,0.6728932,-0.6728932,0.73973965,403.8535,-234.3832)">
        <path
           style="fill:#e4e748;fill-opacity:1;stroke:none"
           id="path22254"
           d="M 350.14028,300.16605 C 337.71555,144.38901 389.72332,85.257497 390.0601,85.324851 c 38.70686,65.357389 42.75339,137.885879 25.40352,214.841209 -34.03575,-7.23214 -47.86279,-3.06476 -65.32334,-1e-5 z"
           inkscape:connector-curvature="0" />
        <path
           style="fill:#d9dd1d;fill-opacity:1;stroke:none"
           id="path22256"
           d="M 350.14028,300.16605 C 337.71555,144.38901 389.72332,85.257497 390.0601,85.324851 360.54494,176.60188 348.95271,277.66108 376.89219,297.30892 c -34.03575,-7.23214 -9.29136,-0.20762 -26.75191,2.85713 z"
           inkscape:connector-curvature="0" />
        <path
           style="fill:#edef85;fill-opacity:1;stroke:none"
           id="path22258"
           d="m 395.85457,300.16605 c 47.43856,-66.55632 -3.64204,-214.908553 -5.79447,-214.841199 38.70686,65.357389 42.75339,137.885879 25.40352,214.841209 -34.03575,-7.23214 -2.1485,-3.06476 -19.60905,-1e-5 z"
           inkscape:connector-curvature="0" />
      </g>
      <g
         id="g22260"
         transform="matrix(0.49487653,-0.8689633,-0.8689633,-0.49487653,595.55831,846.5718)">
        <path
           style="fill:#e4e748;fill-opacity:1;stroke:none"
           id="path22262"
           d="M 350.14028,300.16605 C 337.71555,144.38901 389.72332,85.257497 390.0601,85.324851 c 38.70686,65.357389 42.75339,137.885879 25.40352,214.841209 -34.03575,-7.23214 -47.86279,-3.06476 -65.32334,-1e-5 z"
           inkscape:connector-curvature="0" />
        <path
           style="fill:#d9dd1d;fill-opacity:1;stroke:none"
           id="path22264"
           d="M 350.14028,300.16605 C 337.71555,144.38901 389.72332,85.257497 390.0601,85.324851 360.54494,176.60188 348.95271,277.66108 376.89219,297.30892 c -34.03575,-7.23214 -9.29136,-0.20762 -26.75191,2.85713 z"
           inkscape:connector-curvature="0" />
        <path
           style="fill:#edef85;fill-opacity:1;stroke:none"
           id="path22266"
           d="m 395.85457,300.16605 c 47.43856,-66.55632 -3.64204,-214.908553 -5.79447,-214.841199 38.70686,65.357389 42.75339,137.885879 25.40352,214.841209 -34.03575,-7.23214 -2.1485,-3.06476 -19.60905,-1e-5 z"
           inkscape:connector-curvature="0" />
      </g>
      <g
         id="g22268"
         transform="matrix(0.94412838,-0.32957791,-0.32957791,-0.94412838,192.94828,843.4924)">
        <path
           style="fill:#e4e748;fill-opacity:1;stroke:none"
           id="path22270"
           d="M 350.14028,300.16605 C 337.71555,144.38901 389.72332,85.257497 390.0601,85.324851 c 38.70686,65.357389 42.75339,137.885879 25.40352,214.841209 -34.03575,-7.23214 -47.86279,-3.06476 -65.32334,-1e-5 z"
           inkscape:connector-curvature="0" />
        <path
           style="fill:#d9dd1d;fill-opacity:1;stroke:none"
           id="path22272"
           d="M 350.14028,300.16605 C 337.71555,144.38901 389.72332,85.257497 390.0601,85.324851 360.54494,176.60188 348.95271,277.66108 376.89219,297.30892 c -34.03575,-7.23214 -9.29136,-0.20762 -26.75191,2.85713 z"
           inkscape:connector-curvature="0" />
        <path
           style="fill:#edef85;fill-opacity:1;stroke:none"
           id="path22274"
           d="m 395.85457,300.16605 c 47.43856,-66.55632 -3.64204,-214.908553 -5.79447,-214.841199 38.70686,65.357389 42.75339,137.885879 25.40352,214.841209 -34.03575,-7.23214 -2.1485,-3.06476 -19.60905,-1e-5 z"
           inkscape:connector-curvature="0" />
      </g>
      <g
         id="g22276"
         transform="matrix(-0.75873968,0.65139397,-0.65139397,-0.75873968,978.97605,387.1599)">
        <path
           style="fill:#e4e748;fill-opacity:1;stroke:none"
           id="path22278"
           d="M 350.14028,300.16605 C 337.71555,144.38901 389.72332,85.257497 390.0601,85.324851 c 38.70686,65.357389 42.75339,137.885879 25.40352,214.841209 -34.03575,-7.23214 -47.86279,-3.06476 -65.32334,-1e-5 z"
           inkscape:connector-curvature="0" />
        <path
           style="fill:#d9dd1d;fill-opacity:1;stroke:none"
           id="path22280"
           d="M 350.14028,300.16605 C 337.71555,144.38901 389.72332,85.257497 390.0601,85.324851 360.54494,176.60188 348.95271,277.66108 376.89219,297.30892 c -34.03575,-7.23214 -9.29136,-0.20762 -26.75191,2.85713 z"
           inkscape:connector-curvature="0" />
        <path
           style="fill:#edef85;fill-opacity:1;stroke:none"
           id="path22282"
           d="m 395.85457,300.16605 c 47.43856,-66.55632 -3.64204,-214.908553 -5.79447,-214.841199 38.70686,65.357389 42.75339,137.885879 25.40352,214.841209 -34.03575,-7.23214 -2.1485,-3.06476 -19.60905,-1e-5 z"
           inkscape:connector-curvature="0" />
      </g>
      <g
         id="g22284"
         transform="matrix(-0.8996059,-0.43670269,0.43670269,-0.8996059,574.17946,876.4985)">
        <path
           style="fill:#e4e748;fill-opacity:1;stroke:none"
           id="path22286"
           d="M 350.14028,300.16605 C 337.71555,144.38901 389.72332,85.257497 390.0601,85.324851 c 38.70686,65.357389 42.75339,137.885879 25.40352,214.841209 -34.03575,-7.23214 -47.86279,-3.06476 -65.32334,-1e-5 z"
           inkscape:connector-curvature="0" />
        <path
           style="fill:#d9dd1d;fill-opacity:1;stroke:none"
           id="path22288"
           d="M 350.14028,300.16605 C 337.71555,144.38901 389.72332,85.257497 390.0601,85.324851 360.54494,176.60188 348.95271,277.66108 376.89219,297.30892 c -34.03575,-7.23214 -9.29136,-0.20762 -26.75191,2.85713 z"
           inkscape:connector-curvature="0" />
        <path
           style="fill:#edef85;fill-opacity:1;stroke:none"
           id="path22290"
           d="m 395.85457,300.16605 c 47.43856,-66.55632 -3.64204,-214.908553 -5.79447,-214.841199 38.70686,65.357389 42.75339,137.885879 25.40352,214.841209 -34.03575,-7.23214 -2.1485,-3.06476 -19.60905,-1e-5 z"
           inkscape:connector-curvature="0" />
      </g>
      <ellipse
         style="fill:#e69142;fill-opacity:1;fill-rule:nonzero;stroke:none"
         id="ellipse22292"
         transform="translate(970.84793,-4442.8346)"
         ry="123.17487"
         rx="136.51881"
         cy="4771.5845"
         cx="-563.86755" />
      <path
         style="fill:#000000;fill-opacity:0.09890113;fill-rule:nonzero;stroke:none"
         id="path22294"
         d="m 457.78489,417.3212 c 65.36471,-18.847 24.59272,34.5799 -50.80453,34.6034 -75.55017,0.023 -131.27659,-47.3712 -136.51881,-123.1749 -5.67804,-82.1055 116.99574,-146.2758 81.16167,-92.4605 -116.48018,174.9287 53.92239,196.0944 106.16167,181.032 z"
         inkscape:connector-curvature="0" />
      <ellipse
         style="fill:#e7984e;fill-opacity:1;fill-rule:nonzero;stroke:none"
         id="ellipse22296"
         transform="matrix(0.80368108,0.59506027,-0.59506016,0.80368116,970.84793,-4442.8346)"
         ry="11.03653"
         rx="29.511835"
         cy="4055.5103"
         cx="2407.3755" />
      <g
         id="g22298"
         transform="translate(26.67115,-90.8346)">
        <circle
           style="fill:#7a4310;fill-opacity:1;stroke:none"
           id="circle22300"
           transform="matrix(0.46966993,0,0,0.46966993,162.5043,209.92901)"
           r="4.5961943"
           cy="432.5831"
           cx="329.1582" />
        <circle
           style="fill:#7a4310;fill-opacity:1;stroke:none"
           id="circle22302"
           transform="matrix(0.46966993,0,0,0.46966993,166.74694,215.93942)"
           r="4.5961943"
           cy="432.5831"
           cx="329.1582" />
        <circle
           style="fill:#7a4310;fill-opacity:1;stroke:none"
           id="circle22304"
           transform="matrix(0.46966993,0,0,0.46966993,154.37257,215.93942)"
           r="4.5961943"
           cy="432.5831"
           cx="329.1582" />
        <circle
           style="fill:#7a4310;fill-opacity:1;stroke:none"
           id="circle22306"
           transform="matrix(0.46966993,0,0,0.46966993,154.37257,222.65693)"
           r="4.5961943"
           cy="432.5831"
           cx="329.1582" />
        <circle
           style="fill:#7a4310;fill-opacity:1;stroke:none"
           id="circle22308"
           transform="matrix(0.46966993,0,0,0.46966993,143.41241,222.65693)"
           r="4.5961943"
           cy="432.5831"
           cx="329.1582" />
        <circle
           style="fill:#7a4310;fill-opacity:1;stroke:none"
           id="circle22310"
           transform="matrix(0.46966993,0,0,0.46966993,143.41241,217.35363)"
           r="4.5961943"
           cy="432.5831"
           cx="329.1582" />
      </g>
      <g
         id="g22312"
         transform="translate(188.17115,-97.3346)">
        <circle
           style="fill:#7a4310;fill-opacity:1;stroke:none"
           id="circle22314"
           transform="matrix(0.46966993,0,0,0.46966993,162.5043,209.92901)"
           r="4.5961943"
           cy="432.5831"
           cx="329.1582" />
        <circle
           style="fill:#7a4310;fill-opacity:1;stroke:none"
           id="circle22316"
           transform="matrix(0.46966993,0,0,0.46966993,166.74694,215.93942)"
           r="4.5961943"
           cy="432.5831"
           cx="329.1582" />
        <circle
           style="fill:#7a4310;fill-opacity:1;stroke:none"
           id="circle22318"
           transform="matrix(0.46966993,0,0,0.46966993,154.37257,215.93942)"
           r="4.5961943"
           cy="432.5831"
           cx="329.1582" />
        <circle
           style="fill:#7a4310;fill-opacity:1;stroke:none"
           id="circle22320"
           transform="matrix(0.46966993,0,0,0.46966993,154.37257,222.65693)"
           r="4.5961943"
           cy="432.5831"
           cx="329.1582" />
        <circle
           style="fill:#7a4310;fill-opacity:1;stroke:none"
           id="circle22322"
           transform="matrix(0.46966993,0,0,0.46966993,143.41241,222.65693)"
           r="4.5961943"
           cy="432.5831"
           cx="329.1582" />
        <circle
           style="fill:#7a4310;fill-opacity:1;stroke:none"
           id="circle22324"
           transform="matrix(0.46966993,0,0,0.46966993,143.41241,217.35363)"
           r="4.5961943"
           cy="432.5831"
           cx="329.1582" />
      </g>
      <g
         id="g22326"
         transform="translate(176.67115,-24.8346)">
        <circle
           style="fill:#7a4310;fill-opacity:1;stroke:none"
           id="circle22328"
           transform="matrix(0.46966993,0,0,0.46966993,162.5043,209.92901)"
           r="4.5961943"
           cy="432.5831"
           cx="329.1582" />
        <circle
           style="fill:#7a4310;fill-opacity:1;stroke:none"
           id="circle22330"
           transform="matrix(0.46966993,0,0,0.46966993,166.74694,215.93942)"
           r="4.5961943"
           cy="432.5831"
           cx="329.1582" />
        <circle
           style="fill:#7a4310;fill-opacity:1;stroke:none"
           id="circle22332"
           transform="matrix(0.46966993,0,0,0.46966993,154.37257,215.93942)"
           r="4.5961943"
           cy="432.5831"
           cx="329.1582" />
        <circle
           style="fill:#7a4310;fill-opacity:1;stroke:none"
           id="circle22334"
           transform="matrix(0.46966993,0,0,0.46966993,154.37257,222.65693)"
           r="4.5961943"
           cy="432.5831"
           cx="329.1582" />
        <circle
           style="fill:#7a4310;fill-opacity:1;stroke:none"
           id="circle22336"
           transform="matrix(0.46966993,0,0,0.46966993,143.41241,222.65693)"
           r="4.5961943"
           cy="432.5831"
           cx="329.1582" />
        <circle
           style="fill:#7a4310;fill-opacity:1;stroke:none"
           id="circle22338"
           transform="matrix(0.46966993,0,0,0.46966993,143.41241,217.35363)"
           r="4.5961943"
           cy="432.5831"
           cx="329.1582" />
      </g>
      <g
         id="g22340"
         transform="matrix(0.98876601,-0.14947168,0.14947168,0.98876601,73.95202,-136.8346)">
        <circle
           style="fill:#7a4310;fill-opacity:1;stroke:none"
           id="circle22342"
           transform="matrix(0.46966993,0,0,0.46966993,162.5043,209.92901)"
           r="4.5961943"
           cy="432.5831"
           cx="329.1582" />
        <circle
           style="fill:#7a4310;fill-opacity:1;stroke:none"
           id="circle22344"
           transform="matrix(0.46966993,0,0,0.46966993,166.74694,215.93942)"
           r="4.5961943"
           cy="432.5831"
           cx="329.1582" />
        <circle
           style="fill:#7a4310;fill-opacity:1;stroke:none"
           id="circle22346"
           transform="matrix(0.46966993,0,0,0.46966993,154.37257,215.93942)"
           r="4.5961943"
           cy="432.5831"
           cx="329.1582" />
        <circle
           style="fill:#7a4310;fill-opacity:1;stroke:none"
           id="circle22348"
           transform="matrix(0.46966993,0,0,0.46966993,154.37257,222.65693)"
           r="4.5961943"
           cy="432.5831"
           cx="329.1582" />
        <circle
           style="fill:#7a4310;fill-opacity:1;stroke:none"
           id="circle22350"
           transform="matrix(0.46966993,0,0,0.46966993,143.41241,222.65693)"
           r="4.5961943"
           cy="432.5831"
           cx="329.1582" />
        <circle
           style="fill:#7a4310;fill-opacity:1;stroke:none"
           id="circle22352"
           transform="matrix(0.46966993,0,0,0.46966993,143.41241,217.35363)"
           r="4.5961943"
           cy="432.5831"
           cx="329.1582" />
      </g>
      <g
         id="g22354"
         transform="translate(66.67115,-195.8346)">
        <circle
           style="fill:#7a4310;fill-opacity:1;stroke:none"
           id="circle22356"
           transform="matrix(0.46966993,0,0,0.46966993,162.5043,209.92901)"
           r="4.5961943"
           cy="432.5831"
           cx="329.1582" />
        <circle
           style="fill:#7a4310;fill-opacity:1;stroke:none"
           id="circle22358"
           transform="matrix(0.46966993,0,0,0.46966993,166.74694,215.93942)"
           r="4.5961943"
           cy="432.5831"
           cx="329.1582" />
        <circle
           style="fill:#7a4310;fill-opacity:1;stroke:none"
           id="circle22360"
           transform="matrix(0.46966993,0,0,0.46966993,154.37257,215.93942)"
           r="4.5961943"
           cy="432.5831"
           cx="329.1582" />
        <circle
           style="fill:#7a4310;fill-opacity:1;stroke:none"
           id="circle22362"
           transform="matrix(0.46966993,0,0,0.46966993,154.37257,222.65693)"
           r="4.5961943"
           cy="432.5831"
           cx="329.1582" />
        <circle
           style="fill:#7a4310;fill-opacity:1;stroke:none"
           id="circle22364"
           transform="matrix(0.46966993,0,0,0.46966993,143.41241,222.65693)"
           r="4.5961943"
           cy="432.5831"
           cx="329.1582" />
        <circle
           style="fill:#7a4310;fill-opacity:1;stroke:none"
           id="circle22366"
           transform="matrix(0.46966993,0,0,0.46966993,143.41241,217.35363)"
           r="4.5961943"
           cy="432.5831"
           cx="329.1582" />
      </g>
      <g
         id="g22368"
         transform="matrix(-2.0494079,0,0,2.0494079,2511.91,-7444.4133)">
        <path
           style="fill:#ffffff;fill-opacity:1;stroke:none"
           id="path22370"
           d="m 1023.3165,3774.8799 c 0,4.7864 -12.2529,8.6666 -27.36753,8.6666 -15.11466,0 -27.36751,-3.8802 -27.36751,-8.6666 0,-4.7865 12.25285,-8.6666 27.36751,-8.6666 15.11463,0 27.36753,3.8801 27.36753,8.6666 z"
           inkscape:connector-curvature="0" />
        <path
           style="fill:#936218;fill-opacity:1;stroke:none"
           id="path22372"
           d="m 995.94444,3766.2088 c -1.88933,0 -3.72685,0.07 -5.50841,0.1851 -0.004,0 -0.0107,0 -0.0142,0 -2.93072,1.638 -4.91059,4.7592 -4.91059,8.3551 0,3.8169 2.23525,7.1146 5.4657,8.654 1.61543,0.094 3.26619,0.1424 4.96753,0.1424 1.03373,0 2.05627,-0.021 3.06022,-0.057 3.32921,-1.5006 5.65071,-4.8506 5.65071,-8.7395 0,-3.6707 -2.0642,-6.8466 -5.0956,-8.4547 -1.18387,-0.05 -2.38875,-0.086 -3.61533,-0.086 z"
           inkscape:connector-curvature="0" />
        <path
           style="fill:#0d0d0d;fill-opacity:1;fill-rule:nonzero;stroke:none"
           id="path22374"
           d="m 999.13867,3774.9126 c 0,2.1181 -1.71703,3.8351 -3.83509,3.8351 -2.11807,0 -3.83509,-1.717 -3.83509,-3.8351 0,-2.1181 1.71702,-3.8351 3.83509,-3.8351 2.11806,0 3.83509,1.717 3.83509,3.8351 z"
           inkscape:connector-curvature="0" />
        <path
           style="fill:#ffffff;fill-opacity:1;fill-rule:nonzero;stroke:none"
           id="path22376"
           d="m 994.93652,3770.7551 c 0,0.8589 -0.69629,1.5552 -1.55521,1.5552 -0.85891,0 -1.5552,-0.6963 -1.5552,-1.5552 0,-0.8589 0.69629,-1.5552 1.5552,-1.5552 0.85892,0 1.55521,0.6963 1.55521,1.5552 z"
           inkscape:connector-curvature="0" />
        <path
           style="opacity:0.39024389;fill:#f0f2fd;fill-opacity:1;stroke:none"
           id="path22378"
           d="m 994.10863,3781.2952 c 6.25017,-0.7396 8.04487,-3.8554 7.15257,-8.4043 -0.8425,-1.509 1.9783,-4.2225 2.3246,1.8776 -0.4529,5.9045 -3.76246,7.5881 -7.51021,8.0467 -4.12848,0.3399 -5.68449,-1.4109 -1.96696,-1.52 z"
           inkscape:connector-curvature="0" />
        <path
           style="fill:#d4d4d4;fill-opacity:1;stroke:none"
           class="EyeBlink"
           id="rightEyeLid"
           d="m 1023.3165,3774.8799 c 0,0.5842 -12.2529,-6.8903 -27.36754,-6.8903 -15.11466,0 -27.21452,7.4612 -27.3675,6.8903 -1.23883,-4.6234 12.25284,-8.6667 27.3675,-8.6667 15.11464,0 27.36754,3.8802 27.36754,8.6667 z"
           inkscape:connector-curvature="0" />
      </g>
      <g
         id="g22382"
         transform="matrix(-2.0494079,0,0,2.0494079,2391.7018,-7444.4133)">
        <path
           style="fill:#ffffff;fill-opacity:1;stroke:none"
           id="path22384"
           d="m 1023.3165,3774.8799 c 0,4.7864 -12.2529,8.6666 -27.36753,8.6666 -15.11466,0 -27.36751,-3.8802 -27.36751,-8.6666 0,-4.7865 12.25285,-8.6666 27.36751,-8.6666 15.11463,0 27.36753,3.8801 27.36753,8.6666 z"
           inkscape:connector-curvature="0" />
        <path
           style="fill:#936218;fill-opacity:1;stroke:none"
           id="path22386"
           d="m 995.94444,3766.2088 c -1.88933,0 -3.72685,0.07 -5.50841,0.1851 -0.004,0 -0.0107,0 -0.0142,0 -2.93072,1.638 -4.91059,4.7592 -4.91059,8.3551 0,3.8169 2.23525,7.1146 5.4657,8.654 1.61543,0.094 3.26619,0.1424 4.96753,0.1424 1.03373,0 2.05627,-0.021 3.06022,-0.057 3.32921,-1.5006 5.65071,-4.8506 5.65071,-8.7395 0,-3.6707 -2.0642,-6.8466 -5.0956,-8.4547 -1.18387,-0.05 -2.38875,-0.086 -3.61533,-0.086 z"
           inkscape:connector-curvature="0" />
        <path
           style="fill:#0d0d0d;fill-opacity:1;fill-rule:nonzero;stroke:none"
           id="path22388"
           d="m 999.13867,3774.9126 c 0,2.1181 -1.71703,3.8351 -3.83509,3.8351 -2.11807,0 -3.83509,-1.717 -3.83509,-3.8351 0,-2.1181 1.71702,-3.8351 3.83509,-3.8351 2.11806,0 3.83509,1.717 3.83509,3.8351 z"
           inkscape:connector-curvature="0" />
        <path
           style="fill:#ffffff;fill-opacity:1;fill-rule:nonzero;stroke:none"
           id="path22390"
           d="m 994.93652,3770.7551 c 0,0.8589 -0.69629,1.5552 -1.55521,1.5552 -0.85891,0 -1.5552,-0.6963 -1.5552,-1.5552 0,-0.8589 0.69629,-1.5552 1.5552,-1.5552 0.85892,0 1.55521,0.6963 1.55521,1.5552 z"
           inkscape:connector-curvature="0" />
        <path
           style="opacity:0.39024389;fill:#f0f2fd;fill-opacity:1;stroke:none"
           id="path22392"
           d="m 994.10863,3781.2952 c 6.25017,-0.7396 8.04487,-3.8554 7.15257,-8.4043 -0.8425,-1.509 1.9783,-4.2225 2.3246,1.8776 -0.4529,5.9045 -3.76246,7.5881 -7.51021,8.0467 -4.12848,0.3399 -5.68449,-1.4109 -1.96696,-1.52 z"
           inkscape:connector-curvature="0" />
        <path
           style="fill:#d4d4d4;fill-opacity:1;stroke:none"
           class="EyeBlink"
           id="leftEyeLid"
           d="m 1023.3165,3774.8799 c 0,0.5842 -12.2529,-6.8903 -27.36754,-6.8903 -15.11466,0 -27.21452,7.4612 -27.3675,6.8903 -1.23883,-4.6234 12.25284,-8.6667 27.3675,-8.6667 15.11464,0 27.36754,3.8802 27.36754,8.6667 z"
           inkscape:connector-curvature="0" />
      </g>
      <g
         id="g22396"
         transform="matrix(0.28903867,0,0,0.28412529,1011.9836,259.6747)">
        <path
           style="fill:#e27f22;fill-opacity:1;stroke:none"
           id="path22398"
           d="m -2437.6793,273.46658 c 237.5504,52.58521 475.1009,85.57866 712.6513,-31.16551 l -38.4374,238.93558 c -267.8534,183.49394 -441.8143,123.85168 -655.5147,31.16552 z"
           inkscape:connector-curvature="0" />
        <ellipse
           style="fill:#1b1b1b;fill-opacity:1;fill-rule:nonzero;stroke:none"
           id="ellipse22400"
           transform="matrix(0.88438134,0,0,1,-52.348857,-11.313708)"
           ry="92.630989"
           rx="348.60364"
           cy="447.78589"
           cx="-2305.8752" />
        <path
           style="fill:#e5e5e5;fill-opacity:1;stroke:#262626;stroke-width:0.67185748;stroke-opacity:1"
           id="path22402"
           d="m -1813.0061,502.13351 6.7629,-101.56054 c 10.8493,-2.29507 46.7805,-23.46218 50.2577,-18.43059 l -15.3436,93.06103 c -1.2086,4.55263 -31.0471,31.05284 -41.677,26.9301 z"
           inkscape:connector-curvature="0" />
        <path
           style="fill:#e5e5e5;fill-opacity:1;stroke:#262626;stroke-width:0.9493233;stroke-opacity:1"
           id="path22404"
           d="m -1798.2248,284.63088 -7.6272,110.33573 c 15.1194,1.9794 45.619,-19.50771 51.2178,-22.50415 l 18.0166,-115.12475 c -19.3656,1.69138 -56.4363,23.23542 -61.6072,27.29317 z"
           inkscape:connector-curvature="0" />
        <path
           style="fill:#e5e5e5;fill-opacity:1;stroke:#262626;stroke-width:0.92797977;stroke-opacity:1"
           id="path22406"
           d="m -1865.9736,534.35116 4.3,-109.56359 c 12.3689,-2.47058 46.2092,-24.08041 55.2816,-20.35144 l -6.9865,103.94765 c -20.6308,11.01138 -48.3637,28.61339 -52.5951,25.96738 z"
           inkscape:connector-curvature="0" />
        <path
           style="fill:#e5e5e5;fill-opacity:1;stroke:#262626;stroke-width:1.03469741;stroke-opacity:1"
           id="path22408"
           d="m -1861.3676,415.31264 c 16.4791,2.15741 49.3154,-16.66184 55.4176,-19.92775 l 7.1653,-113.1136 c -21.8016,3.97192 -54.748,19.7611 -58.0071,20.62718 -0.3641,31.58533 -3.5497,80.84186 -4.5759,112.41417 z"
           inkscape:connector-curvature="0" />
        <path
           style="fill:#e5e5e5;fill-opacity:1;stroke:#262626;stroke-width:1.55430305;stroke-opacity:1"
           id="path22410"
           d="m -2001.0845,581.30701 2.5674,-124.0783 c 21.6774,-5.20749 62.5516,-15.09924 87.2239,-16.42174 l -1.6442,113.42733 c -17.8527,14.76499 -40.4531,18.76448 -88.1471,27.07271 z"
           inkscape:connector-curvature="0" />
        <path
           style="fill:#e5e5e5;fill-opacity:1;stroke:#262626;stroke-width:1.03469741;stroke-opacity:1"
           id="path22412"
           d="m -1911.8753,430.21239 c 16.4791,2.15741 44.2647,-10.34839 50.367,-13.61429 l 4.1348,-114.12376 c -21.2966,-2.08899 -50.4549,12.69003 -53.714,13.55611 -2.1578,35.60633 2.0354,75.64486 -0.7878,114.18194 z"
           inkscape:connector-curvature="0" />
        <path
           style="fill:#e5e5e5;fill-opacity:1;stroke:#262626;stroke-width:0.92797977;stroke-opacity:1"
           id="path22414"
           d="m -1913.1982,555.05929 1.017,-114.86689 c 6.1726,-3.01077 37.9748,-16.89951 50.9885,-13.02783 l -4.9663,108.49333 c -8.0479,6.40337 -43.8824,20.17814 -47.0392,19.40139 z"
           inkscape:connector-curvature="0" />
        <path
           style="fill:#e5e5e5;fill-opacity:1;stroke:#262626;stroke-width:1.36003351;stroke-opacity:1"
           id="path22416"
           d="m -1996.0726,333.34728 0.2975,114.80831 c 18.2087,5.44737 84.0444,-11.50725 83.911,-17.77373 l 1.2513,-110.92028 c -3.5589,-0.88829 -65.6292,-2.79946 -85.4598,13.8857 z"
           inkscape:connector-curvature="0" />
        <path
           style="fill:#e5e5e5;fill-opacity:1;stroke:#262626;stroke-width:1.55430305;stroke-opacity:1"
           id="path22418"
           d="m -2081.7382,336.62142 -2.3608,116.52137 c 20.5164,6.17493 58.0188,-0.0904 86.871,-2.25121 l 1.5701,-110.28448 c -22.3177,-19.25047 -56.4803,-17.6589 -86.0803,-3.98568 z"
           inkscape:connector-curvature="0" />
        <path
           style="fill:#e5e5e5;fill-opacity:1;stroke:#262626;stroke-width:1.55430305;stroke-opacity:1"
           id="path22420"
           d="m -2086.2839,591.30518 2.1849,-128.13814 c 20.5164,-6.17493 56.5036,-4.45526 85.3558,-2.29447 l -3.4807,122.48753 c -21.2414,6.40057 -58.4236,18.94352 -84.06,7.94508 z"
           inkscape:connector-curvature="0" />
        <path
           style="fill:#e5e5e5;fill-opacity:1;stroke:#262626;stroke-width:1.55430305;stroke-opacity:1"
           id="path22422"
           d="m -2173.157,584.73919 0.6696,-125.61276 c 20.5165,-6.17493 59.5341,0.5955 88.3863,2.75629 l -1.9654,128.46723 c -30.0525,13.32929 -68.4855,-1.96381 -87.0905,-5.61076 z"
           inkscape:connector-curvature="0" />
        <path
           style="fill:#e5e5e5;fill-opacity:1;stroke:#262626;stroke-width:1.55430305;stroke-opacity:1"
           id="path22424"
           d="m -2171.1367,336.11634 -1.3507,107.93508 c 22.122,14.20239 61.6088,14.32381 89.3964,6.84016 l 0.56,-105.23372 c 5.5555,-18.02765 -48.8803,-25.916 -88.6057,-9.54152 z"
           inkscape:connector-curvature="0" />
        <path
           style="fill:#e5e5e5;fill-opacity:1;stroke:#262626;stroke-width:1.03469741;stroke-opacity:1"
           id="path22426"
           d="m -2410.3554,509.51566 -8.869,-115.44462 c 10.4092,3.28745 53.9244,11.40035 55.9228,18.41251 l 3.8822,117.15422 c -12.4577,0.8263 -47.6769,-19.25603 -50.936,-20.12211 z"
           inkscape:connector-curvature="0" />
        <path
           style="fill:#e5e5e5;fill-opacity:1;stroke:#262626;stroke-width:1.03469741;stroke-opacity:1"
           id="path22428"
           d="m -2359.8477,530.72887 -3.3132,-118.22255 c 18.4605,0.48452 56.425,15.87145 60.4684,16.39221 l 3.6298,125.48797 c -23.7296,-3.76728 -57.4002,-23.26915 -60.785,-23.65763 z"
           inkscape:connector-curvature="0" />
        <path
           style="fill:#e5e5e5;fill-opacity:1;stroke:#262626;stroke-width:1.03469741;stroke-opacity:1"
           id="path22430"
           d="m -2298.7335,553.96237 -3.8183,-124.78853 c 16.4791,-2.15741 49.8205,10.85346 55.9228,14.11936 l 4.1348,127.76082 c -23.9158,2.76773 -52.3525,-14.15841 -56.2393,-17.09165 z"
           inkscape:connector-curvature="0" />
        <path
           style="fill:#e5e5e5;fill-opacity:1;stroke:#262626;stroke-width:1.55430305;stroke-opacity:1"
           id="path22432"
           d="m -2242.7678,571.03656 -3.4607,-126.25705 c 24.7546,-3.24082 62.7,7.95799 71.8667,12.86397 l 0.3941,128.19547 c -45.1191,-0.087 -64.285,-15.46649 -68.8001,-14.80239 z"
           inkscape:connector-curvature="0" />
        <path
           style="fill:#e5e5e5;fill-opacity:1;stroke:#262626;stroke-width:1.55430305;stroke-opacity:1"
           id="path22434"
           d="m -2249.9286,320.71151 3.7001,118.28914 c 20.5165,6.17494 43.3717,10.01111 72.2238,7.85032 l 1.5701,-110.28448 c -27.3895,-21.19322 -54.2868,-14.79943 -77.494,-15.85498 z"
           inkscape:connector-curvature="0" />
        <path
           style="fill:#e5e5e5;fill-opacity:1;stroke:#262626;stroke-width:1.03469741;stroke-opacity:1"
           id="path22436"
           d="m -2306.3096,311.48477 3.0002,110.89893 c 15.2164,7.20818 50.8307,15.66305 56.9329,12.39714 l -3.4413,-114.37629 c -22.4888,-9.3323 -47.3124,-12.94338 -56.4918,-8.91978 z"
           inkscape:connector-curvature="0" />
        <path
           style="fill:#e5e5e5;fill-opacity:1;stroke:#262626;stroke-width:1.03469741;stroke-opacity:1"
           id="path22438"
           d="m -2366.9188,299.1104 4.0104,106.85833 c 14.9639,8.97594 54.1137,18.18843 60.2159,14.92252 l -3.9464,-109.57807 c -25.6377,-9.3045 -55.3327,-16.86702 -60.2799,-12.20278 z"
           inkscape:connector-curvature="0" />
        <path
           style="fill:#e5e5e5;fill-opacity:1;stroke:#262626;stroke-width:1.03469741;stroke-opacity:1"
           id="path22440"
           d="m -2427.5279,285.72588 7.7984,101.04995 c 10.4182,8.21833 50.0731,21.21888 56.1753,17.95297 l -3.6938,-105.78999 c -23.6529,-7.13976 -38.6729,-14.079 -60.2799,-13.21293 z"
           inkscape:connector-curvature="0" />
      </g>
    </g>
  </g>
</svg>
