<?xml version="1.0" encoding="UTF-8" standalone="no"?>
<svg
   xmlns:dc="http://purl.org/dc/elements/1.1/"
   xmlns:cc="http://creativecommons.org/ns#"
   xmlns:rdf="http://www.w3.org/1999/02/22-rdf-syntax-ns#"
   xmlns:svg="http://www.w3.org/2000/svg"
   xmlns="http://www.w3.org/2000/svg"
   xmlns:xlink="http://www.w3.org/1999/xlink"
   xmlns:sodipodi="http://sodipodi.sourceforge.net/DTD/sodipodi-0.dtd"
   xmlns:inkscape="http://www.inkscape.org/namespaces/inkscape"
   version="1.1"
   id="svg13426"
   viewBox="0 0 1194.62 768.89769"
   height="768.89764"
   width="1194.62"
   inkscape:version="0.91 r13725"
   sodipodi:docname="stage.svg">
  <sodipodi:namedview
     pagecolor="#ffffff"
     bordercolor="#666666"
     borderopacity="1"
     objecttolerance="10"
     gridtolerance="10"
     guidetolerance="10"
     inkscape:pageopacity="0"
     inkscape:pageshadow="2"
     inkscape:window-width="1366"
     inkscape:window-height="715"
     id="namedview1078"
     showgrid="false"
     inkscape:zoom="0.49388005"
     inkscape:cx="495.13129"
     inkscape:cy="560.50288"
     inkscape:window-x="-8"
     inkscape:window-y="-8"
     inkscape:window-maximized="1"
     inkscape:current-layer="svg13426" />
  <defs
     id="defs13428">
    <linearGradient
       y2="1710.9817"
       x2="-606.09155"
       y1="1189.7429"
       x1="-610.13214"
       gradientTransform="matrix(1.0084541,0,0,1.0084541,327.67138,-286.6726)"
       gradientUnits="userSpaceOnUse"
       id="linearGradient22188"
       xlink:href="#linearGradient5527" />
    <linearGradient
       id="linearGradient5527">
      <stop
         id="stop5529"
         offset="0"
         style="stop-color:#006acb;stop-opacity:1;" />
      <stop
         id="stop5531"
         offset="1"
         style="stop-color:#ffffff;stop-opacity:1;" />
    </linearGradient>
    <linearGradient
       y2="580.93359"
       x2="28.571428"
       y1="9.5050402"
       x1="20"
       gradientTransform="matrix(0.90831969,0,0,0.59996335,-404.65385,1311.8176)"
       gradientUnits="userSpaceOnUse"
       id="linearGradient22190"
       xlink:href="#linearGradient5613" />
    <linearGradient
       id="linearGradient5613">
      <stop
         id="stop5615"
         offset="0"
         style="stop-color:#2c873b;stop-opacity:1;" />
      <stop
         id="stop5617"
         offset="1"
         style="stop-color:#2cca1d;stop-opacity:1;" />
    </linearGradient>
    <linearGradient
       inkscape:collect="always"
       xlink:href="#linearGradient5613"
       id="linearGradient5118"
       gradientUnits="userSpaceOnUse"
       gradientTransform="matrix(0.90831969,0,0,0.59996335,515.14314,427.65515)"
       x1="20"
       y1="9.5050402"
       x2="28.571428"
       y2="580.93359" />
    <linearGradient
       inkscape:collect="always"
       xlink:href="#linearGradient5527"
       id="linearGradient5123"
       gradientUnits="userSpaceOnUse"
       gradientTransform="matrix(1.0084541,0,0,1.0084541,1247.4684,-1170.8351)"
       x1="-610.13214"
       y1="1189.7429"
       x2="-606.09155"
       y2="1710.9817" />
    <linearGradient
       inkscape:collect="always"
       id="linearGradient6071">
      <stop
         style="stop-color:#ffffff;stop-opacity:1;"
         offset="0"
         id="stop6073" />
      <stop
         style="stop-color:#ffffff;stop-opacity:0;"
         offset="1"
         id="stop6075" />
    </linearGradient>
    <linearGradient
       inkscape:collect="always"
       xlink:href="#linearGradient6071"
       id="linearGradient6091"
       x1="592.10309"
       y1="678.95221"
       x2="589.24591"
       y2="857.52368"
       gradientUnits="userSpaceOnUse" />
    <linearGradient
       inkscape:collect="always"
       xlink:href="#linearGradient6071"
       id="linearGradient6103"
       gradientUnits="userSpaceOnUse"
       x1="664.24744"
       y1="724.3822"
       x2="665.25757"
       y2="826.91266"
       gradientTransform="translate(-4.5456865,16.162441)" />
    <linearGradient
       inkscape:collect="always"
       xlink:href="#linearGradient6071"
       id="linearGradient6105"
       gradientUnits="userSpaceOnUse"
       x1="570.80829"
       y1="652.15625"
       x2="571.81842"
       y2="754.68677"
       gradientTransform="translate(88.893424,88.388348)" />
    <linearGradient
       inkscape:collect="always"
       xlink:href="#linearGradient6071"
       id="linearGradient6107"
       gradientUnits="userSpaceOnUse"
       x1="708.69409"
       y1="740.54462"
       x2="709.70428"
       y2="843.07513"
       gradientTransform="translate(-48.992398,0)" />
    <linearGradient
       inkscape:collect="always"
       xlink:href="#linearGradient6071"
       id="linearGradient6111"
       gradientUnits="userSpaceOnUse"
       x1="659.70172"
       y1="740.54462"
       x2="660.71185"
       y2="843.07513" />
    <linearGradient
       inkscape:collect="always"
       xlink:href="#linearGradient6071"
       id="linearGradient6113"
       gradientUnits="userSpaceOnUse"
       x1="592.10309"
       y1="678.95221"
       x2="589.24591"
       y2="857.52368"
       gradientTransform="translate(-144.95689,-191.92898)" />
    <linearGradient
       inkscape:collect="always"
       xlink:href="#linearGradient6071"
       id="linearGradient6115"
       gradientUnits="userSpaceOnUse"
       x1="489.99609"
       y1="723.87708"
       x2="491.00623"
       y2="826.40759"
       gradientTransform="translate(169.70563,16.667517)" />
    <linearGradient
       inkscape:collect="always"
       xlink:href="#linearGradient6071"
       id="linearGradient6117"
       gradientUnits="userSpaceOnUse"
       gradientTransform="translate(156.57365,91.923882)"
       x1="503.12808"
       y1="648.62073"
       x2="504.13821"
       y2="751.15125" />
    <linearGradient
       inkscape:collect="always"
       xlink:href="#linearGradient6071"
       id="linearGradient6119"
       gradientUnits="userSpaceOnUse"
       gradientTransform="translate(-15.657358,90.408653)"
       x1="675.35907"
       y1="650.13599"
       x2="676.3692"
       y2="752.66644" />
    <linearGradient
       inkscape:collect="always"
       xlink:href="#linearGradient6071"
       id="linearGradient6121"
       gradientUnits="userSpaceOnUse"
       gradientTransform="translate(-33.335027,80.307128)"
       x1="693.03674"
       y1="660.23749"
       x2="694.04688"
       y2="762.76801" />
    <linearGradient
       inkscape:collect="always"
       xlink:href="#linearGradient6071"
       id="linearGradient6123"
       gradientUnits="userSpaceOnUse"
       x1="555.86005"
       y1="684.50372"
       x2="557.07068"
       y2="807.38275"
       gradientTransform="matrix(0.83440176,0,0,0.83440176,195.89112,169.39352)" />
    <linearGradient
       inkscape:collect="always"
       xlink:href="#linearGradient6071"
       id="linearGradient6125"
       gradientUnits="userSpaceOnUse"
       gradientTransform="matrix(0.83440176,0,0,0.83440176,184.77944,167.87829)"
       x1="569.177"
       y1="686.31964"
       x2="570.38763"
       y2="809.19873" />
    <linearGradient
       inkscape:collect="always"
       xlink:href="#linearGradient6071"
       id="linearGradient6127"
       gradientUnits="userSpaceOnUse"
       gradientTransform="matrix(0.83440176,0,0,0.83440176,189.8302,172.92905)"
       x1="563.12384"
       y1="680.26648"
       x2="564.33447"
       y2="803.14557" />
    <linearGradient
       inkscape:collect="always"
       xlink:href="#linearGradient6071"
       id="linearGradient6129"
       gradientUnits="userSpaceOnUse"
       gradientTransform="matrix(0.46437437,0,0,0.46437437,421.73276,451.5291)"
       x1="512.45068"
       y1="622.3761"
       x2="514.62598"
       y2="843.16888" />
  </defs>
  <metadata
     id="metadata13431">
    <rdf:RDF>
      <cc:Work
         rdf:about="">
        <dc:format>image/svg+xml</dc:format>
        <dc:type
           rdf:resource="http://purl.org/dc/dcmitype/StillImage" />
        <dc:title></dc:title>
      </cc:Work>
    </rdf:RDF>
  </metadata>
  <path
     inkscape:connector-curvature="0"
     style="fill:url(#linearGradient5123);fill-opacity:1;fill-rule:nonzero;stroke:none"
     d="m 1194.7061,612.77155 c -24.513,0.1042 -1194.95932,-12.7864 -1194.95932,-12.7864 0.009,-11.4092 0.21312,-599.98548 0.21312,-599.98548 0,0 1181.8335,0.0549 1194.8464,-0.0245 -0.038,9.06857 -1.4339,413.57318 -0.1002,612.79638 z"
     id="path20236" />
  <path
     inkscape:connector-curvature="0"
     id="path20242"
     d="m 335.24554,429.66115 c 154.4149,38.6185 334.98165,61.30659 495.33241,1.7141 71.23474,-26.47356 260.66405,-52.46272 364.12455,1.0474 -0.032,23.3742 0.096,319.5802 -0.046,336.5134 L 0.20536,769.60565 c 0.3621,-26.5604 -0.20242,-229.8613 -0.20242,-337.01 15.26291,-9.5432 165.84182,-45.3009 335.24262,-2.9346 z"
     style="fill:url(#linearGradient5118);fill-opacity:1;fill-rule:nonzero;stroke:none"
     sodipodi:nodetypes="cscccccc" />
  <g
     id="g4446"
     transform="matrix(2.205563,0,0,2.205563,-731.94588,-888.47408)">
    <ellipse
       id="path22014"
       style="color:#000000;display:inline;overflow:visible;visibility:visible;fill:#000000;fill-opacity:0.14893619;fill-rule:nonzero;stroke:none;enable-background:accumulate"
       cx="594.34045"
       cy="715.83521"
       rx="15.714286"
       ry="8.5714283" />
    <ellipse
       style="color:#000000;display:inline;overflow:visible;visibility:visible;fill:#000000;fill-opacity:0.14893619;fill-rule:nonzero;stroke:none;enable-background:accumulate"
       id="path22016"
       cx="613.53333"
       cy="731.63037"
       rx="7.6330652"
       ry="4.1634898" />
    <ellipse
       id="path22018"
       style="color:#000000;display:inline;overflow:visible;visibility:visible;fill:#000000;fill-opacity:0.14893619;fill-rule:nonzero;stroke:none;enable-background:accumulate"
       cx="557.21735"
       cy="712.9425"
       rx="4.8551459"
       ry="2.6482613" />
    <ellipse
       ry="6.7654862"
       rx="12.403393"
       cy="717.28326"
       cx="594.01233"
       style="color:#000000;display:inline;overflow:visible;visibility:visible;fill:#000000;fill-opacity:0.14893619;fill-rule:nonzero;stroke:none;enable-background:accumulate"
       id="ellipse4444" />
  </g>
  <use
     x="0"
     y="0"
     xlink:href="#g4446"
     id="use4176"
     transform="translate(540.19585,-27.405202)"
     width="100%"
     height="100%" />
  <use
     x="0"
     y="0"
     xlink:href="#g4446"
     id="use4178"
     transform="matrix(0.83911112,0,0,0.83911112,-259.89475,12.862535)"
     width="100%"
     height="100%" />
  <use
     x="0"
     y="0"
     xlink:href="#g4446"
     id="use4180"
     transform="matrix(0.51733336,0,0,0.51733336,141.59222,151.97547)"
     width="100%"
     height="100%" />
  <use
     x="0"
     y="0"
     xlink:href="#g4446"
     id="use4182"
     transform="matrix(0.54951113,0,0,0.54951113,541.024,83.799982)"
     width="100%"
     height="100%" />
  <use
     x="0"
     y="0"
     xlink:href="#g4446"
     id="use4184"
     transform="matrix(0.48279755,0,0,0.48279755,-224.29626,114.42071)"
     width="100%"
     height="100%" />
  <g
     transform="matrix(0.50111242,0,0,0.50111239,647.95836,-132.24031)"
     id="g6283">
    <path
       inkscape:connector-curvature="0"
       style="fill:#ffffff;fill-opacity:1;fill-rule:nonzero;stroke:none"
       d="m 582.37537,520.4775 c -16.47151,0 -30.15279,7.84462 -33.09375,18.21875 -11.18803,2.81782 -19.375,11.90537 -19.375,22.6875 0,8.27563 4.82262,15.56939 12.125,19.78125 -0.0527,0.62735 -0.0937,1.26572 -0.0937,1.90625 0,12.7655 10.67934,23.09375 23.84375,23.09375 5.70292,0 10.92885,-1.9169 15.03125,-5.15625 4.49671,1.75736 9.62135,2.75 15.0625,2.75 8.11866,0 15.51681,-2.21771 21.1875,-5.875 1.45351,0.36793 2.98112,0.59375 4.5625,0.59375 9.44114,0 17.09375,-7.01295 17.09375,-15.65625 0,-4.09344 -1.72107,-7.80491 -4.53125,-10.59375 4.30817,-4.21773 6.9375,-9.89359 6.9375,-16.125 0,-13.0314 -11.5218,-23.59375 -25.75,-23.59375 -1.00533,0 -1.99344,0.0536 -2.96875,0.15625 -5.58629,-7.23626 -16.9475,-12.1875 -30.03125,-12.1875 z"
       id="path20618" />
    <g
       id="g6061"
       transform="translate(-3.9285716,-0.71428535)">
      <path
         id="path13367"
         d="m 557.1329,575.16036 c 5.1228,10.32555 13.43389,13.87935 25.53828,9.37625"
         style="fill:none;stroke:#000000;stroke-width:0.48517844px;stroke-linecap:butt;stroke-linejoin:miter;stroke-opacity:0.21938776"
         inkscape:connector-curvature="0" />
      <path
         style="fill:none;stroke:#000000;stroke-width:0.48517844px;stroke-linecap:butt;stroke-linejoin:miter;stroke-opacity:0.21938776"
         d="m 612.07631,542.08096 c 10.29033,5.1933 13.78707,13.5286 9.20138,25.6019"
         id="path13369"
         inkscape:connector-curvature="0" />
      <path
         id="path13371"
         d="m 551.16885,561.30866 c 0.98253,-11.4846 7.4132,-17.8367 20.32569,-18.0827"
         style="fill:none;stroke:#000000;stroke-width:0.48517844px;stroke-linecap:butt;stroke-linejoin:miter;stroke-opacity:0.21938776"
         inkscape:connector-curvature="0" />
      <path
         style="fill:none;stroke:#000000;stroke-width:0.48517844px;stroke-linecap:butt;stroke-linejoin:miter;stroke-opacity:0.21938776"
         d="m 578.6329,578.66031 c 5.1228,10.3256 13.43389,13.8794 25.53828,9.3763"
         id="path13373"
         inkscape:connector-curvature="0" />
      <path
         id="path13375"
         d="m 615.84543,565.47246 c 10.17528,5.4152 13.49043,13.82425 8.644,25.79525"
         style="fill:none;stroke:#000000;stroke-width:0.48517844px;stroke-linecap:butt;stroke-linejoin:miter;stroke-opacity:0.21938776"
         inkscape:connector-curvature="0" />
    </g>
  </g>
  <use
     x="0"
     y="0"
     xlink:href="#g6283"
     id="use4206"
     transform="matrix(0.76659563,0,0,0.76659563,-515.53952,133.09567)"
     width="100%"
     height="100%"
     style="opacity:0.32900002" />
  <use
     x="0"
     y="0"
     xlink:href="#g6283"
     id="use4208"
     transform="translate(-605.6252,-62.996471)"
     width="100%"
     height="100%" />
</svg>
