<?xml version="1.0" encoding="UTF-8" standalone="no"?>
<svg
   xmlns:dc="http://purl.org/dc/elements/1.1/"
   xmlns:cc="http://creativecommons.org/ns#"
   xmlns:rdf="http://www.w3.org/1999/02/22-rdf-syntax-ns#"
   xmlns:svg="http://www.w3.org/2000/svg"
   xmlns="http://www.w3.org/2000/svg"
   xmlns:sodipodi="http://sodipodi.sourceforge.net/DTD/sodipodi-0.dtd"
   xmlns:inkscape="http://www.inkscape.org/namespaces/inkscape"
   width="13.225442mm"
   height="25.144478mm"
   viewBox="0 0 46.861802 89.094606"
   id="svg"
   version="1.1"
   inkscape:version="0.91 r13725"
   sodipodi:docname="grass.svg">
  <defs
     id="defs27678" />
  <sodipodi:namedview
     id="base"
     pagecolor="#ffffff"
     bordercolor="#666666"
     borderopacity="1.0"
     inkscape:pageopacity="0.0"
     inkscape:pageshadow="2"
     inkscape:zoom="3.959798"
     inkscape:cx="13.797338"
     inkscape:cy="41.67795"
     inkscape:document-units="px"
     inkscape:current-layer="layer1"
     showgrid="false"
     fit-margin-top="0"
     fit-margin-left="0"
     fit-margin-right="0"
     fit-margin-bottom="0"
     inkscape:window-width="1366"
     inkscape:window-height="715"
     inkscape:window-x="-8"
     inkscape:window-y="-8"
     inkscape:window-maximized="1" />
  <metadata
     id="metadata27681">
    <rdf:RDF>
      <cc:Work
         rdf:about="">
        <dc:format>image/svg+xml</dc:format>
        <dc:type
           rdf:resource="http://purl.org/dc/dcmitype/StillImage" />
        <dc:title></dc:title>
      </cc:Work>
    </rdf:RDF>
  </metadata>
  <g
     inkscape:label="Layer 1"
     inkscape:groupmode="layer"
     id="layer1"
     transform="translate(289.14519,-519.24347)">
    <g
       style="opacity:1"
       id="g11495"
       transform="translate(129.64577,-752.40293)">
      <path
         sodipodi:nodetypes="cccccccscc"
         style="fill:#464646;fill-opacity:0.18681319;fill-rule:evenodd;stroke:none"
         d="m -405.32079,1309.4151 c -13.41438,12.4139 -14.27924,39.0147 -13.08348,39.3771 4.70597,-11.9171 7.08095,-24.6292 18.31073,-34.3213 -8.99211,11.9136 -11.55298,27.0759 -16.1355,41.2171 7.51666,-11.953 15.71712,-23.3401 21.71344,-36.5511 -3.69785,8.5639 -8.44123,16.9285 -7.05012,26.4625 3.08049,-9.7778 7.60529,-16.2855 13.04918,-20.7123 1.94928,-4.0742 -13.3854,36.5811 -12.6978,35.844 1.38757,-1.4873 22.14488,-48.2 24.44318,-46.6732 -6.78373,-1.8211 -7.60918,4.1466 -28.54963,-4.6428 z"
         id="path11493"
         inkscape:connector-curvature="0" />
      <path
         inkscape:connector-curvature="0"
         id="path11463"
         d="m -407.80794,1314.2517 c -2.42159,-18.1159 13.86969,-39.1621 15.02206,-38.6791 -3.97125,12.1817 -10.24521,23.4899 -7.77166,38.1161 0.66667,-14.9113 8.35939,-28.2258 13.84352,-42.0423 -1.82859,14.0011 -2.76957,28.0021 -6.57143,42.0032 2.61033,-8.9555 4.28802,-18.4239 11.43764,-24.8827 -3.85983,9.4972 -4.52219,17.3956 -3.14992,24.2767 -1.09544,4.3817 13.007,-36.7173 13.06691,-35.7111 0.12091,2.0305 -6.39906,36.8693 -3.655,37.1581 -7.99527,1.5427 -10.48522,6.3385 -32.22212,-0.2389 z"
         style="fill:#1a7c1a;fill-opacity:1;fill-rule:evenodd;stroke:none"
         sodipodi:nodetypes="cccccccscc" />
      <path
         sodipodi:nodetypes="ccc"
         inkscape:connector-curvature="0"
         id="path11465"
         d="m -406.95029,1313.0292 c -2.76092,-10.9327 8.20779,-30.6909 10.98541,-33.2719 -5.8239,10.9403 -9.92033,21.8556 -10.98541,33.2719 z"
         style="fill:#000000;fill-opacity:0.12149533;fill-rule:evenodd;stroke:none;stroke-width:1px;stroke-linecap:butt;stroke-linejoin:miter;stroke-opacity:1" />
      <path
         sodipodi:nodetypes="ccc"
         inkscape:connector-curvature="0"
         id="path11467"
         d="m -400.00549,1313.7868 c 1.29935,-13.5188 6.497,-24.6098 10.48034,-34.9134 -3.54625,11.5322 -7.5327,22.184 -10.48034,34.9134 z"
         style="fill:#000000;fill-opacity:0.12149533;fill-rule:evenodd;stroke:none;stroke-width:1px;stroke-linecap:butt;stroke-linejoin:miter;stroke-opacity:1" />
      <path
         sodipodi:nodetypes="ccc"
         inkscape:connector-curvature="0"
         id="path11469"
         d="m -391.54546,1313.0292 c -1.20314,-4.5606 5.72224,-21.5538 6.7554,-20.14 -3.46813,6.3658 -5.64379,13.1009 -6.7554,20.14 z"
         style="fill:#000000;fill-opacity:0.12149533;fill-rule:evenodd;stroke:none;stroke-width:1px;stroke-linecap:butt;stroke-linejoin:miter;stroke-opacity:1" />
      <path
         sodipodi:nodetypes="ccc"
         inkscape:connector-curvature="0"
         id="path11471"
         d="m -382.95916,1312.3978 c -0.67224,-1.9323 8.96923,-29.526 9.47017,-29.1682 z"
         style="fill:#000000;fill-opacity:0.12149533;fill-rule:evenodd;stroke:none;stroke-width:1px;stroke-linecap:butt;stroke-linejoin:miter;stroke-opacity:1" />
      <path
         style="fill:#000000;fill-opacity:0.12149533;fill-rule:evenodd;stroke:none;stroke-width:1px;stroke-linecap:butt;stroke-linejoin:miter;stroke-opacity:1"
         d="m -405.625,1313.4336 c 10.08212,2.2332 19.52842,1.9232 28.66071,0.3572 -11.26078,4.8474 -19.95516,2.2288 -28.66071,-0.3572 z"
         id="path11473"
         inkscape:connector-curvature="0"
         sodipodi:nodetypes="ccc" />
      <path
         style="fill:#ffffff;fill-opacity:0.12149533;fill-rule:evenodd;stroke:none;stroke-width:1px;stroke-linecap:butt;stroke-linejoin:miter;stroke-opacity:1"
         d="m -389.10715,1287.7193 c -1.67807,5.8226 -3.32721,11.6423 -2.67857,17.2322 z"
         id="path11475"
         inkscape:connector-curvature="0"
         sodipodi:nodetypes="ccc" />
      <path
         style="fill:#ffffff;fill-opacity:0.12149533;fill-rule:evenodd;stroke:none;stroke-width:1px;stroke-linecap:butt;stroke-linejoin:miter;stroke-opacity:1"
         d="m -386.16072,1310.3086 c -2.14799,-4.494 0.15892,-8.9881 0.80357,-13.4821 -0.55951,4.5524 -1.37569,9.1561 -0.80357,13.4821 z"
         id="path11477"
         inkscape:connector-curvature="0"
         sodipodi:nodetypes="ccc" />
      <path
         style="fill:#ffffff;fill-opacity:0.12149533;fill-rule:evenodd;stroke:none;stroke-width:1px;stroke-linecap:butt;stroke-linejoin:miter;stroke-opacity:1"
         d="m -402.5,1309.8622 c -2.2982,-12.3662 3.11212,-18.2572 6.33928,-25.9821 -3.37442,6.8738 -5.81409,15.0719 -6.33928,25.9821 z"
         id="path11479"
         inkscape:connector-curvature="0"
         sodipodi:nodetypes="ccc" />
      <path
         style="fill:#ffffff;fill-opacity:0.12149533;fill-rule:evenodd;stroke:none;stroke-width:1px;stroke-linecap:butt;stroke-linejoin:miter;stroke-opacity:1"
         d="m -377.5,1309.4158 c 0.51176,-1.298 2.19669,-13.9102 2.32143,-13.6607 -1.98073,4.2518 -2.21073,8.9414 -2.32143,13.6607 z"
         id="path11481"
         inkscape:connector-curvature="0"
         sodipodi:nodetypes="ccc" />
    </g>
  </g>
</svg>
