<?xml version="1.0" encoding="UTF-8" standalone="no"?>
<!-- Created with Inkscape (http://www.inkscape.org/) -->

<svg
   xmlns:dc="http://purl.org/dc/elements/1.1/"
   xmlns:cc="http://creativecommons.org/ns#"
   xmlns:rdf="http://www.w3.org/1999/02/22-rdf-syntax-ns#"
   xmlns:svg="http://www.w3.org/2000/svg"
   xmlns="http://www.w3.org/2000/svg"
   xmlns:xlink="http://www.w3.org/1999/xlink"
   xmlns:sodipodi="http://sodipodi.sourceforge.net/DTD/sodipodi-0.dtd"
   xmlns:inkscape="http://www.inkscape.org/namespaces/inkscape"
   width="318.89764"
   height="336.7515"
   id="svg5199"
   version="1.1"
   inkscape:version="0.48.4 r9939"
   sodipodi:docname="clouds2.svg">
  <defs
     id="defs3">
    <linearGradient
       inkscape:collect="always"
       id="linearGradient6071">
      <stop
         style="stop-color:#ffffff;stop-opacity:1;"
         offset="0"
         id="stop6073" />
      <stop
         style="stop-color:#ffffff;stop-opacity:0;"
         offset="1"
         id="stop6075" />
    </linearGradient>
    <linearGradient
       inkscape:collect="always"
       xlink:href="#linearGradient6071"
       id="linearGradient6252"
       gradientUnits="userSpaceOnUse"
       x1="659.70172"
       y1="740.54462"
       x2="660.71185"
       y2="843.07513" />
    <linearGradient
       inkscape:collect="always"
       xlink:href="#linearGradient6071"
       id="linearGradient6255"
       gradientUnits="userSpaceOnUse"
       x1="592.10309"
       y1="678.95221"
       x2="589.24591"
       y2="857.52368"
       gradientTransform="translate(-11.111678,-25.253813)" />
    <linearGradient
       inkscape:collect="always"
       xlink:href="#linearGradient6071"
       id="linearGradient6258"
       gradientUnits="userSpaceOnUse"
       x1="592.10309"
       y1="678.95221"
       x2="589.24591"
       y2="857.52368"
       gradientTransform="translate(-11.111678,4.0406101)" />
    <linearGradient
       inkscape:collect="always"
       xlink:href="#linearGradient6071"
       id="linearGradient6261"
       gradientUnits="userSpaceOnUse"
       x1="659.70172"
       y1="740.54462"
       x2="660.71185"
       y2="843.07513" />
    <linearGradient
       inkscape:collect="always"
       xlink:href="#linearGradient6071"
       id="linearGradient6264"
       gradientUnits="userSpaceOnUse"
       x1="708.69409"
       y1="740.54462"
       x2="709.70428"
       y2="843.07513"
       gradientTransform="translate(-48.992398,0)" />
    <linearGradient
       inkscape:collect="always"
       xlink:href="#linearGradient6071"
       id="linearGradient6267"
       gradientUnits="userSpaceOnUse"
       x1="570.80829"
       y1="652.15625"
       x2="571.81842"
       y2="754.68677"
       gradientTransform="translate(88.893424,88.388348)" />
    <linearGradient
       inkscape:collect="always"
       xlink:href="#linearGradient6071"
       id="linearGradient6270"
       gradientUnits="userSpaceOnUse"
       x1="664.24744"
       y1="724.3822"
       x2="665.25757"
       y2="826.91266"
       gradientTransform="translate(-4.5456865,16.162441)" />
    <linearGradient
       inkscape:collect="always"
       xlink:href="#linearGradient6071"
       id="linearGradient6273"
       gradientUnits="userSpaceOnUse"
       x1="659.70172"
       y1="740.54462"
       x2="660.71185"
       y2="843.07513" />
    <linearGradient
       inkscape:collect="always"
       xlink:href="#linearGradient6071"
       id="linearGradient6314"
       gradientUnits="userSpaceOnUse"
       x1="592.10309"
       y1="678.95221"
       x2="589.24591"
       y2="857.52368"
       gradientTransform="translate(-144.95689,-191.92898)" />
    <linearGradient
       inkscape:collect="always"
       xlink:href="#linearGradient6071"
       id="linearGradient6320"
       gradientUnits="userSpaceOnUse"
       gradientTransform="matrix(0.89677277,0,0,0.89677277,91.449693,-45.042157)"
       x1="592.10309"
       y1="678.95221"
       x2="589.24591"
       y2="857.52368" />
    <linearGradient
       inkscape:collect="always"
       xlink:href="#linearGradient6071"
       id="linearGradient6324"
       gradientUnits="userSpaceOnUse"
       x1="489.99609"
       y1="723.87708"
       x2="491.00623"
       y2="826.40759"
       gradientTransform="translate(169.70563,16.667517)" />
    <linearGradient
       inkscape:collect="always"
       xlink:href="#linearGradient6071"
       id="linearGradient6328"
       gradientUnits="userSpaceOnUse"
       gradientTransform="translate(156.57365,91.923882)"
       x1="503.12808"
       y1="648.62073"
       x2="504.13821"
       y2="751.15125" />
    <linearGradient
       inkscape:collect="always"
       xlink:href="#linearGradient6071"
       id="linearGradient6336"
       gradientUnits="userSpaceOnUse"
       gradientTransform="translate(-15.657358,90.408653)"
       x1="675.35907"
       y1="650.13599"
       x2="676.3692"
       y2="752.66644" />
    <linearGradient
       inkscape:collect="always"
       xlink:href="#linearGradient6071"
       id="linearGradient6340"
       gradientUnits="userSpaceOnUse"
       gradientTransform="translate(-33.335027,80.307128)"
       x1="693.03674"
       y1="660.23749"
       x2="694.04688"
       y2="762.76801" />
    <linearGradient
       inkscape:collect="always"
       xlink:href="#linearGradient6071"
       id="linearGradient6344"
       gradientUnits="userSpaceOnUse"
       x1="555.86005"
       y1="684.50372"
       x2="557.07068"
       y2="807.38275"
       gradientTransform="matrix(0.83440176,0,0,0.83440176,195.89112,169.39352)" />
    <linearGradient
       inkscape:collect="always"
       xlink:href="#linearGradient6071"
       id="linearGradient6348"
       gradientUnits="userSpaceOnUse"
       gradientTransform="matrix(0.83440176,0,0,0.83440176,184.77944,167.87829)"
       x1="569.177"
       y1="686.31964"
       x2="570.38763"
       y2="809.19873" />
    <linearGradient
       inkscape:collect="always"
       xlink:href="#linearGradient6071"
       id="linearGradient6352"
       gradientUnits="userSpaceOnUse"
       gradientTransform="matrix(0.83440176,0,0,0.83440176,189.8302,172.92905)"
       x1="563.12384"
       y1="680.26648"
       x2="564.33447"
       y2="803.14557" />
    <linearGradient
       inkscape:collect="always"
       xlink:href="#linearGradient6071"
       id="linearGradient6356"
       gradientUnits="userSpaceOnUse"
       gradientTransform="matrix(0.46437437,0,0,0.46437437,421.73276,451.5291)"
       x1="512.45068"
       y1="622.3761"
       x2="514.62598"
       y2="843.16888" />
  </defs>
  <sodipodi:namedview
     inkscape:document-units="mm"
     id="base"
     pagecolor="#7de9f3"
     bordercolor="#666666"
     borderopacity="1.0"
     inkscape:pageopacity="1"
     inkscape:pageshadow="2"
     inkscape:zoom="0.98994949"
     inkscape:cx="134.05383"
     inkscape:cy="119.85138"
     inkscape:current-layer="layer1"
     showgrid="false"
     units="mm"
     fit-margin-top="0"
     fit-margin-left="0"
     fit-margin-right="0"
     fit-margin-bottom="0"
     inkscape:window-width="1366"
     inkscape:window-height="715"
     inkscape:window-x="-8"
     inkscape:window-y="-8"
     inkscape:window-maximized="1" />
  <metadata
     id="metadata4">
    <rdf:RDF>
      <cc:Work
         rdf:about="">
        <dc:format>image/svg+xml</dc:format>
        <dc:type
           rdf:resource="http://purl.org/dc/dcmitype/StillImage" />
        <dc:title></dc:title>
      </cc:Work>
    </rdf:RDF>
  </metadata>
  <g
     inkscape:label="Layer 1"
     inkscape:groupmode="layer"
     id="layer1"
     transform="translate(-493.53162,-515.415)">
    <g
       id="g6358">
      <path
         style="fill:#ffffff;fill-opacity:0.60638296;fill-rule:nonzero;stroke:none"
         d="m 734.08381,646.89775 c -16.48688,0 -30.17017,7.8614 -33.09375,18.25 -11.18614,2.8189 -19.375,11.9065 -19.375,22.68745 0,8.2727 4.82687,15.5374 12.125,19.75 -0.0527,0.6274 -0.0937,1.2657 -0.0937,1.9062 0,12.7655 10.67934,23.125 23.84375,23.125 5.69392,0 10.90051,-1.9573 15,-5.1875 4.50524,1.766 9.63826,2.7813 15.09375,2.7813 8.12482,0 15.54641,-2.2128 21.21875,-5.875 1.45001,0.366 2.95413,0.5625 4.53125,0.5625 9.44114,0 17.09375,-7.0129 17.09375,-15.6563 0,-4.0934 -1.72107,-7.8049 -4.53125,-10.5937 4.30817,-4.2178 6.9375,-9.8936 6.9375,-16.12495 0,-13.0314 -11.5218,-23.5938 -25.75,-23.5938 -1.00533,0 -1.99344,0.054 -2.96875,0.1563 -5.58629,-7.2363 -16.9475,-12.1875 -30.03125,-12.1875 z"
         id="path20240"
         inkscape:connector-curvature="0" />
      <g
         transform="translate(154.05803,120.5225)"
         id="g6283">
        <path
           inkscape:connector-curvature="0"
           style="fill:#ffffff;fill-opacity:1;fill-rule:nonzero;stroke:none"
           d="m 582.37537,520.4775 c -16.47151,0 -30.15279,7.84462 -33.09375,18.21875 -11.18803,2.81782 -19.375,11.90537 -19.375,22.6875 0,8.27563 4.82262,15.56939 12.125,19.78125 -0.0527,0.62735 -0.0937,1.26572 -0.0937,1.90625 0,12.7655 10.67934,23.09375 23.84375,23.09375 5.70292,0 10.92885,-1.9169 15.03125,-5.15625 4.49671,1.75736 9.62135,2.75 15.0625,2.75 8.11866,0 15.51681,-2.21771 21.1875,-5.875 1.45351,0.36793 2.98112,0.59375 4.5625,0.59375 9.44114,0 17.09375,-7.01295 17.09375,-15.65625 0,-4.09344 -1.72107,-7.80491 -4.53125,-10.59375 4.30817,-4.21773 6.9375,-9.89359 6.9375,-16.125 0,-13.0314 -11.5218,-23.59375 -25.75,-23.59375 -1.00533,0 -1.99344,0.0536 -2.96875,0.15625 -5.58629,-7.23626 -16.9475,-12.1875 -30.03125,-12.1875 z"
           id="path20618" />
        <g
           id="g6061"
           transform="translate(-3.9285716,-0.71428535)">
          <path
             id="path13367"
             d="m 557.1329,575.16036 c 5.1228,10.32555 13.43389,13.87935 25.53828,9.37625"
             style="fill:none;stroke:#000000;stroke-width:0.48517844px;stroke-linecap:butt;stroke-linejoin:miter;stroke-opacity:0.21938776"
             inkscape:connector-curvature="0" />
          <path
             style="fill:none;stroke:#000000;stroke-width:0.48517844px;stroke-linecap:butt;stroke-linejoin:miter;stroke-opacity:0.21938776"
             d="m 612.07631,542.08096 c 10.29033,5.1933 13.78707,13.5286 9.20138,25.6019"
             id="path13369"
             inkscape:connector-curvature="0" />
          <path
             id="path13371"
             d="m 551.16885,561.30866 c 0.98253,-11.4846 7.4132,-17.8367 20.32569,-18.0827"
             style="fill:none;stroke:#000000;stroke-width:0.48517844px;stroke-linecap:butt;stroke-linejoin:miter;stroke-opacity:0.21938776"
             inkscape:connector-curvature="0" />
          <path
             style="fill:none;stroke:#000000;stroke-width:0.48517844px;stroke-linecap:butt;stroke-linejoin:miter;stroke-opacity:0.21938776"
             d="m 578.6329,578.66031 c 5.1228,10.3256 13.43389,13.8794 25.53828,9.3763"
             id="path13373"
             inkscape:connector-curvature="0" />
          <path
             id="path13375"
             d="m 615.84543,565.47246 c 10.17528,5.4152 13.49043,13.82425 8.644,25.79525"
             style="fill:none;stroke:#000000;stroke-width:0.48517844px;stroke-linecap:butt;stroke-linejoin:miter;stroke-opacity:0.21938776"
             inkscape:connector-curvature="0" />
        </g>
      </g>
      <path
         inkscape:connector-curvature="0"
         id="path4193"
         d="m 619.06518,838.19625 c -1.38406,0 -2.51432,0.72685 -2.60652,1.64824 -0.36034,0.28232 -0.58775,0.64451 -0.58775,1.03495 0,0.45204 0.28585,0.86505 0.75385,1.16271 -0.31194,0.25868 -0.49831,0.56597 -0.49831,0.90717 0,0.87572 1.20611,1.58436 2.69597,1.58436 0.27444,0 0.52989,-0.0191 0.7794,-0.0639 0.31907,0.24188 0.81754,0.39608 1.3927,0.39608 0.62279,0 1.17189,-0.18332 1.48215,-0.45997 0.66859,-0.19426 1.13716,-0.68395 1.13716,-1.25216 0,-0.0265 -0.0108,-0.0505 -0.0128,-0.0767 0.3429,-0.30506 0.54942,-0.67156 0.54942,-1.07327 0,-0.3179 -0.12242,-0.61934 -0.34498,-0.88163 0.14234,-0.24455 0.21721,-0.51945 0.21721,-0.80495 0,-1.08044 -1.13098,-1.9549 -2.52987,-1.9549 -0.34079,0 -0.66149,0.0591 -0.95828,0.15333 -0.42051,-0.19546 -0.92079,-0.31943 -1.46936,-0.31943 z"
         style="fill:url(#linearGradient6273);fill-opacity:1;fill-rule:nonzero;stroke:none" />
      <path
         inkscape:connector-curvature="0"
         style="fill:url(#linearGradient6270);fill-opacity:1;fill-rule:nonzero;stroke:none"
         d="m 574.13772,810.78727 c -3.3851,0 -6.14948,1.77771 -6.375,4.03125 -0.8813,0.69049 -1.4375,1.57631 -1.4375,2.53125 0,1.10559 0.69914,2.11573 1.84375,2.84375 -0.76294,0.63267 -1.21875,1.38425 -1.21875,2.21875 0,2.14182 2.94986,3.875 6.59375,3.875 0.67121,0 1.29601,-0.0467 1.90625,-0.15625 0.78038,0.59159 1.99952,0.96875 3.40625,0.96875 1.52319,0 2.86618,-0.44837 3.625,-1.125 1.63523,-0.4751 2.78125,-1.67279 2.78125,-3.0625 0,-0.0648 -0.0263,-0.12364 -0.0312,-0.1875 0.83865,-0.74612 1.34375,-1.64249 1.34375,-2.625 0,-0.77749 -0.29942,-1.51477 -0.84375,-2.15625 0.34812,-0.59811 0.53125,-1.27047 0.53125,-1.96875 0,-2.64251 -2.76614,-4.78125 -6.1875,-4.78125 -0.83351,0 -1.61787,0.14446 -2.34375,0.375 -1.02848,-0.47803 -2.25206,-0.78125 -3.59375,-0.78125 z"
         id="path6025" />
      <path
         id="path6027"
         d="m 772.21968,822.29889 c -3.3851,0 -6.14948,1.77771 -6.375,4.03125 -0.8813,0.69049 -1.4375,1.57631 -1.4375,2.53125 0,1.10559 0.69914,2.11573 1.84375,2.84375 -0.76294,0.63267 -1.21875,1.38425 -1.21875,2.21875 0,2.14182 2.94986,3.875 6.59375,3.875 0.67121,0 1.29601,-0.0467 1.90625,-0.15625 0.78038,0.59159 1.99952,0.96875 3.40625,0.96875 1.52319,0 2.86618,-0.44837 3.625,-1.125 1.63523,-0.4751 2.78125,-1.67279 2.78125,-3.0625 0,-0.0648 -0.0263,-0.12364 -0.0312,-0.1875 0.83865,-0.74612 1.34375,-1.64249 1.34375,-2.625 0,-0.77749 -0.29942,-1.51477 -0.84375,-2.15625 0.34812,-0.59811 0.53125,-1.27047 0.53125,-1.96875 0,-2.64251 -2.76614,-4.78125 -6.1875,-4.78125 -0.83351,0 -1.61787,0.14446 -2.34375,0.375 -1.02848,-0.47803 -2.25206,-0.78125 -3.59375,-0.78125 z"
         style="fill:url(#linearGradient6267);fill-opacity:1;fill-rule:nonzero;stroke:none"
         inkscape:connector-curvature="0" />
      <path
         inkscape:connector-curvature="0"
         style="fill:url(#linearGradient6264);fill-opacity:1;fill-rule:nonzero;stroke:none"
         d="m 594.11219,821.76768 c -2.05107,0 -3.72604,1.07713 -3.86268,2.44258 -0.53399,0.41838 -0.871,0.9551 -0.871,1.53371 0,0.66989 0.42362,1.28195 1.11715,1.72306 -0.46227,0.38335 -0.73846,0.83874 -0.73846,1.34437 0,1.29775 1.78736,2.34791 3.99523,2.34791 0.4067,0 0.78527,-0.0283 1.15502,-0.0947 0.47284,0.35845 1.21153,0.58698 2.06389,0.58698 0.92291,0 1.73665,-0.27167 2.19642,-0.68165 0.99081,-0.28787 1.6852,-1.01356 1.6852,-1.85561 0,-0.0393 -0.0159,-0.0749 -0.0189,-0.1136 0.50815,-0.45209 0.81419,-0.99521 0.81419,-1.59052 0,-0.47109 -0.18142,-0.91782 -0.51123,-1.3065 0.21093,-0.3624 0.32189,-0.76979 0.32189,-1.19288 0,-1.60113 -1.67604,-2.89702 -3.74908,-2.89702 -0.50503,0 -0.98028,0.0875 -1.4201,0.22722 -0.62317,-0.28965 -1.36455,-0.47337 -2.1775,-0.47337 z"
         id="path6029" />
      <path
         id="path6031"
         d="m 513.68341,758.91054 c -3.3851,0 -6.14948,1.77771 -6.375,4.03125 -0.8813,0.69049 -1.4375,1.57631 -1.4375,2.53125 0,1.10559 0.69914,2.11573 1.84375,2.84375 -0.76294,0.63267 -1.21875,1.38425 -1.21875,2.21875 0,2.14182 2.94986,3.875 6.59375,3.875 0.67121,0 1.29601,-0.0467 1.90625,-0.15625 0.78038,0.59159 1.99952,0.96875 3.40625,0.96875 1.52319,0 2.86618,-0.44837 3.625,-1.125 1.63523,-0.4751 2.78125,-1.67279 2.78125,-3.0625 0,-0.0648 -0.0263,-0.12364 -0.0312,-0.1875 0.83865,-0.74612 1.34375,-1.64249 1.34375,-2.625 0,-0.77749 -0.29942,-1.51477 -0.84375,-2.15625 0.34812,-0.59811 0.53125,-1.27047 0.53125,-1.96875 0,-2.64251 -2.76614,-4.78125 -6.1875,-4.78125 -0.83351,0 -1.61787,0.14446 -2.34375,0.375 -1.02848,-0.47803 -2.25206,-0.78125 -3.59375,-0.78125 z"
         style="fill:url(#linearGradient6261);fill-opacity:1;fill-rule:nonzero;stroke:none"
         inkscape:connector-curvature="0" />
      <path
         style="fill:#ffffff;fill-opacity:0.60638296;fill-rule:nonzero;stroke:none"
         d="m 659.64098,696.24185 c -5.7038,0 -10.43767,2.71973 -11.44911,6.31377 -3.86995,0.97522 -6.70297,4.11917 -6.70297,7.84895 0,2.86202 1.6699,5.37531 4.19476,6.8327 -0.0182,0.21705 -0.0324,0.43788 -0.0324,0.65947 0,4.41635 3.69462,8.00032 8.24898,8.00032 1.96987,0 3.77113,-0.67715 5.1894,-1.79467 1.55863,0.61096 3.33444,0.96222 5.22182,0.96222 2.81086,0 5.37844,-0.76554 7.34084,-2.03252 0.50164,0.12663 1.02201,0.19461 1.56763,0.19461 3.26626,0 5.91375,-2.42618 5.91375,-5.41645 0,-1.41615 -0.59542,-2.70019 -1.56763,-3.66499 1.49045,-1.4592 2.40009,-3.4228 2.40009,-5.57859 0,-4.50834 -3.98607,-8.16251 -8.90846,-8.16251 -0.3478,0 -0.68965,0.0187 -1.02707,0.054 -1.93263,-2.50347 -5.86315,-4.21639 -10.3896,-4.21639 z"
         id="path6294"
         inkscape:connector-curvature="0" />
      <path
         inkscape:connector-curvature="0"
         style="fill:url(#linearGradient6258);fill-opacity:1;fill-rule:nonzero;stroke:none"
         d="m 647.16938,704.73686 c -4.75824,0 -8.64397,2.49883 -8.96097,5.6665 -1.23879,0.97058 -2.02061,2.21573 -2.02061,3.55803 0,1.55407 0.98274,2.97396 2.59165,3.9973 -1.07242,0.8893 -1.71312,1.94576 -1.71312,3.11877 0,3.01063 4.14645,5.44686 9.26845,5.44686 0.94348,0 1.82173,-0.0656 2.67951,-0.21963 1.09694,0.83156 2.81061,1.36172 4.78797,1.36172 2.14106,0 4.02883,-0.63025 5.09546,-1.58135 2.29854,-0.66782 3.90944,-2.35135 3.90944,-4.30478 0,-0.0911 -0.037,-0.1738 -0.0439,-0.26356 1.17885,-1.04878 1.88884,-2.30875 1.88884,-3.68981 0,-1.09288 -0.42088,-2.12923 -1.18602,-3.03092 0.48934,-0.84073 0.74675,-1.78583 0.74675,-2.76736 0,-3.71442 -3.8882,-6.72073 -8.69741,-6.72073 -1.17162,0 -2.27415,0.20306 -3.29448,0.52712 -1.44567,-0.67194 -3.16559,-1.09816 -5.05153,-1.09816 z"
         id="path6033" />
      <path
         inkscape:connector-curvature="0"
         id="path6292"
         d="m 547.84125,614.41952 c -9.29816,0 -17.01516,4.43362 -18.66398,10.29251 -6.30868,1.58978 -10.92698,6.71494 -10.92698,12.79511 0,4.66558 2.72222,8.76267 6.83817,11.13846 -0.0297,0.35384 -0.0528,0.71383 -0.0528,1.07505 0,7.1994 6.02286,13.04188 13.44723,13.04188 3.21122,0 6.14759,-1.10387 8.4596,-2.92561 2.54083,0.99597 5.43571,1.56857 8.51246,1.56857 4.58218,0 8.76776,-1.24796 11.96681,-3.31334 0.81776,0.20642 1.66605,0.31724 2.5555,0.31724 5.32455,0 9.64041,-3.95509 9.64041,-8.82973 0,-2.30857 -0.97063,-4.40176 -2.5555,-5.97456 2.42969,-2.37873 3.91256,-5.57973 3.91256,-9.09404 0,-7.34936 -6.49798,-13.30627 -14.5223,-13.30627 -0.56698,0 -1.12425,0.0305 -1.6743,0.0881 -3.15051,-4.08108 -9.55793,-6.87342 -16.93681,-6.87342 z"
         style="fill:#ffffff;fill-opacity:0.60638296;fill-rule:nonzero;stroke:none" />
      <path
         id="path6037"
         d="m 538.38078,619.72816 c -8.99707,0 -16.34436,4.72489 -16.94376,10.71445 -2.34235,1.83521 -3.82065,4.18959 -3.82065,6.72766 0,2.9385 1.8582,5.62329 4.9004,7.55826 -2.02778,1.68152 -3.23924,3.67912 -3.23924,5.89709 0,5.69262 7.84027,10.29915 17.52516,10.29915 1.78397,0 3.4446,-0.12404 5.06652,-0.41529 2.07414,1.57235 5.31442,2.5748 9.05329,2.5748 4.0484,0 7.61787,-1.19171 9.6347,-2.99009 4.34617,-1.26274 7.39213,-4.44602 7.39213,-8.13965 0,-0.17225 -0.07,-0.32862 -0.083,-0.49835 2.22902,-1.98307 3.57149,-4.36547 3.57149,-6.97684 0,-2.06646 -0.79581,-4.02603 -2.24257,-5.73098 0.92526,-1.58969 1.41198,-3.37672 1.41198,-5.23264 0,-7.02337 -7.35196,-12.70782 -16.44541,-12.70782 -2.21535,0 -4.30005,0.38395 -6.22933,0.9967 -2.73354,-1.27054 -5.98563,-2.07645 -9.55164,-2.07645 z"
         style="fill:url(#linearGradient6255);fill-opacity:1;fill-rule:nonzero;stroke:none"
         inkscape:connector-curvature="0" />
      <path
         id="path6069"
         d="m 597.11154,739.26769 c -2.54927,0 -4.63109,1.33877 -4.80093,3.03588 -0.66369,0.52 -1.08256,1.1871 -1.08256,1.90625 0,0.83261 0.52651,1.59333 1.3885,2.14159 -0.57456,0.47646 -0.91782,1.04247 -0.91782,1.67092 0,1.61297 2.2215,2.91821 4.96567,2.91821 0.50548,0 0.97601,-0.0352 1.43557,-0.11767 0.58769,0.44552 1.50581,0.72955 2.5652,0.72955 1.1471,0 2.15848,-0.33766 2.72994,-0.84722 1.23147,-0.35779 2.09453,-1.25976 2.09453,-2.30633 0,-0.0488 -0.0198,-0.0931 -0.0235,-0.1412 0.63158,-0.5619 1.01196,-1.23694 1.01196,-1.97686 0,-0.58551 -0.22549,-1.14075 -0.63542,-1.62384 0.26217,-0.45043 0.40008,-0.95678 0.40008,-1.48264 0,-1.99004 -2.08314,-3.6007 -4.65973,-3.6007 -0.6277,0 -1.21839,0.10879 -1.76504,0.28241 -0.77454,-0.36 -1.696,-0.58835 -2.70641,-0.58835 z"
         style="fill:url(#linearGradient6252);fill-opacity:1;fill-rule:nonzero;stroke:none"
         inkscape:connector-curvature="0" />
      <g
         id="g6296"
         transform="matrix(0.55202571,0,0,0.55202571,367.85989,281.84835)">
        <path
           id="path6298"
           d="m 582.37537,520.4775 c -16.47151,0 -30.15279,7.84462 -33.09375,18.21875 -11.18803,2.81782 -19.375,11.90537 -19.375,22.6875 0,8.27563 4.82262,15.56939 12.125,19.78125 -0.0527,0.62735 -0.0937,1.26572 -0.0937,1.90625 0,12.7655 10.67934,23.09375 23.84375,23.09375 5.70292,0 10.92885,-1.9169 15.03125,-5.15625 4.49671,1.75736 9.62135,2.75 15.0625,2.75 8.11866,0 15.51681,-2.21771 21.1875,-5.875 1.45351,0.36793 2.98112,0.59375 4.5625,0.59375 9.44114,0 17.09375,-7.01295 17.09375,-15.65625 0,-4.09344 -1.72107,-7.80491 -4.53125,-10.59375 4.30817,-4.21773 6.9375,-9.89359 6.9375,-16.125 0,-13.0314 -11.5218,-23.59375 -25.75,-23.59375 -1.00533,0 -1.99344,0.0536 -2.96875,0.15625 -5.58629,-7.23626 -16.9475,-12.1875 -30.03125,-12.1875 z"
           style="fill:#ffffff;fill-opacity:1;fill-rule:nonzero;stroke:none"
           inkscape:connector-curvature="0" />
        <g
           transform="translate(-3.9285716,-0.71428535)"
           id="g6300">
          <path
             inkscape:connector-curvature="0"
             style="fill:none;stroke:#000000;stroke-width:0.48517844px;stroke-linecap:butt;stroke-linejoin:miter;stroke-opacity:0.21938776"
             d="m 557.1329,575.16036 c 5.1228,10.32555 13.43389,13.87935 25.53828,9.37625"
             id="path6302" />
          <path
             inkscape:connector-curvature="0"
             id="path6304"
             d="m 612.07631,542.08096 c 10.29033,5.1933 13.78707,13.5286 9.20138,25.6019"
             style="fill:none;stroke:#000000;stroke-width:0.48517844px;stroke-linecap:butt;stroke-linejoin:miter;stroke-opacity:0.21938776" />
          <path
             inkscape:connector-curvature="0"
             style="fill:none;stroke:#000000;stroke-width:0.48517844px;stroke-linecap:butt;stroke-linejoin:miter;stroke-opacity:0.21938776"
             d="m 551.16885,561.30866 c 0.98253,-11.4846 7.4132,-17.8367 20.32569,-18.0827"
             id="path6306" />
          <path
             inkscape:connector-curvature="0"
             id="path6308"
             d="m 578.6329,578.66031 c 5.1228,10.3256 13.43389,13.8794 25.53828,9.3763"
             style="fill:none;stroke:#000000;stroke-width:0.48517844px;stroke-linecap:butt;stroke-linejoin:miter;stroke-opacity:0.21938776" />
          <path
             inkscape:connector-curvature="0"
             style="fill:none;stroke:#000000;stroke-width:0.48517844px;stroke-linecap:butt;stroke-linejoin:miter;stroke-opacity:0.21938776"
             d="m 615.84543,565.47246 c 10.17528,5.4152 13.49043,13.82425 8.644,25.79525"
             id="path6310" />
        </g>
      </g>
      <path
         inkscape:connector-curvature="0"
         style="fill:url(#linearGradient6314);fill-opacity:1;fill-rule:nonzero;stroke:none"
         d="m 538.36937,541.98156 c -3.3851,0 -6.14948,1.77771 -6.375,4.03125 -0.8813,0.69049 -1.4375,1.57631 -1.4375,2.53125 0,1.10559 0.69914,2.11573 1.84375,2.84375 -0.76294,0.63267 -1.21875,1.38425 -1.21875,2.21875 0,2.14182 2.94986,3.875 6.59375,3.875 0.67121,0 1.29601,-0.0467 1.90625,-0.15625 0.78038,0.59159 1.99952,0.96875 3.40625,0.96875 1.52319,0 2.86618,-0.44837 3.625,-1.125 1.63523,-0.4751 2.78125,-1.67279 2.78125,-3.0625 0,-0.0648 -0.0263,-0.12364 -0.0312,-0.1875 0.83865,-0.74612 1.34375,-1.64249 1.34375,-2.625 0,-0.77749 -0.29942,-1.51477 -0.84375,-2.15625 0.34812,-0.59811 0.53125,-1.27047 0.53125,-1.96875 0,-2.64251 -2.76614,-4.78125 -6.1875,-4.78125 -0.83351,0 -1.61787,0.14446 -2.34375,0.375 -1.02848,-0.47803 -2.25206,-0.78125 -3.59375,-0.78125 z"
         id="path6312" />
      <path
         style="fill:#ffffff;fill-opacity:0.60638296;fill-rule:nonzero;stroke:none"
         d="m 600.87426,541.68854 c -9.29816,0 -17.01516,4.43362 -18.66398,10.29251 -6.30868,1.58978 -10.92698,6.71494 -10.92698,12.79511 0,4.66558 2.72222,8.76267 6.83817,11.13846 -0.0297,0.35384 -0.0528,0.71383 -0.0528,1.07505 0,7.1994 6.02286,13.04188 13.44723,13.04188 3.21122,0 6.14759,-1.10387 8.4596,-2.92561 2.54083,0.99597 5.43571,1.56857 8.51246,1.56857 4.58218,0 8.76776,-1.24796 11.96681,-3.31334 0.81776,0.20642 1.66605,0.31724 2.5555,0.31724 5.32455,0 9.64041,-3.95509 9.64041,-8.82973 0,-2.30857 -0.97063,-4.40176 -2.5555,-5.97456 2.42969,-2.37873 3.91256,-5.57973 3.91256,-9.09404 0,-7.34936 -6.49798,-13.30627 -14.5223,-13.30627 -0.56698,0 -1.12425,0.0305 -1.6743,0.0881 -3.15051,-4.08108 -9.55793,-6.87342 -16.93681,-6.87342 z"
         id="path6316"
         inkscape:connector-curvature="0" />
      <path
         inkscape:connector-curvature="0"
         style="fill:url(#linearGradient6320);fill-opacity:1;fill-rule:nonzero;stroke:none"
         d="m 584.21957,533.36011 c -8.06833,0 -14.65718,4.23715 -15.19471,9.60843 -2.10055,1.64576 -3.42625,3.75711 -3.42625,6.03318 0,2.63517 1.66638,5.04281 4.39455,6.77804 -1.81846,1.50794 -2.90487,3.29934 -2.90487,5.28835 0,5.10499 7.03094,9.236 15.71609,9.236 1.59982,0 3.08902,-0.11124 4.54352,-0.37242 1.86003,1.41004 4.76582,2.30901 8.11874,2.30901 3.6305,0 6.8315,-1.0687 8.64014,-2.68143 3.89752,-1.13239 6.62906,-3.98707 6.62906,-7.29942 0,-0.15447 -0.0628,-0.2947 -0.0744,-0.44691 1.99892,-1.77836 3.20281,-3.91483 3.20281,-6.25664 0,-1.85314 -0.71366,-3.61043 -2.01107,-5.13938 0.82974,-1.42559 1.26622,-3.02815 1.26622,-4.69249 0,-6.29837 -6.59304,-11.39603 -14.7478,-11.39603 -1.98666,0 -3.85616,0.34432 -5.58629,0.89381 -2.45136,-1.13938 -5.36775,-1.8621 -8.56565,-1.8621 z"
         id="path6318" />
      <path
         inkscape:connector-curvature="0"
         style="fill:url(#linearGradient6324);fill-opacity:1;fill-rule:nonzero;stroke:none"
         d="m 766.81717,755.93521 c -2.54927,0 -4.63109,1.33877 -4.80093,3.03588 -0.66369,0.52 -1.08256,1.1871 -1.08256,1.90625 0,0.83261 0.52651,1.59333 1.3885,2.14159 -0.57456,0.47646 -0.91782,1.04247 -0.91782,1.67092 0,1.61297 2.2215,2.91821 4.96567,2.91821 0.50548,0 0.97601,-0.0352 1.43557,-0.11767 0.58769,0.44552 1.50581,0.72955 2.5652,0.72955 1.1471,0 2.15848,-0.33766 2.72994,-0.84722 1.23147,-0.35779 2.09453,-1.25976 2.09453,-2.30633 0,-0.0488 -0.0198,-0.0931 -0.0235,-0.1412 0.63158,-0.5619 1.01196,-1.23694 1.01196,-1.97686 0,-0.58551 -0.22549,-1.14075 -0.63542,-1.62384 0.26217,-0.45043 0.40008,-0.95678 0.40008,-1.48264 0,-1.99004 -2.08314,-3.6007 -4.65973,-3.6007 -0.6277,0 -1.21839,0.10879 -1.76504,0.28241 -0.77454,-0.36 -1.696,-0.58835 -2.70641,-0.58835 z"
         id="path6322" />
      <path
         id="path6326"
         d="m 753.68519,831.19157 c -2.54927,0 -4.63109,1.33877 -4.80093,3.03588 -0.66369,0.52 -1.08256,1.1871 -1.08256,1.90625 0,0.83261 0.52651,1.59333 1.3885,2.14159 -0.57456,0.47646 -0.91782,1.04247 -0.91782,1.67092 0,1.61297 2.2215,2.91821 4.96567,2.91821 0.50548,0 0.97601,-0.0352 1.43557,-0.11767 0.58769,0.44552 1.50581,0.72955 2.5652,0.72955 1.1471,0 2.15848,-0.33766 2.72994,-0.84722 1.23147,-0.35779 2.09453,-1.25976 2.09453,-2.30633 0,-0.0488 -0.0198,-0.0931 -0.0235,-0.1412 0.63158,-0.5619 1.01196,-1.23694 1.01196,-1.97686 0,-0.58551 -0.22549,-1.14075 -0.63542,-1.62384 0.26217,-0.45043 0.40008,-0.95678 0.40008,-1.48264 0,-1.99004 -2.08314,-3.6007 -4.65973,-3.6007 -0.6277,0 -1.21839,0.10879 -1.76504,0.28241 -0.77454,-0.36 -1.696,-0.58835 -2.70641,-0.58835 z"
         style="fill:url(#linearGradient6328);fill-opacity:1;fill-rule:nonzero;stroke:none"
         inkscape:connector-curvature="0" />
      <path
         id="path6334"
         d="m 581.45418,829.67635 c -2.54927,0 -4.63109,1.33877 -4.80093,3.03588 -0.66369,0.52 -1.08256,1.1871 -1.08256,1.90625 0,0.83261 0.52651,1.59333 1.3885,2.14159 -0.57456,0.47646 -0.91782,1.04247 -0.91782,1.67092 0,1.61297 2.2215,2.91821 4.96567,2.91821 0.50548,0 0.97601,-0.0352 1.43557,-0.11767 0.58769,0.44552 1.50581,0.72955 2.5652,0.72955 1.1471,0 2.15848,-0.33766 2.72994,-0.84722 1.23147,-0.35779 2.09453,-1.25976 2.09453,-2.30633 0,-0.0488 -0.0198,-0.0931 -0.0235,-0.1412 0.63158,-0.5619 1.01196,-1.23694 1.01196,-1.97686 0,-0.58551 -0.22549,-1.14075 -0.63542,-1.62384 0.26217,-0.45043 0.40008,-0.95678 0.40008,-1.48264 0,-1.99004 -2.08314,-3.6007 -4.65973,-3.6007 -0.6277,0 -1.21839,0.10879 -1.76504,0.28241 -0.77454,-0.36 -1.696,-0.58835 -2.70641,-0.58835 z"
         style="fill:url(#linearGradient6336);fill-opacity:1;fill-rule:nonzero;stroke:none"
         inkscape:connector-curvature="0" />
      <path
         inkscape:connector-curvature="0"
         style="fill:url(#linearGradient6340);fill-opacity:1;fill-rule:nonzero;stroke:none"
         d="m 563.77651,819.57482 c -2.54927,0 -4.63109,1.33877 -4.80093,3.03588 -0.66369,0.52 -1.08256,1.1871 -1.08256,1.90625 0,0.83261 0.52651,1.59333 1.3885,2.14159 -0.57456,0.47646 -0.91782,1.04247 -0.91782,1.67092 0,1.61297 2.2215,2.91821 4.96567,2.91821 0.50548,0 0.97601,-0.0352 1.43557,-0.11767 0.58769,0.44552 1.50581,0.72955 2.5652,0.72955 1.1471,0 2.15848,-0.33766 2.72994,-0.84722 1.23147,-0.35779 2.09453,-1.25976 2.09453,-2.30633 0,-0.0488 -0.0198,-0.0931 -0.0235,-0.1412 0.63158,-0.5619 1.01196,-1.23694 1.01196,-1.97686 0,-0.58551 -0.22549,-1.14075 -0.63542,-1.62384 0.26217,-0.45043 0.40008,-0.95678 0.40008,-1.48264 0,-1.99004 -2.08314,-3.6007 -4.65973,-3.6007 -0.6277,0 -1.21839,0.10879 -1.76504,0.28241 -0.77454,-0.36 -1.696,-0.58835 -2.70641,-0.58835 z"
         id="path6338" />
      <path
         inkscape:connector-curvature="0"
         style="fill:url(#linearGradient6344);fill-opacity:1;fill-rule:nonzero;stroke:none"
         d="m 694.12204,786.23978 c -2.12711,0 -3.86419,1.11707 -4.0059,2.53314 -0.55378,0.43389 -0.90329,0.99052 -0.90329,1.59058 0,0.69473 0.43932,1.32948 1.15857,1.78695 -0.47942,0.39756 -0.76583,0.86984 -0.76583,1.39422 0,1.34586 1.85362,2.43496 4.14336,2.43496 0.42177,0 0.81438,-0.0294 1.19784,-0.0982 0.49037,0.37175 1.25645,0.60874 2.14041,0.60874 0.95714,0 1.80104,-0.28174 2.27787,-0.70692 1.02754,-0.29854 1.74768,-1.05115 1.74768,-1.92441 0,-0.0407 -0.0165,-0.0777 -0.0196,-0.11781 0.52699,-0.46886 0.84438,-1.03211 0.84438,-1.6495 0,-0.48855 -0.18815,-0.95184 -0.5302,-1.35494 0.21876,-0.37583 0.33383,-0.79833 0.33383,-1.23711 0,-1.6605 -1.73818,-3.00443 -3.88809,-3.00443 -0.52375,0 -1.01662,0.0908 -1.47275,0.23564 -0.64628,-0.30038 -1.41514,-0.49092 -2.25823,-0.49092 z"
         id="path6342" />
      <path
         id="path6346"
         d="m 683.01036,784.72455 c -2.12711,0 -3.86419,1.11707 -4.0059,2.53314 -0.55378,0.43389 -0.90329,0.99052 -0.90329,1.59058 0,0.69473 0.43932,1.32948 1.15857,1.78695 -0.47942,0.39756 -0.76583,0.86984 -0.76583,1.39422 0,1.34586 1.85362,2.43496 4.14336,2.43496 0.42177,0 0.81438,-0.0294 1.19784,-0.0982 0.49037,0.37175 1.25645,0.60874 2.14041,0.60874 0.95714,0 1.80104,-0.28174 2.27787,-0.70692 1.02754,-0.29854 1.74768,-1.05115 1.74768,-1.92441 0,-0.0407 -0.0165,-0.0777 -0.0196,-0.11781 0.52699,-0.46886 0.84438,-1.03211 0.84438,-1.6495 0,-0.48855 -0.18815,-0.95184 -0.5302,-1.35494 0.21876,-0.37583 0.33383,-0.79833 0.33383,-1.23711 0,-1.6605 -1.73818,-3.00443 -3.88809,-3.00443 -0.52375,0 -1.01662,0.0908 -1.47275,0.23564 -0.64628,-0.30038 -1.41514,-0.49092 -2.25823,-0.49092 z"
         style="fill:url(#linearGradient6348);fill-opacity:1;fill-rule:nonzero;stroke:none"
         inkscape:connector-curvature="0" />
      <path
         inkscape:connector-curvature="0"
         style="fill:url(#linearGradient6352);fill-opacity:1;fill-rule:nonzero;stroke:none"
         d="m 688.06112,789.77531 c -2.12711,0 -3.86419,1.11707 -4.0059,2.53314 -0.55378,0.43389 -0.90329,0.99052 -0.90329,1.59058 0,0.69473 0.43932,1.32948 1.15857,1.78695 -0.47942,0.39756 -0.76583,0.86984 -0.76583,1.39422 0,1.34586 1.85362,2.43496 4.14336,2.43496 0.42177,0 0.81438,-0.0294 1.19784,-0.0982 0.49037,0.37175 1.25645,0.60874 2.14041,0.60874 0.95714,0 1.80104,-0.28174 2.27787,-0.70692 1.02754,-0.29854 1.74768,-1.05115 1.74768,-1.92441 0,-0.0407 -0.0165,-0.0777 -0.0196,-0.11781 0.52699,-0.46886 0.84438,-1.03211 0.84438,-1.6495 0,-0.48855 -0.18815,-0.95184 -0.5302,-1.35494 0.21876,-0.37583 0.33383,-0.79833 0.33383,-1.23711 0,-1.6605 -1.73818,-3.00443 -3.88809,-3.00443 -0.52375,0 -1.01662,0.0908 -1.47275,0.23564 -0.64628,-0.30038 -1.41514,-0.49092 -2.25823,-0.49092 z"
         id="path6350" />
      <path
         id="path6354"
         d="m 699.01605,794.82607 c -1.18381,0 -2.15056,0.62168 -2.22943,1.40978 -0.3082,0.24147 -0.50271,0.55126 -0.50271,0.88521 0,0.38665 0.2445,0.73991 0.64479,0.9945 -0.26682,0.22126 -0.42622,0.4841 -0.42622,0.77594 0,0.74902 1.03161,1.35514 2.30593,1.35514 0.23473,0 0.45323,-0.0164 0.66664,-0.0546 0.27291,0.20689 0.69926,0.33878 1.19122,0.33878 0.53268,0 1.00234,-0.15679 1.26771,-0.39342 0.57187,-0.16615 0.97265,-0.58501 0.97265,-1.07101 0,-0.0226 -0.009,-0.0432 -0.0109,-0.0656 0.29329,-0.26094 0.46993,-0.57441 0.46993,-0.91801 0,-0.27189 -0.10471,-0.52973 -0.29508,-0.75407 0.12175,-0.20916 0.18579,-0.4443 0.18579,-0.6885 0,-0.92412 -0.96736,-1.67207 -2.16386,-1.67207 -0.29148,0 -0.56578,0.0505 -0.81964,0.13114 -0.35967,-0.16717 -0.78757,-0.27321 -1.25678,-0.27321 z"
         style="fill:url(#linearGradient6356);fill-opacity:1;fill-rule:nonzero;stroke:none"
         inkscape:connector-curvature="0" />
    </g>
  </g>
</svg>
