<?xml version="1.0" encoding="UTF-8" standalone="no"?>
<!-- Created with Inkscape (http://www.inkscape.org/) -->

<svg
   xmlns:dc="http://purl.org/dc/elements/1.1/"
   xmlns:cc="http://creativecommons.org/ns#"
   xmlns:rdf="http://www.w3.org/1999/02/22-rdf-syntax-ns#"
   xmlns:svg="http://www.w3.org/2000/svg"
   xmlns="http://www.w3.org/2000/svg"
   xmlns:xlink="http://www.w3.org/1999/xlink"
   xmlns:sodipodi="http://sodipodi.sourceforge.net/DTD/sodipodi-0.dtd"
   xmlns:inkscape="http://www.inkscape.org/namespaces/inkscape"
   width="1000"
   height="500"
   id="svg5199"
   version="1.1"
   inkscape:version="0.91 r13725"
   sodipodi:docname="clouds3.svg">
  <defs
     id="defs3" />
  <sodipodi:namedview
     inkscape:document-units="mm"
     id="base"
     pagecolor="#7de9f3"
     bordercolor="#666666"
     borderopacity="1.0"
     inkscape:pageopacity="1"
     inkscape:pageshadow="2"
     inkscape:zoom="0.49497475"
     inkscape:cx="476.70678"
     inkscape:cy="219.23097"
     inkscape:current-layer="layer1"
     showgrid="false"
     units="mm"
     fit-margin-top="0"
     fit-margin-left="0"
     fit-margin-right="0"
     fit-margin-bottom="0"
     inkscape:window-width="1366"
     inkscape:window-height="715"
     inkscape:window-x="-8"
     inkscape:window-y="-8"
     inkscape:window-maximized="1" />
  <metadata
     id="metadata4">
    <rdf:RDF>
      <cc:Work
         rdf:about="">
        <dc:format>image/svg+xml</dc:format>
        <dc:type
           rdf:resource="http://purl.org/dc/dcmitype/StillImage" />
        <dc:title></dc:title>
      </cc:Work>
    </rdf:RDF>
  </metadata>
  <g
     inkscape:label="Layer 1"
     inkscape:groupmode="layer"
     id="layer1"
     transform="translate(-493.53162,-352.1665)">
    <g
       id="cloudsB"
       inkscape:label="#g4940">
      <path
         style="fill:#ffffff;fill-opacity:0.60638296;fill-rule:nonzero;stroke:none"
         d="m 866.81846,383.74835 c -10.5964,0 -19.39089,5.05266 -21.26992,11.72959 -7.18953,1.81175 -12.45265,7.65251 -12.45265,14.58161 0,5.31701 3.10231,9.98616 7.79295,12.69367 -0.0339,0.40324 -0.0602,0.81348 -0.0602,1.22514 0,8.20461 6.86379,14.86284 15.32478,14.86284 3.65958,0 7.00595,-1.25799 9.64076,-3.3341 2.8956,1.13504 6.19468,1.78759 9.70101,1.78759 5.22196,0 9.99195,-1.4222 13.63766,-3.77596 0.93194,0.23523 1.89867,0.36153 2.91231,0.36153 6.06798,0 10.98645,-4.50731 10.98645,-10.06258 0,-2.63089 -1.10616,-5.01634 -2.91232,-6.80875 2.76894,-2.71085 4.45886,-6.35878 4.45886,-10.36378 0,-8.37551 -7.40526,-15.16414 -16.54997,-15.16414 -0.64614,0 -1.28122,0.0347 -1.90807,0.10046 -3.5904,-4.6509 -10.89245,-7.83312 -19.3016,-7.83312 z"
         id="path20240"
         inkscape:connector-curvature="0" />
      <g
         transform="matrix(0.64271717,0,0,0.64271717,485.30334,50.487863)"
         id="g6283">
        <path
           inkscape:connector-curvature="0"
           style="fill:#ffffff;fill-opacity:1;fill-rule:nonzero;stroke:none"
           d="m 582.37537,520.4775 c -16.47151,0 -30.15279,7.84462 -33.09375,18.21875 -11.18803,2.81782 -19.375,11.90537 -19.375,22.6875 0,8.27563 4.82262,15.56939 12.125,19.78125 -0.0527,0.62735 -0.0937,1.26572 -0.0937,1.90625 0,12.7655 10.67934,23.09375 23.84375,23.09375 5.70292,0 10.92885,-1.9169 15.03125,-5.15625 4.49671,1.75736 9.62135,2.75 15.0625,2.75 8.11866,0 15.51681,-2.21771 21.1875,-5.875 1.45351,0.36793 2.98112,0.59375 4.5625,0.59375 9.44114,0 17.09375,-7.01295 17.09375,-15.65625 0,-4.09344 -1.72107,-7.80491 -4.53125,-10.59375 4.30817,-4.21773 6.9375,-9.89359 6.9375,-16.125 0,-13.0314 -11.5218,-23.59375 -25.75,-23.59375 -1.00533,0 -1.99344,0.0536 -2.96875,0.15625 -5.58629,-7.23626 -16.9475,-12.1875 -30.03125,-12.1875 z"
           id="path20618" />
        <g
           id="g6061"
           transform="translate(-3.9285716,-0.71428535)">
          <path
             id="path13367"
             d="m 557.1329,575.16036 c 5.1228,10.32555 13.43389,13.87935 25.53828,9.37625"
             style="fill:none;stroke:#000000;stroke-width:0.48517844px;stroke-linecap:butt;stroke-linejoin:miter;stroke-opacity:0.21938776"
             inkscape:connector-curvature="0" />
          <path
             style="fill:none;stroke:#000000;stroke-width:0.48517844px;stroke-linecap:butt;stroke-linejoin:miter;stroke-opacity:0.21938776"
             d="m 612.07631,542.08096 c 10.29033,5.1933 13.78707,13.5286 9.20138,25.6019"
             id="path13369"
             inkscape:connector-curvature="0" />
          <path
             id="path13371"
             d="m 551.16885,561.30866 c 0.98253,-11.4846 7.4132,-17.8367 20.32569,-18.0827"
             style="fill:none;stroke:#000000;stroke-width:0.48517844px;stroke-linecap:butt;stroke-linejoin:miter;stroke-opacity:0.21938776"
             inkscape:connector-curvature="0" />
          <path
             style="fill:none;stroke:#000000;stroke-width:0.48517844px;stroke-linecap:butt;stroke-linejoin:miter;stroke-opacity:0.21938776"
             d="m 578.6329,578.66031 c 5.1228,10.3256 13.43389,13.8794 25.53828,9.3763"
             id="path13373"
             inkscape:connector-curvature="0" />
          <path
             id="path13375"
             d="m 615.84543,565.47246 c 10.17528,5.4152 13.49043,13.82425 8.644,25.79525"
             style="fill:none;stroke:#000000;stroke-width:0.48517844px;stroke-linecap:butt;stroke-linejoin:miter;stroke-opacity:0.21938776"
             inkscape:connector-curvature="0" />
        </g>
      </g>
      <path
         inkscape:connector-curvature="0"
         id="path4291"
         d="m 967.4809,616.46959 c -5.37542,0 -9.83677,3.3897 -10.78998,7.86911 -3.64717,1.21546 -6.31709,5.1339 -6.31709,9.78246 0,3.56707 1.57377,6.69949 3.95327,8.51589 -0.0172,0.27052 -0.0305,0.54575 -0.0305,0.82193 0,5.50427 3.48192,9.97113 7.77409,9.97113 1.85645,0 3.55403,-0.84396 4.89064,-2.23677 1.46891,0.76147 3.14249,1.19926 4.92121,1.19926 2.64905,0 5.06881,-0.95413 6.91824,-2.53322 0.47276,0.15782 0.96317,0.24255 1.47738,0.24255 3.07821,0 5.57329,-3.02386 5.57329,-6.75075 0,-1.76501 -0.56114,-3.36535 -1.47737,-4.56783 1.40464,-1.81865 2.26191,-4.26597 2.26191,-6.95283 0,-5.61893 -3.75659,-10.17327 -8.3956,-10.17327 -0.32778,0 -0.64995,0.0232 -0.96795,0.0674 -1.82137,-3.12018 -5.52561,-5.25506 -9.79148,-5.25506 z"
         style="opacity:0.303;fill:#ffffff;fill-opacity:0.60638296;fill-rule:nonzero;stroke:none" />
      <use
         style="opacity:0.29200003"
         height="100%"
         width="100%"
         transform="matrix(0.66571681,0,0,0.66571681,-23.826776,338.92535)"
         id="use5149"
         xlink:href="#path4291"
         y="0"
         x="0" />
      <use
         style="opacity:0.64299999"
         height="100%"
         width="100%"
         transform="matrix(0.58220178,0,0,0.58220178,707.57845,306.61718)"
         id="use5151"
         xlink:href="#g6283"
         y="0"
         x="0" />
      <use
         style="opacity:0.438"
         height="100%"
         width="100%"
         transform="matrix(0.53365986,0,0,0.53365986,615.33843,375.52133)"
         id="use5153"
         xlink:href="#g6283"
         y="0"
         x="0" />
      <use
         style="opacity:0.225"
         height="100%"
         width="100%"
         transform="translate(386.5337,161.23572)"
         id="use5155"
         xlink:href="#path4291"
         y="0"
         x="0" />
      <use
         style="opacity:0.225"
         height="100%"
         width="100%"
         transform="matrix(0.4132654,0,0,0.4132654,375.05783,641.52182)"
         id="use5157"
         xlink:href="#path20240"
         y="0"
         x="0" />
      <use
         style="opacity:0.225"
         height="100%"
         width="100%"
         transform="matrix(0.44993631,0,0,0.44993631,1062.4604,583.7895)"
         id="use5159"
         xlink:href="#path20240"
         y="0"
         x="0" />
      <use
         height="100%"
         width="100%"
         transform="translate(-321.33215,67.608427)"
         id="use5161"
         xlink:href="#g6283"
         y="0"
         x="0" />
      <use
         height="100%"
         width="100%"
         transform="matrix(0.8601051,0,0,0.8601051,636.96545,88.146327)"
         id="use5908"
         xlink:href="#g6283"
         y="0"
         x="0" />
      <use
         height="100%"
         width="100%"
         transform="translate(553.91745,4.530822)"
         id="use5163"
         xlink:href="#g6283"
         y="0"
         x="0" />
      <use
         style="opacity:0.365"
         height="100%"
         width="100%"
         transform="matrix(0.39492994,0,0,0.39492994,370.69709,483.12579)"
         id="use5165"
         xlink:href="#path20240"
         y="0"
         x="0" />
      <use
         style="opacity:0.365"
         height="100%"
         width="100%"
         transform="matrix(0.37659449,0,0,0.37659449,399.10427,481.07062)"
         id="use5167"
         xlink:href="#path20240"
         y="0"
         x="0" />
      <use
         style="opacity:0.365"
         height="100%"
         width="100%"
         transform="matrix(0.46827177,0,0,0.46827177,369.1953,452.96067)"
         id="use5169"
         xlink:href="#path20240"
         y="0"
         x="0" />
      <use
         style="opacity:0.365"
         height="100%"
         width="100%"
         transform="matrix(0.4132654,0,0,0.4132654,437.24424,486.19111)"
         id="use5171"
         xlink:href="#path20240"
         y="0"
         x="0" />
      <use
         style="opacity:0.26700003"
         height="100%"
         width="100%"
         transform="translate(125.71429,155.71429)"
         id="use5898"
         xlink:href="#path4291"
         y="0"
         x="0" />
      <use
         style="opacity:0.26700003"
         height="100%"
         width="100%"
         transform="translate(112.85714,160)"
         id="use5900"
         xlink:href="#path4291"
         y="0"
         x="0" />
      <use
         style="opacity:0.26700003"
         height="100%"
         width="100%"
         transform="translate(170,174.28571)"
         id="use5902"
         xlink:href="#path4291"
         y="0"
         x="0" />
      <use
         style="opacity:0.26700003"
         height="100%"
         width="100%"
         transform="translate(205.71429,110)"
         id="use5904"
         xlink:href="#path4291"
         y="0"
         x="0" />
      <use
         height="100%"
         width="100%"
         transform="matrix(1.2598048,0,0,1.2598048,42.574365,-105.74114)"
         id="use5906"
         xlink:href="#g6283"
         y="0"
         x="0" />
      <use
         height="100%"
         width="100%"
         transform="translate(-57.578695,8.0812204)"
         id="use5910"
         xlink:href="#g6283"
         y="0"
         x="0" />
      <use
         height="100%"
         width="100%"
         transform="translate(313.14729,-28.284271)"
         id="use5912"
         xlink:href="#g6283"
         y="0"
         x="0" />
      <use
         height="100%"
         width="100%"
         transform="translate(-294.16932,43.362219)"
         id="use5914"
         xlink:href="#g6283"
         y="0"
         x="0" />
      <use
         height="100%"
         width="100%"
         transform="translate(-263.14474,81.822356)"
         id="use5916"
         xlink:href="#g6283"
         y="0"
         x="0" />
      <use
         height="100%"
         width="100%"
         transform="translate(-234.86047,35.355339)"
         id="use5918"
         xlink:href="#g6283"
         y="0"
         x="0" />
      <use
         height="100%"
         width="100%"
         transform="translate(-196.47467,2.5253814)"
         id="use5920"
         xlink:href="#g6283"
         y="0"
         x="0" />
    </g>
  </g>
</svg>
