<?xml version="1.0" encoding="UTF-8" standalone="no"?>
<!-- Created with Inkscape (http://www.inkscape.org/) -->

<svg
   xmlns:dc="http://purl.org/dc/elements/1.1/"
   xmlns:cc="http://creativecommons.org/ns#"
   xmlns:rdf="http://www.w3.org/1999/02/22-rdf-syntax-ns#"
   xmlns:svg="http://www.w3.org/2000/svg"
   xmlns="http://www.w3.org/2000/svg"
   xmlns:sodipodi="http://sodipodi.sourceforge.net/DTD/sodipodi-0.dtd"
   xmlns:inkscape="http://www.inkscape.org/namespaces/inkscape"
   width="150.07961"
   height="336.7515"
   id="svg"
   version="1.1"
   inkscape:version="0.48.4 r9939"
   sodipodi:docname="New document 7">
  <defs
     id="defs3" />
  <sodipodi:namedview
     inkscape:document-units="mm"
     id="base"
     pagecolor="#ffffff"
     bordercolor="#666666"
     borderopacity="1.0"
     inkscape:pageopacity="0.0"
     inkscape:pageshadow="2"
     inkscape:zoom="0.35"
     inkscape:cx="-660.67448"
     inkscape:cy="319.80433"
     inkscape:current-layer="layer1"
     showgrid="false"
     units="mm"
     fit-margin-top="0"
     fit-margin-left="0"
     fit-margin-right="0"
     fit-margin-bottom="0"
     inkscape:window-width="1366"
     inkscape:window-height="715"
     inkscape:window-x="-8"
     inkscape:window-y="-8"
     inkscape:window-maximized="1" />
  <metadata
     id="metadata4">
    <rdf:RDF>
      <cc:Work
         rdf:about="">
        <dc:format>image/svg+xml</dc:format>
        <dc:type
           rdf:resource="http://purl.org/dc/dcmitype/StillImage" />
        <dc:title></dc:title>
      </cc:Work>
    </rdf:RDF>
  </metadata>
  <g
     inkscape:label="Layer 1"
     inkscape:groupmode="layer"
     id="layer1"
     transform="translate(-493.53162,-515.415)">
    <g
       id="g5023"
       transform="translate(-494.41064,-171.65645)">
      <g
         id="g7101"
         transform="translate(271.98497,627.72235)">
        <path
           inkscape:connector-curvature="0"
           id="path20240"
           d="m 807.28685,80.0668 c -16.48688,0 -30.17017,7.8614 -33.09375,18.25 -11.18614,2.8189 -19.375,11.9065 -19.375,22.68745 0,8.2727 4.82687,15.5374 12.125,19.75 -0.0527,0.6274 -0.0937,1.2657 -0.0937,1.9062 0,12.7655 10.67934,23.125 23.84375,23.125 5.69392,0 10.90051,-1.9573 15,-5.1875 4.50524,1.766 9.63826,2.7813 15.09375,2.7813 8.12482,0 15.54641,-2.2128 21.21875,-5.875 1.45001,0.366 2.95413,0.5625 4.53125,0.5625 9.44114,0 17.09375,-7.0129 17.09375,-15.6563 0,-4.0934 -1.72107,-7.8049 -4.53125,-10.5937 4.30817,-4.2178 6.9375,-9.8936 6.9375,-16.12495 0,-13.0314 -11.5218,-23.5938 -25.75,-23.5938 -1.00533,0 -1.99344,0.054 -2.96875,0.1563 -5.58629,-7.2363 -16.9475,-12.1875 -30.03125,-12.1875 z"
           style="fill:#ffffff;fill-opacity:0.60638296;fill-rule:nonzero;stroke:none" />
        <g
           transform="translate(0.59474,-4490.622)"
           id="g20616">
          <path
             inkscape:connector-curvature="0"
             style="fill:#ffffff;fill-opacity:1;fill-rule:nonzero;stroke:none"
             d="m 801.55837,4572.3627 c 0,12.3666 -15.09152,22.3917 -33.70786,22.3917 -18.61634,0 -33.70786,-10.0251 -33.70786,-22.3917 0,-12.3665 15.09152,-22.3916 33.70786,-22.3916 18.61634,0 33.70786,10.0251 33.70786,22.3916 z"
             id="path20618" />
          <path
             inkscape:connector-curvature="0"
             style="fill:#ffffff;fill-opacity:1;fill-rule:nonzero;stroke:none"
             d="m 797.2245,4590.9021 c 0,12.2336 -11.42644,22.1509 -25.52167,22.1509 -14.09522,0 -25.52166,-9.9173 -25.52166,-22.1509 0,-12.2336 11.42644,-22.1509 25.52166,-22.1509 14.09523,0 25.52167,9.9173 25.52167,22.1509 z"
             id="path20620" />
          <path
             inkscape:connector-curvature="0"
             style="fill:#ffffff;fill-opacity:1;fill-rule:nonzero;stroke:none"
             d="m 768.81359,4590.9021 c 0,13.0314 -11.96542,23.5955 -26.72552,23.5955 -14.76009,0 -26.72552,-10.5641 -26.72552,-23.5955 0,-13.0315 11.96543,-23.5955 26.72552,-23.5955 14.7601,0 26.72552,10.564 26.72552,23.5955 z"
             id="path20622" />
          <path
             inkscape:connector-curvature="0"
             style="fill:#ffffff;fill-opacity:1;fill-rule:nonzero;stroke:none"
             d="m 826.59849,4585.6051 c 0,13.0315 -11.53423,23.5955 -25.76243,23.5955 -14.2282,0 -25.76244,-10.564 -25.76244,-23.5955 0,-13.0314 11.53424,-23.5955 25.76244,-23.5955 14.2282,0 25.76243,10.5641 25.76243,23.5955 z"
             id="path20624" />
          <path
             inkscape:connector-curvature="0"
             style="fill:#ffffff;fill-opacity:1;fill-rule:nonzero;stroke:none"
             d="m 813.59689,4609.4414 c 0,13.1644 -14.44474,23.8363 -32.26324,23.8363 -17.81849,0 -32.26324,-10.6719 -32.26324,-23.8363 0,-13.1644 14.44475,-23.8363 32.26324,-23.8363 17.8185,0 32.26324,10.6719 32.26324,23.8363 z"
             id="path20626" />
          <path
             inkscape:connector-curvature="0"
             style="fill:#ffffff;fill-opacity:1;fill-rule:nonzero;stroke:none"
             d="m 775.07362,4612.5714 c 0,12.7655 -10.67186,23.114 -23.83627,23.114 -13.16441,0 -23.83628,-10.3485 -23.83628,-23.114 0,-12.7655 10.67187,-23.114 23.83628,-23.114 13.16441,0 23.83627,10.3485 23.83627,23.114 z"
             id="path20628" />
          <path
             inkscape:connector-curvature="0"
             style="fill:#ffffff;fill-opacity:1;fill-rule:nonzero;stroke:none"
             d="m 824.19079,4612.3306 c 0,8.6433 -7.65356,15.6501 -17.0947,15.6501 -9.44115,0 -17.0947,-7.0068 -17.0947,-15.6501 0,-8.6433 7.65355,-15.65 17.0947,-15.65 9.44114,0 17.0947,7.0067 17.0947,15.65 z"
             id="path20630" />
        </g>
        <path
           inkscape:connector-curvature="0"
           style="fill:none;stroke:#000000;stroke-width:0.48517844px;stroke-linecap:butt;stroke-linejoin:miter;stroke-opacity:0.21938776"
           d="m 743.19308,114.0437 c 5.1228,10.32555 13.43389,13.87935 25.53828,9.37625"
           id="path13367" />
        <path
           inkscape:connector-curvature="0"
           id="path13369"
           d="m 798.13649,80.9643 c 10.29033,5.1933 13.78707,13.5286 9.20138,25.6019"
           style="fill:none;stroke:#000000;stroke-width:0.48517844px;stroke-linecap:butt;stroke-linejoin:miter;stroke-opacity:0.21938776" />
        <path
           inkscape:connector-curvature="0"
           style="fill:none;stroke:#000000;stroke-width:0.48517844px;stroke-linecap:butt;stroke-linejoin:miter;stroke-opacity:0.21938776"
           d="m 737.22903,100.192 c 0.98253,-11.4846 7.4132,-17.8367 20.32569,-18.0827"
           id="path13371" />
        <path
           inkscape:connector-curvature="0"
           id="path13373"
           d="m 764.69308,117.54365 c 5.1228,10.3256 13.43389,13.8794 25.53828,9.3763"
           style="fill:none;stroke:#000000;stroke-width:0.48517844px;stroke-linecap:butt;stroke-linejoin:miter;stroke-opacity:0.21938776" />
        <path
           inkscape:connector-curvature="0"
           style="fill:none;stroke:#000000;stroke-width:0.48517844px;stroke-linecap:butt;stroke-linejoin:miter;stroke-opacity:0.21938776"
           d="m 801.90561,104.3558 c 10.17528,5.4152 13.49043,13.82425 8.644,25.79525"
           id="path13375" />
      </g>
      <g
         transform="matrix(0.41471549,0,0,0.41471549,981.69282,-1097.2037)"
         id="g4175">
        <path
           inkscape:connector-curvature="0"
           style="fill:#ffffff;fill-opacity:1;fill-rule:nonzero;stroke:none"
           d="m 92.231173,4635.4935 c 0,8.654 -11.137013,15.6694 -24.875215,15.6694 -13.738201,0 -24.875214,-7.0154 -24.875214,-15.6694 0,-8.654 11.137013,-15.6694 24.875214,-15.6694 13.738202,0 24.875215,7.0154 24.875215,15.6694 z"
           id="path4177" />
        <path
           inkscape:connector-curvature="0"
           style="fill:#ffffff;fill-opacity:1;fill-rule:nonzero;stroke:none"
           d="m 96.148525,4655.2762 c 0,8.3294 -11.487785,15.0818 -25.658685,15.0818 -14.1709,0 -25.658685,-6.7524 -25.658685,-15.0818 0,-8.3295 11.487785,-15.0819 25.658685,-15.0819 14.1709,0 25.658685,6.7524 25.658685,15.0819 z"
           id="path4179" />
        <path
           inkscape:connector-curvature="0"
           style="fill:#ffffff;fill-opacity:1;fill-rule:nonzero;stroke:none"
           d="m 121.21961,4646.2662 c 0,9.844 -12.71549,17.824 -28.400837,17.824 -15.685348,0 -28.400834,-7.98 -28.400834,-17.824 0,-9.8439 12.715486,-17.8239 28.400834,-17.8239 15.685347,0 28.400837,7.98 28.400837,17.8239 z"
           id="path4181" />
        <path
           inkscape:connector-curvature="0"
           style="fill:#ffffff;fill-opacity:1;fill-rule:nonzero;stroke:none"
           d="m 120.0444,4630.2051 c 0,10.2766 -10.78624,18.6074 -24.09174,18.6074 -13.305502,0 -24.091742,-8.3308 -24.091742,-18.6074 0,-10.2766 10.78624,-18.6075 24.091742,-18.6075 13.3055,0 24.09174,8.3309 24.09174,18.6075 z"
           id="path4183" />
        <path
           inkscape:connector-curvature="0"
           style="fill:#ffffff;fill-opacity:1;fill-rule:nonzero;stroke:none"
           d="m 97.715473,4626.8753 c 0,9.3031 -11.137013,16.8447 -24.875216,16.8447 -13.738201,0 -24.875214,-7.5416 -24.875214,-16.8447 0,-9.303 11.137013,-16.8446 24.875214,-16.8446 13.738203,0 24.875216,7.5416 24.875216,16.8446 z"
           id="path4185" />
        <path
           inkscape:connector-curvature="0"
           style="fill:#ffffff;fill-opacity:1;fill-rule:nonzero;stroke:none"
           d="m 107.9006,4664.0902 c 0,5.1924 -7.45391,9.4017 -16.648768,9.4017 -9.194859,0 -16.648765,-4.2093 -16.648765,-9.4017 0,-5.1924 7.453906,-9.4016 16.648765,-9.4016 9.194858,0 16.648768,4.2092 16.648768,9.4016 z"
           id="path4187" />
        <path
           inkscape:connector-curvature="0"
           style="fill:#ffffff;fill-opacity:1;fill-rule:nonzero;stroke:none"
           d="m 116.12705,4657.2348 c 0,7.0314 -7.6293,12.7315 -17.040505,12.7315 -9.411209,0 -17.040501,-5.7001 -17.040501,-12.7315 0,-7.0313 7.629292,-12.7314 17.040501,-12.7314 9.411205,0 17.040505,5.7001 17.040505,12.7314 z"
           id="path4189" />
      </g>
      <g
         id="g4191"
         transform="matrix(0.25713889,0,0,0.25713889,1060.7942,-177.91356)">
        <path
           id="path4193"
           d="m 92.231173,4635.4935 c 0,8.654 -11.137013,15.6694 -24.875215,15.6694 -13.738201,0 -24.875214,-7.0154 -24.875214,-15.6694 0,-8.654 11.137013,-15.6694 24.875214,-15.6694 13.738202,0 24.875215,7.0154 24.875215,15.6694 z"
           style="fill:#ffffff;fill-opacity:1;fill-rule:nonzero;stroke:none"
           inkscape:connector-curvature="0" />
        <path
           id="path4195"
           d="m 96.148525,4655.2762 c 0,8.3294 -11.487785,15.0818 -25.658685,15.0818 -14.1709,0 -25.658685,-6.7524 -25.658685,-15.0818 0,-8.3295 11.487785,-15.0819 25.658685,-15.0819 14.1709,0 25.658685,6.7524 25.658685,15.0819 z"
           style="fill:#ffffff;fill-opacity:1;fill-rule:nonzero;stroke:none"
           inkscape:connector-curvature="0" />
        <path
           id="path4197"
           d="m 121.21961,4646.2662 c 0,9.844 -12.71549,17.824 -28.400837,17.824 -15.685348,0 -28.400834,-7.98 -28.400834,-17.824 0,-9.8439 12.715486,-17.8239 28.400834,-17.8239 15.685347,0 28.400837,7.98 28.400837,17.8239 z"
           style="fill:#ffffff;fill-opacity:1;fill-rule:nonzero;stroke:none"
           inkscape:connector-curvature="0" />
        <path
           id="path4199"
           d="m 120.0444,4630.2051 c 0,10.2766 -10.78624,18.6074 -24.09174,18.6074 -13.305502,0 -24.091742,-8.3308 -24.091742,-18.6074 0,-10.2766 10.78624,-18.6075 24.091742,-18.6075 13.3055,0 24.09174,8.3309 24.09174,18.6075 z"
           style="fill:#ffffff;fill-opacity:1;fill-rule:nonzero;stroke:none"
           inkscape:connector-curvature="0" />
        <path
           id="path4201"
           d="m 97.715473,4626.8753 c 0,9.3031 -11.137013,16.8447 -24.875216,16.8447 -13.738201,0 -24.875214,-7.5416 -24.875214,-16.8447 0,-9.303 11.137013,-16.8446 24.875214,-16.8446 13.738203,0 24.875216,7.5416 24.875216,16.8446 z"
           style="fill:#ffffff;fill-opacity:1;fill-rule:nonzero;stroke:none"
           inkscape:connector-curvature="0" />
        <path
           id="path4203"
           d="m 107.9006,4664.0902 c 0,5.1924 -7.45391,9.4017 -16.648768,9.4017 -9.194859,0 -16.648765,-4.2093 -16.648765,-9.4017 0,-5.1924 7.453906,-9.4016 16.648765,-9.4016 9.194858,0 16.648768,4.2092 16.648768,9.4016 z"
           style="fill:#ffffff;fill-opacity:1;fill-rule:nonzero;stroke:none"
           inkscape:connector-curvature="0" />
        <path
           id="path4205"
           d="m 116.12705,4657.2348 c 0,7.0314 -7.6293,12.7315 -17.040505,12.7315 -9.411209,0 -17.040501,-5.7001 -17.040501,-12.7315 0,-7.0313 7.629292,-12.7314 17.040501,-12.7314 9.411205,0 17.040505,5.7001 17.040505,12.7314 z"
           style="fill:#ffffff;fill-opacity:1;fill-rule:nonzero;stroke:none"
           inkscape:connector-curvature="0" />
      </g>
      <g
         id="g4207"
         transform="matrix(0.32399972,0,0,0.32399972,1076.9751,-634.71549)">
        <path
           id="path4209"
           d="m 92.231173,4635.4935 c 0,8.654 -11.137013,15.6694 -24.875215,15.6694 -13.738201,0 -24.875214,-7.0154 -24.875214,-15.6694 0,-8.654 11.137013,-15.6694 24.875214,-15.6694 13.738202,0 24.875215,7.0154 24.875215,15.6694 z"
           style="fill:#ffffff;fill-opacity:1;fill-rule:nonzero;stroke:none"
           inkscape:connector-curvature="0" />
        <path
           id="path4211"
           d="m 96.148525,4655.2762 c 0,8.3294 -11.487785,15.0818 -25.658685,15.0818 -14.1709,0 -25.658685,-6.7524 -25.658685,-15.0818 0,-8.3295 11.487785,-15.0819 25.658685,-15.0819 14.1709,0 25.658685,6.7524 25.658685,15.0819 z"
           style="fill:#ffffff;fill-opacity:1;fill-rule:nonzero;stroke:none"
           inkscape:connector-curvature="0" />
        <path
           id="path4213"
           d="m 121.21961,4646.2662 c 0,9.844 -12.71549,17.824 -28.400837,17.824 -15.685348,0 -28.400834,-7.98 -28.400834,-17.824 0,-9.8439 12.715486,-17.8239 28.400834,-17.8239 15.685347,0 28.400837,7.98 28.400837,17.8239 z"
           style="fill:#ffffff;fill-opacity:1;fill-rule:nonzero;stroke:none"
           inkscape:connector-curvature="0" />
        <path
           id="path4215"
           d="m 120.0444,4630.2051 c 0,10.2766 -10.78624,18.6074 -24.09174,18.6074 -13.305502,0 -24.091742,-8.3308 -24.091742,-18.6074 0,-10.2766 10.78624,-18.6075 24.091742,-18.6075 13.3055,0 24.09174,8.3309 24.09174,18.6075 z"
           style="fill:#ffffff;fill-opacity:1;fill-rule:nonzero;stroke:none"
           inkscape:connector-curvature="0" />
        <path
           id="path4217"
           d="m 97.715473,4626.8753 c 0,9.3031 -11.137013,16.8447 -24.875216,16.8447 -13.738201,0 -24.875214,-7.5416 -24.875214,-16.8447 0,-9.303 11.137013,-16.8446 24.875214,-16.8446 13.738203,0 24.875216,7.5416 24.875216,16.8446 z"
           style="fill:#ffffff;fill-opacity:1;fill-rule:nonzero;stroke:none"
           inkscape:connector-curvature="0" />
        <path
           id="path4219"
           d="m 107.9006,4664.0902 c 0,5.1924 -7.45391,9.4017 -16.648768,9.4017 -9.194859,0 -16.648765,-4.2093 -16.648765,-9.4017 0,-5.1924 7.453906,-9.4016 16.648765,-9.4016 9.194858,0 16.648768,4.2092 16.648768,9.4016 z"
           style="fill:#ffffff;fill-opacity:1;fill-rule:nonzero;stroke:none"
           inkscape:connector-curvature="0" />
        <path
           id="path4221"
           d="m 116.12705,4657.2348 c 0,7.0314 -7.6293,12.7315 -17.040505,12.7315 -9.411209,0 -17.040501,-5.7001 -17.040501,-12.7315 0,-7.0313 7.629292,-12.7314 17.040501,-12.7314 9.411205,0 17.040505,5.7001 17.040505,12.7314 z"
           style="fill:#ffffff;fill-opacity:1;fill-rule:nonzero;stroke:none"
           inkscape:connector-curvature="0" />
      </g>
      <g
         transform="matrix(0.25713889,0,0,0.25713889,999.36569,-226.48499)"
         id="g4223">
        <path
           inkscape:connector-curvature="0"
           style="fill:#ffffff;fill-opacity:1;fill-rule:nonzero;stroke:none"
           d="m 92.231173,4635.4935 c 0,8.654 -11.137013,15.6694 -24.875215,15.6694 -13.738201,0 -24.875214,-7.0154 -24.875214,-15.6694 0,-8.654 11.137013,-15.6694 24.875214,-15.6694 13.738202,0 24.875215,7.0154 24.875215,15.6694 z"
           id="path4225" />
        <path
           inkscape:connector-curvature="0"
           style="fill:#ffffff;fill-opacity:1;fill-rule:nonzero;stroke:none"
           d="m 96.148525,4655.2762 c 0,8.3294 -11.487785,15.0818 -25.658685,15.0818 -14.1709,0 -25.658685,-6.7524 -25.658685,-15.0818 0,-8.3295 11.487785,-15.0819 25.658685,-15.0819 14.1709,0 25.658685,6.7524 25.658685,15.0819 z"
           id="path4227" />
        <path
           inkscape:connector-curvature="0"
           style="fill:#ffffff;fill-opacity:1;fill-rule:nonzero;stroke:none"
           d="m 121.21961,4646.2662 c 0,9.844 -12.71549,17.824 -28.400837,17.824 -15.685348,0 -28.400834,-7.98 -28.400834,-17.824 0,-9.8439 12.715486,-17.8239 28.400834,-17.8239 15.685347,0 28.400837,7.98 28.400837,17.8239 z"
           id="path4229" />
        <path
           inkscape:connector-curvature="0"
           style="fill:#ffffff;fill-opacity:1;fill-rule:nonzero;stroke:none"
           d="m 120.0444,4630.2051 c 0,10.2766 -10.78624,18.6074 -24.09174,18.6074 -13.305502,0 -24.091742,-8.3308 -24.091742,-18.6074 0,-10.2766 10.78624,-18.6075 24.091742,-18.6075 13.3055,0 24.09174,8.3309 24.09174,18.6075 z"
           id="path4231" />
        <path
           inkscape:connector-curvature="0"
           style="fill:#ffffff;fill-opacity:1;fill-rule:nonzero;stroke:none"
           d="m 97.715473,4626.8753 c 0,9.3031 -11.137013,16.8447 -24.875216,16.8447 -13.738201,0 -24.875214,-7.5416 -24.875214,-16.8447 0,-9.303 11.137013,-16.8446 24.875214,-16.8446 13.738203,0 24.875216,7.5416 24.875216,16.8446 z"
           id="path4233" />
        <path
           inkscape:connector-curvature="0"
           style="fill:#ffffff;fill-opacity:1;fill-rule:nonzero;stroke:none"
           d="m 107.9006,4664.0902 c 0,5.1924 -7.45391,9.4017 -16.648768,9.4017 -9.194859,0 -16.648765,-4.2093 -16.648765,-9.4017 0,-5.1924 7.453906,-9.4016 16.648765,-9.4016 9.194858,0 16.648768,4.2092 16.648768,9.4016 z"
           id="path4235" />
        <path
           inkscape:connector-curvature="0"
           style="fill:#ffffff;fill-opacity:1;fill-rule:nonzero;stroke:none"
           d="m 116.12705,4657.2348 c 0,7.0314 -7.6293,12.7315 -17.040505,12.7315 -9.411209,0 -17.040501,-5.7001 -17.040501,-12.7315 0,-7.0313 7.629292,-12.7314 17.040501,-12.7314 9.411205,0 17.040505,5.7001 17.040505,12.7314 z"
           id="path4237" />
      </g>
      <g
         id="g4239"
         transform="matrix(0.25713889,0,0,0.25713889,1050.7941,-246.48499)">
        <path
           id="path4241"
           d="m 92.231173,4635.4935 c 0,8.654 -11.137013,15.6694 -24.875215,15.6694 -13.738201,0 -24.875214,-7.0154 -24.875214,-15.6694 0,-8.654 11.137013,-15.6694 24.875214,-15.6694 13.738202,0 24.875215,7.0154 24.875215,15.6694 z"
           style="fill:#ffffff;fill-opacity:1;fill-rule:nonzero;stroke:none"
           inkscape:connector-curvature="0" />
        <path
           id="path4243"
           d="m 96.148525,4655.2762 c 0,8.3294 -11.487785,15.0818 -25.658685,15.0818 -14.1709,0 -25.658685,-6.7524 -25.658685,-15.0818 0,-8.3295 11.487785,-15.0819 25.658685,-15.0819 14.1709,0 25.658685,6.7524 25.658685,15.0819 z"
           style="fill:#ffffff;fill-opacity:1;fill-rule:nonzero;stroke:none"
           inkscape:connector-curvature="0" />
        <path
           id="path4245"
           d="m 121.21961,4646.2662 c 0,9.844 -12.71549,17.824 -28.400837,17.824 -15.685348,0 -28.400834,-7.98 -28.400834,-17.824 0,-9.8439 12.715486,-17.8239 28.400834,-17.8239 15.685347,0 28.400837,7.98 28.400837,17.8239 z"
           style="fill:#ffffff;fill-opacity:1;fill-rule:nonzero;stroke:none"
           inkscape:connector-curvature="0" />
        <path
           id="path4247"
           d="m 120.0444,4630.2051 c 0,10.2766 -10.78624,18.6074 -24.09174,18.6074 -13.305502,0 -24.091742,-8.3308 -24.091742,-18.6074 0,-10.2766 10.78624,-18.6075 24.091742,-18.6075 13.3055,0 24.09174,8.3309 24.09174,18.6075 z"
           style="fill:#ffffff;fill-opacity:1;fill-rule:nonzero;stroke:none"
           inkscape:connector-curvature="0" />
        <path
           id="path4249"
           d="m 97.715473,4626.8753 c 0,9.3031 -11.137013,16.8447 -24.875216,16.8447 -13.738201,0 -24.875214,-7.5416 -24.875214,-16.8447 0,-9.303 11.137013,-16.8446 24.875214,-16.8446 13.738203,0 24.875216,7.5416 24.875216,16.8446 z"
           style="fill:#ffffff;fill-opacity:1;fill-rule:nonzero;stroke:none"
           inkscape:connector-curvature="0" />
        <path
           id="path4251"
           d="m 107.9006,4664.0902 c 0,5.1924 -7.45391,9.4017 -16.648768,9.4017 -9.194859,0 -16.648765,-4.2093 -16.648765,-9.4017 0,-5.1924 7.453906,-9.4016 16.648765,-9.4016 9.194858,0 16.648768,4.2092 16.648768,9.4016 z"
           style="fill:#ffffff;fill-opacity:1;fill-rule:nonzero;stroke:none"
           inkscape:connector-curvature="0" />
        <path
           id="path4253"
           d="m 116.12705,4657.2348 c 0,7.0314 -7.6293,12.7315 -17.040505,12.7315 -9.411209,0 -17.040501,-5.7001 -17.040501,-12.7315 0,-7.0313 7.629292,-12.7314 17.040501,-12.7314 9.411205,0 17.040505,5.7001 17.040505,12.7314 z"
           style="fill:#ffffff;fill-opacity:1;fill-rule:nonzero;stroke:none"
           inkscape:connector-curvature="0" />
      </g>
    </g>
  </g>
</svg>
